%TF.GenerationSoftware,KiCad,Pcbnew,(5.1.6)-1*%
%TF.CreationDate,2020-06-19T23:33:14-05:00*%
%TF.ProjectId,GNDS,474e4453-2e6b-4696-9361-645f70636258,rev?*%
%TF.SameCoordinates,Original*%
%TF.FileFunction,Copper,L2,Bot*%
%TF.FilePolarity,Positive*%
%FSLAX46Y46*%
G04 Gerber Fmt 4.6, Leading zero omitted, Abs format (unit mm)*
G04 Created by KiCad (PCBNEW (5.1.6)-1) date 2020-06-19 23:33:14*
%MOMM*%
%LPD*%
G01*
G04 APERTURE LIST*
%TA.AperFunction,ComponentPad*%
%ADD10C,10.000000*%
%TD*%
%TA.AperFunction,ComponentPad*%
%ADD11O,6.900000X3.900000*%
%TD*%
%TA.AperFunction,Conductor*%
%ADD12C,0.254000*%
%TD*%
G04 APERTURE END LIST*
D10*
%TO.P,H6,6*%
%TO.N,N/C*%
X139500000Y-111500000D03*
%TD*%
D11*
%TO.P,REF\u002A\u002A,*%
%TO.N,GND*%
X148249999Y3000000D03*
%TD*%
%TO.P,REF\u002A\u002A,*%
%TO.N,GND*%
X130750001Y-191000000D03*
%TD*%
D10*
%TO.P,H4,4*%
%TO.N,N/C*%
X139500000Y-76500000D03*
%TD*%
%TO.P,H2,2*%
%TO.N,N/C*%
X139500000Y-41500000D03*
%TD*%
D11*
%TO.P,REF\u002A\u002A,*%
%TO.N,GND*%
X148249999Y-191000000D03*
%TD*%
%TO.P,REF\u002A\u002A,*%
%TO.N,GND*%
X130750001Y3000000D03*
%TD*%
D10*
%TO.P,H7,7*%
%TO.N,N/C*%
X139500000Y-129000000D03*
%TD*%
%TO.P,H3,3*%
%TO.N,N/C*%
X139500000Y-59000000D03*
%TD*%
%TO.P,H1,1*%
%TO.N,N/C*%
X139500000Y-24000000D03*
%TD*%
%TO.P,H5,5*%
%TO.N,N/C*%
X139500000Y-94000000D03*
%TD*%
%TO.P,H9,9*%
%TO.N,N/C*%
X139500000Y-164000000D03*
%TD*%
%TO.P,H8,8*%
%TO.N,N/C*%
X139500000Y-146500000D03*
%TD*%
D12*
%TO.N,GND*%
G36*
X151265001Y-193265000D02*
G01*
X127735000Y-193265000D01*
X127735000Y-175279872D01*
X137265000Y-175279872D01*
X137265000Y-175720128D01*
X137350890Y-176151925D01*
X137519369Y-176558669D01*
X137763962Y-176924729D01*
X138075271Y-177236038D01*
X138441331Y-177480631D01*
X138848075Y-177649110D01*
X139279872Y-177735000D01*
X139720128Y-177735000D01*
X140151925Y-177649110D01*
X140558669Y-177480631D01*
X140924729Y-177236038D01*
X141236038Y-176924729D01*
X141480631Y-176558669D01*
X141649110Y-176151925D01*
X141735000Y-175720128D01*
X141735000Y-175279872D01*
X141649110Y-174848075D01*
X141480631Y-174441331D01*
X141236038Y-174075271D01*
X140924729Y-173763962D01*
X140558669Y-173519369D01*
X140151925Y-173350890D01*
X139720128Y-173265000D01*
X139279872Y-173265000D01*
X138848075Y-173350890D01*
X138441331Y-173519369D01*
X138075271Y-173763962D01*
X137763962Y-174075271D01*
X137519369Y-174441331D01*
X137350890Y-174848075D01*
X137265000Y-175279872D01*
X127735000Y-175279872D01*
X127735000Y-163445001D01*
X133865000Y-163445001D01*
X133865000Y-164554999D01*
X134081550Y-165643669D01*
X134506328Y-166669173D01*
X135123010Y-167592103D01*
X135907897Y-168376990D01*
X136830827Y-168993672D01*
X137856331Y-169418450D01*
X138945001Y-169635000D01*
X140054999Y-169635000D01*
X141143669Y-169418450D01*
X142169173Y-168993672D01*
X143092103Y-168376990D01*
X143876990Y-167592103D01*
X144493672Y-166669173D01*
X144918450Y-165643669D01*
X145135000Y-164554999D01*
X145135000Y-163445001D01*
X144918450Y-162356331D01*
X144493672Y-161330827D01*
X143876990Y-160407897D01*
X143092103Y-159623010D01*
X142169173Y-159006328D01*
X141143669Y-158581550D01*
X140054999Y-158365000D01*
X138945001Y-158365000D01*
X137856331Y-158581550D01*
X136830827Y-159006328D01*
X135907897Y-159623010D01*
X135123010Y-160407897D01*
X134506328Y-161330827D01*
X134081550Y-162356331D01*
X133865000Y-163445001D01*
X127735000Y-163445001D01*
X127735000Y-145945001D01*
X133865000Y-145945001D01*
X133865000Y-147054999D01*
X134081550Y-148143669D01*
X134506328Y-149169173D01*
X135123010Y-150092103D01*
X135907897Y-150876990D01*
X136830827Y-151493672D01*
X137856331Y-151918450D01*
X138945001Y-152135000D01*
X140054999Y-152135000D01*
X141143669Y-151918450D01*
X142169173Y-151493672D01*
X143092103Y-150876990D01*
X143876990Y-150092103D01*
X144493672Y-149169173D01*
X144918450Y-148143669D01*
X145135000Y-147054999D01*
X145135000Y-145945001D01*
X144918450Y-144856331D01*
X144493672Y-143830827D01*
X143876990Y-142907897D01*
X143092103Y-142123010D01*
X142169173Y-141506328D01*
X141143669Y-141081550D01*
X140054999Y-140865000D01*
X138945001Y-140865000D01*
X137856331Y-141081550D01*
X136830827Y-141506328D01*
X135907897Y-142123010D01*
X135123010Y-142907897D01*
X134506328Y-143830827D01*
X134081550Y-144856331D01*
X133865000Y-145945001D01*
X127735000Y-145945001D01*
X127735000Y-128445001D01*
X133865000Y-128445001D01*
X133865000Y-129554999D01*
X134081550Y-130643669D01*
X134506328Y-131669173D01*
X135123010Y-132592103D01*
X135907897Y-133376990D01*
X136830827Y-133993672D01*
X137856331Y-134418450D01*
X138945001Y-134635000D01*
X140054999Y-134635000D01*
X141143669Y-134418450D01*
X142169173Y-133993672D01*
X143092103Y-133376990D01*
X143876990Y-132592103D01*
X144493672Y-131669173D01*
X144918450Y-130643669D01*
X145135000Y-129554999D01*
X145135000Y-128445001D01*
X144918450Y-127356331D01*
X144493672Y-126330827D01*
X143876990Y-125407897D01*
X143092103Y-124623010D01*
X142169173Y-124006328D01*
X141143669Y-123581550D01*
X140054999Y-123365000D01*
X138945001Y-123365000D01*
X137856331Y-123581550D01*
X136830827Y-124006328D01*
X135907897Y-124623010D01*
X135123010Y-125407897D01*
X134506328Y-126330827D01*
X134081550Y-127356331D01*
X133865000Y-128445001D01*
X127735000Y-128445001D01*
X127735000Y-110945001D01*
X133865000Y-110945001D01*
X133865000Y-112054999D01*
X134081550Y-113143669D01*
X134506328Y-114169173D01*
X135123010Y-115092103D01*
X135907897Y-115876990D01*
X136830827Y-116493672D01*
X137856331Y-116918450D01*
X138945001Y-117135000D01*
X140054999Y-117135000D01*
X141143669Y-116918450D01*
X142169173Y-116493672D01*
X143092103Y-115876990D01*
X143876990Y-115092103D01*
X144493672Y-114169173D01*
X144918450Y-113143669D01*
X145135000Y-112054999D01*
X145135000Y-110945001D01*
X144918450Y-109856331D01*
X144493672Y-108830827D01*
X143876990Y-107907897D01*
X143092103Y-107123010D01*
X142169173Y-106506328D01*
X141143669Y-106081550D01*
X140054999Y-105865000D01*
X138945001Y-105865000D01*
X137856331Y-106081550D01*
X136830827Y-106506328D01*
X135907897Y-107123010D01*
X135123010Y-107907897D01*
X134506328Y-108830827D01*
X134081550Y-109856331D01*
X133865000Y-110945001D01*
X127735000Y-110945001D01*
X127735000Y-93445001D01*
X133865000Y-93445001D01*
X133865000Y-94554999D01*
X134081550Y-95643669D01*
X134506328Y-96669173D01*
X135123010Y-97592103D01*
X135907897Y-98376990D01*
X136830827Y-98993672D01*
X137856331Y-99418450D01*
X138945001Y-99635000D01*
X140054999Y-99635000D01*
X141143669Y-99418450D01*
X142169173Y-98993672D01*
X143092103Y-98376990D01*
X143876990Y-97592103D01*
X144493672Y-96669173D01*
X144918450Y-95643669D01*
X145135000Y-94554999D01*
X145135000Y-93445001D01*
X144918450Y-92356331D01*
X144493672Y-91330827D01*
X143876990Y-90407897D01*
X143092103Y-89623010D01*
X142169173Y-89006328D01*
X141143669Y-88581550D01*
X140054999Y-88365000D01*
X138945001Y-88365000D01*
X137856331Y-88581550D01*
X136830827Y-89006328D01*
X135907897Y-89623010D01*
X135123010Y-90407897D01*
X134506328Y-91330827D01*
X134081550Y-92356331D01*
X133865000Y-93445001D01*
X127735000Y-93445001D01*
X127735000Y-75945001D01*
X133865000Y-75945001D01*
X133865000Y-77054999D01*
X134081550Y-78143669D01*
X134506328Y-79169173D01*
X135123010Y-80092103D01*
X135907897Y-80876990D01*
X136830827Y-81493672D01*
X137856331Y-81918450D01*
X138945001Y-82135000D01*
X140054999Y-82135000D01*
X141143669Y-81918450D01*
X142169173Y-81493672D01*
X143092103Y-80876990D01*
X143876990Y-80092103D01*
X144493672Y-79169173D01*
X144918450Y-78143669D01*
X145135000Y-77054999D01*
X145135000Y-75945001D01*
X144918450Y-74856331D01*
X144493672Y-73830827D01*
X143876990Y-72907897D01*
X143092103Y-72123010D01*
X142169173Y-71506328D01*
X141143669Y-71081550D01*
X140054999Y-70865000D01*
X138945001Y-70865000D01*
X137856331Y-71081550D01*
X136830827Y-71506328D01*
X135907897Y-72123010D01*
X135123010Y-72907897D01*
X134506328Y-73830827D01*
X134081550Y-74856331D01*
X133865000Y-75945001D01*
X127735000Y-75945001D01*
X127735000Y-58445001D01*
X133865000Y-58445001D01*
X133865000Y-59554999D01*
X134081550Y-60643669D01*
X134506328Y-61669173D01*
X135123010Y-62592103D01*
X135907897Y-63376990D01*
X136830827Y-63993672D01*
X137856331Y-64418450D01*
X138945001Y-64635000D01*
X140054999Y-64635000D01*
X141143669Y-64418450D01*
X142169173Y-63993672D01*
X143092103Y-63376990D01*
X143876990Y-62592103D01*
X144493672Y-61669173D01*
X144918450Y-60643669D01*
X145135000Y-59554999D01*
X145135000Y-58445001D01*
X144918450Y-57356331D01*
X144493672Y-56330827D01*
X143876990Y-55407897D01*
X143092103Y-54623010D01*
X142169173Y-54006328D01*
X141143669Y-53581550D01*
X140054999Y-53365000D01*
X138945001Y-53365000D01*
X137856331Y-53581550D01*
X136830827Y-54006328D01*
X135907897Y-54623010D01*
X135123010Y-55407897D01*
X134506328Y-56330827D01*
X134081550Y-57356331D01*
X133865000Y-58445001D01*
X127735000Y-58445001D01*
X127735000Y-40945001D01*
X133865000Y-40945001D01*
X133865000Y-42054999D01*
X134081550Y-43143669D01*
X134506328Y-44169173D01*
X135123010Y-45092103D01*
X135907897Y-45876990D01*
X136830827Y-46493672D01*
X137856331Y-46918450D01*
X138945001Y-47135000D01*
X140054999Y-47135000D01*
X141143669Y-46918450D01*
X142169173Y-46493672D01*
X143092103Y-45876990D01*
X143876990Y-45092103D01*
X144493672Y-44169173D01*
X144918450Y-43143669D01*
X145135000Y-42054999D01*
X145135000Y-40945001D01*
X144918450Y-39856331D01*
X144493672Y-38830827D01*
X143876990Y-37907897D01*
X143092103Y-37123010D01*
X142169173Y-36506328D01*
X141143669Y-36081550D01*
X140054999Y-35865000D01*
X138945001Y-35865000D01*
X137856331Y-36081550D01*
X136830827Y-36506328D01*
X135907897Y-37123010D01*
X135123010Y-37907897D01*
X134506328Y-38830827D01*
X134081550Y-39856331D01*
X133865000Y-40945001D01*
X127735000Y-40945001D01*
X127735000Y-23445001D01*
X133865000Y-23445001D01*
X133865000Y-24554999D01*
X134081550Y-25643669D01*
X134506328Y-26669173D01*
X135123010Y-27592103D01*
X135907897Y-28376990D01*
X136830827Y-28993672D01*
X137856331Y-29418450D01*
X138945001Y-29635000D01*
X140054999Y-29635000D01*
X141143669Y-29418450D01*
X142169173Y-28993672D01*
X143092103Y-28376990D01*
X143876990Y-27592103D01*
X144493672Y-26669173D01*
X144918450Y-25643669D01*
X145135000Y-24554999D01*
X145135000Y-23445001D01*
X144918450Y-22356331D01*
X144493672Y-21330827D01*
X143876990Y-20407897D01*
X143092103Y-19623010D01*
X142169173Y-19006328D01*
X141143669Y-18581550D01*
X140054999Y-18365000D01*
X138945001Y-18365000D01*
X137856331Y-18581550D01*
X136830827Y-19006328D01*
X135907897Y-19623010D01*
X135123010Y-20407897D01*
X134506328Y-21330827D01*
X134081550Y-22356331D01*
X133865000Y-23445001D01*
X127735000Y-23445001D01*
X127735000Y-12279872D01*
X137265000Y-12279872D01*
X137265000Y-12720128D01*
X137350890Y-13151925D01*
X137519369Y-13558669D01*
X137763962Y-13924729D01*
X138075271Y-14236038D01*
X138441331Y-14480631D01*
X138848075Y-14649110D01*
X139279872Y-14735000D01*
X139720128Y-14735000D01*
X140151925Y-14649110D01*
X140558669Y-14480631D01*
X140924729Y-14236038D01*
X141236038Y-13924729D01*
X141480631Y-13558669D01*
X141649110Y-13151925D01*
X141735000Y-12720128D01*
X141735000Y-12279872D01*
X141649110Y-11848075D01*
X141480631Y-11441331D01*
X141236038Y-11075271D01*
X140924729Y-10763962D01*
X140558669Y-10519369D01*
X140151925Y-10350890D01*
X139720128Y-10265000D01*
X139279872Y-10265000D01*
X138848075Y-10350890D01*
X138441331Y-10519369D01*
X138075271Y-10763962D01*
X137763962Y-11075271D01*
X137519369Y-11441331D01*
X137350890Y-11848075D01*
X137265000Y-12279872D01*
X127735000Y-12279872D01*
X127735000Y5265000D01*
X151265000Y5265000D01*
X151265001Y-193265000D01*
G37*
X151265001Y-193265000D02*
X127735000Y-193265000D01*
X127735000Y-175279872D01*
X137265000Y-175279872D01*
X137265000Y-175720128D01*
X137350890Y-176151925D01*
X137519369Y-176558669D01*
X137763962Y-176924729D01*
X138075271Y-177236038D01*
X138441331Y-177480631D01*
X138848075Y-177649110D01*
X139279872Y-177735000D01*
X139720128Y-177735000D01*
X140151925Y-177649110D01*
X140558669Y-177480631D01*
X140924729Y-177236038D01*
X141236038Y-176924729D01*
X141480631Y-176558669D01*
X141649110Y-176151925D01*
X141735000Y-175720128D01*
X141735000Y-175279872D01*
X141649110Y-174848075D01*
X141480631Y-174441331D01*
X141236038Y-174075271D01*
X140924729Y-173763962D01*
X140558669Y-173519369D01*
X140151925Y-173350890D01*
X139720128Y-173265000D01*
X139279872Y-173265000D01*
X138848075Y-173350890D01*
X138441331Y-173519369D01*
X138075271Y-173763962D01*
X137763962Y-174075271D01*
X137519369Y-174441331D01*
X137350890Y-174848075D01*
X137265000Y-175279872D01*
X127735000Y-175279872D01*
X127735000Y-163445001D01*
X133865000Y-163445001D01*
X133865000Y-164554999D01*
X134081550Y-165643669D01*
X134506328Y-166669173D01*
X135123010Y-167592103D01*
X135907897Y-168376990D01*
X136830827Y-168993672D01*
X137856331Y-169418450D01*
X138945001Y-169635000D01*
X140054999Y-169635000D01*
X141143669Y-169418450D01*
X142169173Y-168993672D01*
X143092103Y-168376990D01*
X143876990Y-167592103D01*
X144493672Y-166669173D01*
X144918450Y-165643669D01*
X145135000Y-164554999D01*
X145135000Y-163445001D01*
X144918450Y-162356331D01*
X144493672Y-161330827D01*
X143876990Y-160407897D01*
X143092103Y-159623010D01*
X142169173Y-159006328D01*
X141143669Y-158581550D01*
X140054999Y-158365000D01*
X138945001Y-158365000D01*
X137856331Y-158581550D01*
X136830827Y-159006328D01*
X135907897Y-159623010D01*
X135123010Y-160407897D01*
X134506328Y-161330827D01*
X134081550Y-162356331D01*
X133865000Y-163445001D01*
X127735000Y-163445001D01*
X127735000Y-145945001D01*
X133865000Y-145945001D01*
X133865000Y-147054999D01*
X134081550Y-148143669D01*
X134506328Y-149169173D01*
X135123010Y-150092103D01*
X135907897Y-150876990D01*
X136830827Y-151493672D01*
X137856331Y-151918450D01*
X138945001Y-152135000D01*
X140054999Y-152135000D01*
X141143669Y-151918450D01*
X142169173Y-151493672D01*
X143092103Y-150876990D01*
X143876990Y-150092103D01*
X144493672Y-149169173D01*
X144918450Y-148143669D01*
X145135000Y-147054999D01*
X145135000Y-145945001D01*
X144918450Y-144856331D01*
X144493672Y-143830827D01*
X143876990Y-142907897D01*
X143092103Y-142123010D01*
X142169173Y-141506328D01*
X141143669Y-141081550D01*
X140054999Y-140865000D01*
X138945001Y-140865000D01*
X137856331Y-141081550D01*
X136830827Y-141506328D01*
X135907897Y-142123010D01*
X135123010Y-142907897D01*
X134506328Y-143830827D01*
X134081550Y-144856331D01*
X133865000Y-145945001D01*
X127735000Y-145945001D01*
X127735000Y-128445001D01*
X133865000Y-128445001D01*
X133865000Y-129554999D01*
X134081550Y-130643669D01*
X134506328Y-131669173D01*
X135123010Y-132592103D01*
X135907897Y-133376990D01*
X136830827Y-133993672D01*
X137856331Y-134418450D01*
X138945001Y-134635000D01*
X140054999Y-134635000D01*
X141143669Y-134418450D01*
X142169173Y-133993672D01*
X143092103Y-133376990D01*
X143876990Y-132592103D01*
X144493672Y-131669173D01*
X144918450Y-130643669D01*
X145135000Y-129554999D01*
X145135000Y-128445001D01*
X144918450Y-127356331D01*
X144493672Y-126330827D01*
X143876990Y-125407897D01*
X143092103Y-124623010D01*
X142169173Y-124006328D01*
X141143669Y-123581550D01*
X140054999Y-123365000D01*
X138945001Y-123365000D01*
X137856331Y-123581550D01*
X136830827Y-124006328D01*
X135907897Y-124623010D01*
X135123010Y-125407897D01*
X134506328Y-126330827D01*
X134081550Y-127356331D01*
X133865000Y-128445001D01*
X127735000Y-128445001D01*
X127735000Y-110945001D01*
X133865000Y-110945001D01*
X133865000Y-112054999D01*
X134081550Y-113143669D01*
X134506328Y-114169173D01*
X135123010Y-115092103D01*
X135907897Y-115876990D01*
X136830827Y-116493672D01*
X137856331Y-116918450D01*
X138945001Y-117135000D01*
X140054999Y-117135000D01*
X141143669Y-116918450D01*
X142169173Y-116493672D01*
X143092103Y-115876990D01*
X143876990Y-115092103D01*
X144493672Y-114169173D01*
X144918450Y-113143669D01*
X145135000Y-112054999D01*
X145135000Y-110945001D01*
X144918450Y-109856331D01*
X144493672Y-108830827D01*
X143876990Y-107907897D01*
X143092103Y-107123010D01*
X142169173Y-106506328D01*
X141143669Y-106081550D01*
X140054999Y-105865000D01*
X138945001Y-105865000D01*
X137856331Y-106081550D01*
X136830827Y-106506328D01*
X135907897Y-107123010D01*
X135123010Y-107907897D01*
X134506328Y-108830827D01*
X134081550Y-109856331D01*
X133865000Y-110945001D01*
X127735000Y-110945001D01*
X127735000Y-93445001D01*
X133865000Y-93445001D01*
X133865000Y-94554999D01*
X134081550Y-95643669D01*
X134506328Y-96669173D01*
X135123010Y-97592103D01*
X135907897Y-98376990D01*
X136830827Y-98993672D01*
X137856331Y-99418450D01*
X138945001Y-99635000D01*
X140054999Y-99635000D01*
X141143669Y-99418450D01*
X142169173Y-98993672D01*
X143092103Y-98376990D01*
X143876990Y-97592103D01*
X144493672Y-96669173D01*
X144918450Y-95643669D01*
X145135000Y-94554999D01*
X145135000Y-93445001D01*
X144918450Y-92356331D01*
X144493672Y-91330827D01*
X143876990Y-90407897D01*
X143092103Y-89623010D01*
X142169173Y-89006328D01*
X141143669Y-88581550D01*
X140054999Y-88365000D01*
X138945001Y-88365000D01*
X137856331Y-88581550D01*
X136830827Y-89006328D01*
X135907897Y-89623010D01*
X135123010Y-90407897D01*
X134506328Y-91330827D01*
X134081550Y-92356331D01*
X133865000Y-93445001D01*
X127735000Y-93445001D01*
X127735000Y-75945001D01*
X133865000Y-75945001D01*
X133865000Y-77054999D01*
X134081550Y-78143669D01*
X134506328Y-79169173D01*
X135123010Y-80092103D01*
X135907897Y-80876990D01*
X136830827Y-81493672D01*
X137856331Y-81918450D01*
X138945001Y-82135000D01*
X140054999Y-82135000D01*
X141143669Y-81918450D01*
X142169173Y-81493672D01*
X143092103Y-80876990D01*
X143876990Y-80092103D01*
X144493672Y-79169173D01*
X144918450Y-78143669D01*
X145135000Y-77054999D01*
X145135000Y-75945001D01*
X144918450Y-74856331D01*
X144493672Y-73830827D01*
X143876990Y-72907897D01*
X143092103Y-72123010D01*
X142169173Y-71506328D01*
X141143669Y-71081550D01*
X140054999Y-70865000D01*
X138945001Y-70865000D01*
X137856331Y-71081550D01*
X136830827Y-71506328D01*
X135907897Y-72123010D01*
X135123010Y-72907897D01*
X134506328Y-73830827D01*
X134081550Y-74856331D01*
X133865000Y-75945001D01*
X127735000Y-75945001D01*
X127735000Y-58445001D01*
X133865000Y-58445001D01*
X133865000Y-59554999D01*
X134081550Y-60643669D01*
X134506328Y-61669173D01*
X135123010Y-62592103D01*
X135907897Y-63376990D01*
X136830827Y-63993672D01*
X137856331Y-64418450D01*
X138945001Y-64635000D01*
X140054999Y-64635000D01*
X141143669Y-64418450D01*
X142169173Y-63993672D01*
X143092103Y-63376990D01*
X143876990Y-62592103D01*
X144493672Y-61669173D01*
X144918450Y-60643669D01*
X145135000Y-59554999D01*
X145135000Y-58445001D01*
X144918450Y-57356331D01*
X144493672Y-56330827D01*
X143876990Y-55407897D01*
X143092103Y-54623010D01*
X142169173Y-54006328D01*
X141143669Y-53581550D01*
X140054999Y-53365000D01*
X138945001Y-53365000D01*
X137856331Y-53581550D01*
X136830827Y-54006328D01*
X135907897Y-54623010D01*
X135123010Y-55407897D01*
X134506328Y-56330827D01*
X134081550Y-57356331D01*
X133865000Y-58445001D01*
X127735000Y-58445001D01*
X127735000Y-40945001D01*
X133865000Y-40945001D01*
X133865000Y-42054999D01*
X134081550Y-43143669D01*
X134506328Y-44169173D01*
X135123010Y-45092103D01*
X135907897Y-45876990D01*
X136830827Y-46493672D01*
X137856331Y-46918450D01*
X138945001Y-47135000D01*
X140054999Y-47135000D01*
X141143669Y-46918450D01*
X142169173Y-46493672D01*
X143092103Y-45876990D01*
X143876990Y-45092103D01*
X144493672Y-44169173D01*
X144918450Y-43143669D01*
X145135000Y-42054999D01*
X145135000Y-40945001D01*
X144918450Y-39856331D01*
X144493672Y-38830827D01*
X143876990Y-37907897D01*
X143092103Y-37123010D01*
X142169173Y-36506328D01*
X141143669Y-36081550D01*
X140054999Y-35865000D01*
X138945001Y-35865000D01*
X137856331Y-36081550D01*
X136830827Y-36506328D01*
X135907897Y-37123010D01*
X135123010Y-37907897D01*
X134506328Y-38830827D01*
X134081550Y-39856331D01*
X133865000Y-40945001D01*
X127735000Y-40945001D01*
X127735000Y-23445001D01*
X133865000Y-23445001D01*
X133865000Y-24554999D01*
X134081550Y-25643669D01*
X134506328Y-26669173D01*
X135123010Y-27592103D01*
X135907897Y-28376990D01*
X136830827Y-28993672D01*
X137856331Y-29418450D01*
X138945001Y-29635000D01*
X140054999Y-29635000D01*
X141143669Y-29418450D01*
X142169173Y-28993672D01*
X143092103Y-28376990D01*
X143876990Y-27592103D01*
X144493672Y-26669173D01*
X144918450Y-25643669D01*
X145135000Y-24554999D01*
X145135000Y-23445001D01*
X144918450Y-22356331D01*
X144493672Y-21330827D01*
X143876990Y-20407897D01*
X143092103Y-19623010D01*
X142169173Y-19006328D01*
X141143669Y-18581550D01*
X140054999Y-18365000D01*
X138945001Y-18365000D01*
X137856331Y-18581550D01*
X136830827Y-19006328D01*
X135907897Y-19623010D01*
X135123010Y-20407897D01*
X134506328Y-21330827D01*
X134081550Y-22356331D01*
X133865000Y-23445001D01*
X127735000Y-23445001D01*
X127735000Y-12279872D01*
X137265000Y-12279872D01*
X137265000Y-12720128D01*
X137350890Y-13151925D01*
X137519369Y-13558669D01*
X137763962Y-13924729D01*
X138075271Y-14236038D01*
X138441331Y-14480631D01*
X138848075Y-14649110D01*
X139279872Y-14735000D01*
X139720128Y-14735000D01*
X140151925Y-14649110D01*
X140558669Y-14480631D01*
X140924729Y-14236038D01*
X141236038Y-13924729D01*
X141480631Y-13558669D01*
X141649110Y-13151925D01*
X141735000Y-12720128D01*
X141735000Y-12279872D01*
X141649110Y-11848075D01*
X141480631Y-11441331D01*
X141236038Y-11075271D01*
X140924729Y-10763962D01*
X140558669Y-10519369D01*
X140151925Y-10350890D01*
X139720128Y-10265000D01*
X139279872Y-10265000D01*
X138848075Y-10350890D01*
X138441331Y-10519369D01*
X138075271Y-10763962D01*
X137763962Y-11075271D01*
X137519369Y-11441331D01*
X137350890Y-11848075D01*
X137265000Y-12279872D01*
X127735000Y-12279872D01*
X127735000Y5265000D01*
X151265000Y5265000D01*
X151265001Y-193265000D01*
%TD*%
M02*
