%TF.GenerationSoftware,KiCad,Pcbnew,(5.1.6)-1*%
%TF.CreationDate,2020-06-19T23:33:14-05:00*%
%TF.ProjectId,GNDS,474e4453-2e6b-4696-9361-645f70636258,rev?*%
%TF.SameCoordinates,Original*%
%TF.FileFunction,Legend,Bot*%
%TF.FilePolarity,Positive*%
%FSLAX46Y46*%
G04 Gerber Fmt 4.6, Leading zero omitted, Abs format (unit mm)*
G04 Created by KiCad (PCBNEW (5.1.6)-1) date 2020-06-19 23:33:14*
%MOMM*%
%LPD*%
G01*
G04 APERTURE LIST*
%ADD10C,0.200000*%
%ADD11C,0.300000*%
G04 APERTURE END LIST*
D10*
X146645714Y-186452380D02*
X146675476Y-186690476D01*
X146901666Y-186595238D02*
X146675476Y-186690476D01*
X146425476Y-186595238D01*
X146842142Y-186880952D02*
X146675476Y-186690476D01*
X146556428Y-186880952D01*
X145883809Y-186452380D02*
X145913571Y-186690476D01*
X146139761Y-186595238D02*
X145913571Y-186690476D01*
X145663571Y-186595238D01*
X146080238Y-186880952D02*
X145913571Y-186690476D01*
X145794523Y-186880952D01*
X145121904Y-186452380D02*
X145151666Y-186690476D01*
X145377857Y-186595238D02*
X145151666Y-186690476D01*
X144901666Y-186595238D01*
X145318333Y-186880952D02*
X145151666Y-186690476D01*
X145032619Y-186880952D01*
X144627857Y-187452380D02*
X144502857Y-186452380D01*
X144056428Y-187452380D01*
X143931428Y-186452380D01*
X143264761Y-186452380D02*
X143074285Y-186452380D01*
X142985000Y-186500000D01*
X142901666Y-186595238D01*
X142877857Y-186785714D01*
X142919523Y-187119047D01*
X142990952Y-187309523D01*
X143098095Y-187404761D01*
X143199285Y-187452380D01*
X143389761Y-187452380D01*
X143479047Y-187404761D01*
X143562380Y-187309523D01*
X143586190Y-187119047D01*
X143544523Y-186785714D01*
X143473095Y-186595238D01*
X143365952Y-186500000D01*
X143264761Y-186452380D01*
X142550476Y-186452380D02*
X141979047Y-186452380D01*
X142389761Y-187452380D02*
X142264761Y-186452380D01*
X140610000Y-186928571D02*
X140943333Y-186928571D01*
X141008809Y-187452380D02*
X140883809Y-186452380D01*
X140407619Y-186452380D01*
X139836190Y-186452380D02*
X139645714Y-186452380D01*
X139556428Y-186500000D01*
X139473095Y-186595238D01*
X139449285Y-186785714D01*
X139490952Y-187119047D01*
X139562380Y-187309523D01*
X139669523Y-187404761D01*
X139770714Y-187452380D01*
X139961190Y-187452380D01*
X140050476Y-187404761D01*
X140133809Y-187309523D01*
X140157619Y-187119047D01*
X140115952Y-186785714D01*
X140044523Y-186595238D01*
X139937380Y-186500000D01*
X139836190Y-186452380D01*
X138532619Y-187452380D02*
X138806428Y-186976190D01*
X139104047Y-187452380D02*
X138979047Y-186452380D01*
X138598095Y-186452380D01*
X138508809Y-186500000D01*
X138467142Y-186547619D01*
X138431428Y-186642857D01*
X138449285Y-186785714D01*
X138508809Y-186880952D01*
X138562380Y-186928571D01*
X138663571Y-186976190D01*
X139044523Y-186976190D01*
X137342142Y-187452380D02*
X137217142Y-186452380D01*
X136973095Y-187166666D01*
X136550476Y-186452380D01*
X136675476Y-187452380D01*
X136074285Y-186452380D02*
X136175476Y-187261904D01*
X136139761Y-187357142D01*
X136098095Y-187404761D01*
X136008809Y-187452380D01*
X135818333Y-187452380D01*
X135717142Y-187404761D01*
X135663571Y-187357142D01*
X135604047Y-187261904D01*
X135502857Y-186452380D01*
X134675476Y-187452380D02*
X135151666Y-187452380D01*
X135026666Y-186452380D01*
X134360000Y-186452380D02*
X133788571Y-186452380D01*
X134199285Y-187452380D02*
X134074285Y-186452380D01*
X133568333Y-187357142D02*
X133526666Y-187404761D01*
X133580238Y-187452380D01*
X133621904Y-187404761D01*
X133568333Y-187357142D01*
X133580238Y-187452380D01*
X133532619Y-187071428D02*
X133508809Y-186500000D01*
X133455238Y-186452380D01*
X133413571Y-186500000D01*
X133532619Y-187071428D01*
X133455238Y-186452380D01*
X132836190Y-186452380D02*
X132865952Y-186690476D01*
X133092142Y-186595238D02*
X132865952Y-186690476D01*
X132615952Y-186595238D01*
X133032619Y-186880952D02*
X132865952Y-186690476D01*
X132746904Y-186880952D01*
X132074285Y-186452380D02*
X132104047Y-186690476D01*
X132330238Y-186595238D02*
X132104047Y-186690476D01*
X131854047Y-186595238D01*
X132270714Y-186880952D02*
X132104047Y-186690476D01*
X131985000Y-186880952D01*
X131312380Y-186452380D02*
X131342142Y-186690476D01*
X131568333Y-186595238D02*
X131342142Y-186690476D01*
X131092142Y-186595238D01*
X131508809Y-186880952D02*
X131342142Y-186690476D01*
X131223095Y-186880952D01*
D11*
X140035714Y-9607142D02*
X139821428Y-9678571D01*
X139464285Y-9678571D01*
X139321428Y-9607142D01*
X139250000Y-9535714D01*
X139178571Y-9392857D01*
X139178571Y-9250000D01*
X139250000Y-9107142D01*
X139321428Y-9035714D01*
X139464285Y-8964285D01*
X139750000Y-8892857D01*
X139892857Y-8821428D01*
X139964285Y-8750000D01*
X140035714Y-8607142D01*
X140035714Y-8464285D01*
X139964285Y-8321428D01*
X139892857Y-8250000D01*
X139750000Y-8178571D01*
X139392857Y-8178571D01*
X139178571Y-8250000D01*
X138535714Y-8178571D02*
X138535714Y-9392857D01*
X138464285Y-9535714D01*
X138392857Y-9607142D01*
X138250000Y-9678571D01*
X137964285Y-9678571D01*
X137821428Y-9607142D01*
X137750000Y-9535714D01*
X137678571Y-9392857D01*
X137678571Y-8178571D01*
X136964285Y-9678571D02*
X136964285Y-8178571D01*
X136392857Y-8178571D01*
X136250000Y-8250000D01*
X136178571Y-8321428D01*
X136107142Y-8464285D01*
X136107142Y-8678571D01*
X136178571Y-8821428D01*
X136250000Y-8892857D01*
X136392857Y-8964285D01*
X136964285Y-8964285D01*
X135464285Y-9678571D02*
X135464285Y-8178571D01*
X134892857Y-8178571D01*
X134750000Y-8250000D01*
X134678571Y-8321428D01*
X134607142Y-8464285D01*
X134607142Y-8678571D01*
X134678571Y-8821428D01*
X134750000Y-8892857D01*
X134892857Y-8964285D01*
X135464285Y-8964285D01*
X133250000Y-9678571D02*
X133964285Y-9678571D01*
X133964285Y-8178571D01*
X132464285Y-8964285D02*
X132464285Y-9678571D01*
X132964285Y-8178571D02*
X132464285Y-8964285D01*
X131964285Y-8178571D01*
X131464285Y-9535714D02*
X131392857Y-9607142D01*
X131464285Y-9678571D01*
X131535714Y-9607142D01*
X131464285Y-9535714D01*
X131464285Y-9678571D01*
X131464285Y-9107142D02*
X131535714Y-8250000D01*
X131464285Y-8178571D01*
X131392857Y-8250000D01*
X131464285Y-9107142D01*
X131464285Y-8178571D01*
X130750000Y-9535714D02*
X130678571Y-9607142D01*
X130750000Y-9678571D01*
X130821428Y-9607142D01*
X130750000Y-9535714D01*
X130750000Y-9678571D01*
X130750000Y-9107142D02*
X130821428Y-8250000D01*
X130750000Y-8178571D01*
X130678571Y-8250000D01*
X130750000Y-9107142D01*
X130750000Y-8178571D01*
X130035714Y-9535714D02*
X129964285Y-9607142D01*
X130035714Y-9678571D01*
X130107142Y-9607142D01*
X130035714Y-9535714D01*
X130035714Y-9678571D01*
X130035714Y-9107142D02*
X130107142Y-8250000D01*
X130035714Y-8178571D01*
X129964285Y-8250000D01*
X130035714Y-9107142D01*
X130035714Y-8178571D01*
X149035714Y-9678571D02*
X149035714Y-8178571D01*
X148464285Y-8178571D01*
X148321428Y-8250000D01*
X148250000Y-8321428D01*
X148178571Y-8464285D01*
X148178571Y-8678571D01*
X148250000Y-8821428D01*
X148321428Y-8892857D01*
X148464285Y-8964285D01*
X149035714Y-8964285D01*
X147250000Y-8178571D02*
X146964285Y-8178571D01*
X146821428Y-8250000D01*
X146678571Y-8392857D01*
X146607142Y-8678571D01*
X146607142Y-9178571D01*
X146678571Y-9464285D01*
X146821428Y-9607142D01*
X146964285Y-9678571D01*
X147250000Y-9678571D01*
X147392857Y-9607142D01*
X147535714Y-9464285D01*
X147607142Y-9178571D01*
X147607142Y-8678571D01*
X147535714Y-8392857D01*
X147392857Y-8250000D01*
X147250000Y-8178571D01*
X146107142Y-8178571D02*
X145750000Y-9678571D01*
X145464285Y-8607142D01*
X145178571Y-9678571D01*
X144821428Y-8178571D01*
X144250000Y-8892857D02*
X143750000Y-8892857D01*
X143535714Y-9678571D02*
X144250000Y-9678571D01*
X144250000Y-8178571D01*
X143535714Y-8178571D01*
X142035714Y-9678571D02*
X142535714Y-8964285D01*
X142892857Y-9678571D02*
X142892857Y-8178571D01*
X142321428Y-8178571D01*
X142178571Y-8250000D01*
X142107142Y-8321428D01*
X142035714Y-8464285D01*
X142035714Y-8678571D01*
X142107142Y-8821428D01*
X142178571Y-8892857D01*
X142321428Y-8964285D01*
X142892857Y-8964285D01*
X134178571Y-6892857D02*
X134678571Y-6892857D01*
X134678571Y-7678571D02*
X134678571Y-6178571D01*
X133964285Y-6178571D01*
X132535714Y-7678571D02*
X133035714Y-6964285D01*
X133392857Y-7678571D02*
X133392857Y-6178571D01*
X132821428Y-6178571D01*
X132678571Y-6250000D01*
X132607142Y-6321428D01*
X132535714Y-6464285D01*
X132535714Y-6678571D01*
X132607142Y-6821428D01*
X132678571Y-6892857D01*
X132821428Y-6964285D01*
X133392857Y-6964285D01*
X131607142Y-6178571D02*
X131321428Y-6178571D01*
X131178571Y-6250000D01*
X131035714Y-6392857D01*
X130964285Y-6678571D01*
X130964285Y-7178571D01*
X131035714Y-7464285D01*
X131178571Y-7607142D01*
X131321428Y-7678571D01*
X131607142Y-7678571D01*
X131750000Y-7607142D01*
X131892857Y-7464285D01*
X131964285Y-7178571D01*
X131964285Y-6678571D01*
X131892857Y-6392857D01*
X131750000Y-6250000D01*
X131607142Y-6178571D01*
X130321428Y-7678571D02*
X130321428Y-6178571D01*
X129821428Y-7250000D01*
X129321428Y-6178571D01*
X129321428Y-7678571D01*
X149571428Y-7678571D02*
X149571428Y-6178571D01*
X149214285Y-6178571D01*
X149000000Y-6250000D01*
X148857142Y-6392857D01*
X148785714Y-6535714D01*
X148714285Y-6821428D01*
X148714285Y-7035714D01*
X148785714Y-7321428D01*
X148857142Y-7464285D01*
X149000000Y-7607142D01*
X149214285Y-7678571D01*
X149571428Y-7678571D01*
X148071428Y-7678571D02*
X148071428Y-6178571D01*
X147428571Y-7607142D02*
X147214285Y-7678571D01*
X146857142Y-7678571D01*
X146714285Y-7607142D01*
X146642857Y-7535714D01*
X146571428Y-7392857D01*
X146571428Y-7250000D01*
X146642857Y-7107142D01*
X146714285Y-7035714D01*
X146857142Y-6964285D01*
X147142857Y-6892857D01*
X147285714Y-6821428D01*
X147357142Y-6750000D01*
X147428571Y-6607142D01*
X147428571Y-6464285D01*
X147357142Y-6321428D01*
X147285714Y-6250000D01*
X147142857Y-6178571D01*
X146785714Y-6178571D01*
X146571428Y-6250000D01*
X145071428Y-7535714D02*
X145142857Y-7607142D01*
X145357142Y-7678571D01*
X145500000Y-7678571D01*
X145714285Y-7607142D01*
X145857142Y-7464285D01*
X145928571Y-7321428D01*
X146000000Y-7035714D01*
X146000000Y-6821428D01*
X145928571Y-6535714D01*
X145857142Y-6392857D01*
X145714285Y-6250000D01*
X145500000Y-6178571D01*
X145357142Y-6178571D01*
X145142857Y-6250000D01*
X145071428Y-6321428D01*
X144142857Y-6178571D02*
X143857142Y-6178571D01*
X143714285Y-6250000D01*
X143571428Y-6392857D01*
X143500000Y-6678571D01*
X143500000Y-7178571D01*
X143571428Y-7464285D01*
X143714285Y-7607142D01*
X143857142Y-7678571D01*
X144142857Y-7678571D01*
X144285714Y-7607142D01*
X144428571Y-7464285D01*
X144500000Y-7178571D01*
X144500000Y-6678571D01*
X144428571Y-6392857D01*
X144285714Y-6250000D01*
X144142857Y-6178571D01*
X142857142Y-7678571D02*
X142857142Y-6178571D01*
X142000000Y-7678571D01*
X142000000Y-6178571D01*
X141285714Y-7678571D02*
X141285714Y-6178571D01*
X140428571Y-7678571D01*
X140428571Y-6178571D01*
X139714285Y-6892857D02*
X139214285Y-6892857D01*
X139000000Y-7678571D02*
X139714285Y-7678571D01*
X139714285Y-6178571D01*
X139000000Y-6178571D01*
X137500000Y-7535714D02*
X137571428Y-7607142D01*
X137785714Y-7678571D01*
X137928571Y-7678571D01*
X138142857Y-7607142D01*
X138285714Y-7464285D01*
X138357142Y-7321428D01*
X138428571Y-7035714D01*
X138428571Y-6821428D01*
X138357142Y-6535714D01*
X138285714Y-6392857D01*
X138142857Y-6250000D01*
X137928571Y-6178571D01*
X137785714Y-6178571D01*
X137571428Y-6250000D01*
X137500000Y-6321428D01*
X137071428Y-6178571D02*
X136214285Y-6178571D01*
X136642857Y-7678571D02*
X136642857Y-6178571D01*
X147251428Y-4748571D02*
X147251428Y-3962857D01*
X147322857Y-3820000D01*
X147465714Y-3748571D01*
X147751428Y-3748571D01*
X147894285Y-3820000D01*
X147251428Y-4677142D02*
X147394285Y-4748571D01*
X147751428Y-4748571D01*
X147894285Y-4677142D01*
X147965714Y-4534285D01*
X147965714Y-4391428D01*
X147894285Y-4248571D01*
X147751428Y-4177142D01*
X147394285Y-4177142D01*
X147251428Y-4105714D01*
X144894285Y-3962857D02*
X144680000Y-4034285D01*
X144608571Y-4105714D01*
X144537142Y-4248571D01*
X144537142Y-4462857D01*
X144608571Y-4605714D01*
X144680000Y-4677142D01*
X144822857Y-4748571D01*
X145394285Y-4748571D01*
X145394285Y-3248571D01*
X144894285Y-3248571D01*
X144751428Y-3320000D01*
X144680000Y-3391428D01*
X144608571Y-3534285D01*
X144608571Y-3677142D01*
X144680000Y-3820000D01*
X144751428Y-3891428D01*
X144894285Y-3962857D01*
X145394285Y-3962857D01*
X143894285Y-4605714D02*
X143822857Y-4677142D01*
X143894285Y-4748571D01*
X143965714Y-4677142D01*
X143894285Y-4605714D01*
X143894285Y-4748571D01*
X141608571Y-3248571D02*
X141608571Y-4320000D01*
X141680000Y-4534285D01*
X141822857Y-4677142D01*
X142037142Y-4748571D01*
X142180000Y-4748571D01*
X140251428Y-4748571D02*
X140251428Y-3962857D01*
X140322857Y-3820000D01*
X140465714Y-3748571D01*
X140751428Y-3748571D01*
X140894285Y-3820000D01*
X140251428Y-4677142D02*
X140394285Y-4748571D01*
X140751428Y-4748571D01*
X140894285Y-4677142D01*
X140965714Y-4534285D01*
X140965714Y-4391428D01*
X140894285Y-4248571D01*
X140751428Y-4177142D01*
X140394285Y-4177142D01*
X140251428Y-4105714D01*
X138894285Y-4677142D02*
X139037142Y-4748571D01*
X139322857Y-4748571D01*
X139465714Y-4677142D01*
X139537142Y-4605714D01*
X139608571Y-4462857D01*
X139608571Y-4034285D01*
X139537142Y-3891428D01*
X139465714Y-3820000D01*
X139322857Y-3748571D01*
X139037142Y-3748571D01*
X138894285Y-3820000D01*
X138251428Y-4748571D02*
X138251428Y-3248571D01*
X138108571Y-4177142D02*
X137680000Y-4748571D01*
X137680000Y-3748571D02*
X138251428Y-4320000D01*
X135894285Y-4748571D02*
X135894285Y-3248571D01*
X135394285Y-4320000D01*
X134894285Y-3248571D01*
X134894285Y-4748571D01*
X134180000Y-3248571D02*
X134180000Y-4462857D01*
X134108571Y-4605714D01*
X134037142Y-4677142D01*
X133894285Y-4748571D01*
X133608571Y-4748571D01*
X133465714Y-4677142D01*
X133394285Y-4605714D01*
X133322857Y-4462857D01*
X133322857Y-3248571D01*
X131894285Y-4748571D02*
X132608571Y-4748571D01*
X132608571Y-3248571D01*
X131608571Y-3248571D02*
X130751428Y-3248571D01*
X131180000Y-4748571D02*
X131180000Y-3248571D01*
X147081428Y-650000D02*
X147224285Y-578571D01*
X147438571Y-578571D01*
X147652857Y-650000D01*
X147795714Y-792857D01*
X147867142Y-935714D01*
X147938571Y-1221428D01*
X147938571Y-1435714D01*
X147867142Y-1721428D01*
X147795714Y-1864285D01*
X147652857Y-2007142D01*
X147438571Y-2078571D01*
X147295714Y-2078571D01*
X147081428Y-2007142D01*
X147010000Y-1935714D01*
X147010000Y-1435714D01*
X147295714Y-1435714D01*
X145510000Y-2078571D02*
X146010000Y-1364285D01*
X146367142Y-2078571D02*
X146367142Y-578571D01*
X145795714Y-578571D01*
X145652857Y-650000D01*
X145581428Y-721428D01*
X145510000Y-864285D01*
X145510000Y-1078571D01*
X145581428Y-1221428D01*
X145652857Y-1292857D01*
X145795714Y-1364285D01*
X146367142Y-1364285D01*
X144867142Y-2078571D02*
X144867142Y-578571D01*
X144010000Y-2078571D01*
X144010000Y-578571D01*
X143295714Y-2078571D02*
X143295714Y-578571D01*
X142938571Y-578571D01*
X142724285Y-650000D01*
X142581428Y-792857D01*
X142510000Y-935714D01*
X142438571Y-1221428D01*
X142438571Y-1435714D01*
X142510000Y-1721428D01*
X142581428Y-1864285D01*
X142724285Y-2007142D01*
X142938571Y-2078571D01*
X143295714Y-2078571D01*
X141867142Y-2007142D02*
X141652857Y-2078571D01*
X141295714Y-2078571D01*
X141152857Y-2007142D01*
X141081428Y-1935714D01*
X141010000Y-1792857D01*
X141010000Y-1650000D01*
X141081428Y-1507142D01*
X141152857Y-1435714D01*
X141295714Y-1364285D01*
X141581428Y-1292857D01*
X141724285Y-1221428D01*
X141795714Y-1150000D01*
X141867142Y-1007142D01*
X141867142Y-864285D01*
X141795714Y-721428D01*
X141724285Y-650000D01*
X141581428Y-578571D01*
X141224285Y-578571D01*
X141010000Y-650000D01*
X139224285Y-2078571D02*
X139224285Y-1078571D01*
X139224285Y-578571D02*
X139295714Y-650000D01*
X139224285Y-721428D01*
X139152857Y-650000D01*
X139224285Y-578571D01*
X139224285Y-721428D01*
X138581428Y-2007142D02*
X138438571Y-2078571D01*
X138152857Y-2078571D01*
X138010000Y-2007142D01*
X137938571Y-1864285D01*
X137938571Y-1792857D01*
X138010000Y-1650000D01*
X138152857Y-1578571D01*
X138367142Y-1578571D01*
X138510000Y-1507142D01*
X138581428Y-1364285D01*
X138581428Y-1292857D01*
X138510000Y-1150000D01*
X138367142Y-1078571D01*
X138152857Y-1078571D01*
X138010000Y-1150000D01*
X135510000Y-2078571D02*
X135510000Y-1292857D01*
X135581428Y-1150000D01*
X135724285Y-1078571D01*
X136010000Y-1078571D01*
X136152857Y-1150000D01*
X135510000Y-2007142D02*
X135652857Y-2078571D01*
X136010000Y-2078571D01*
X136152857Y-2007142D01*
X136224285Y-1864285D01*
X136224285Y-1721428D01*
X136152857Y-1578571D01*
X136010000Y-1507142D01*
X135652857Y-1507142D01*
X135510000Y-1435714D01*
X134581428Y-2078571D02*
X134724285Y-2007142D01*
X134795714Y-1864285D01*
X134795714Y-578571D01*
X134081428Y-2007142D02*
X133938571Y-2078571D01*
X133652857Y-2078571D01*
X133510000Y-2007142D01*
X133438571Y-1864285D01*
X133438571Y-1792857D01*
X133510000Y-1650000D01*
X133652857Y-1578571D01*
X133867142Y-1578571D01*
X134010000Y-1507142D01*
X134081428Y-1364285D01*
X134081428Y-1292857D01*
X134010000Y-1150000D01*
X133867142Y-1078571D01*
X133652857Y-1078571D01*
X133510000Y-1150000D01*
X132581428Y-2078571D02*
X132724285Y-2007142D01*
X132795714Y-1935714D01*
X132867142Y-1792857D01*
X132867142Y-1364285D01*
X132795714Y-1221428D01*
X132724285Y-1150000D01*
X132581428Y-1078571D01*
X132367142Y-1078571D01*
X132224285Y-1150000D01*
X132152857Y-1221428D01*
X132081428Y-1364285D01*
X132081428Y-1792857D01*
X132152857Y-1935714D01*
X132224285Y-2007142D01*
X132367142Y-2078571D01*
X132581428Y-2078571D01*
X145047142Y-184972857D02*
X144832857Y-185044285D01*
X144761428Y-185115714D01*
X144690000Y-185258571D01*
X144690000Y-185472857D01*
X144761428Y-185615714D01*
X144832857Y-185687142D01*
X144975714Y-185758571D01*
X145547142Y-185758571D01*
X145547142Y-184258571D01*
X145047142Y-184258571D01*
X144904285Y-184330000D01*
X144832857Y-184401428D01*
X144761428Y-184544285D01*
X144761428Y-184687142D01*
X144832857Y-184830000D01*
X144904285Y-184901428D01*
X145047142Y-184972857D01*
X145547142Y-184972857D01*
X144047142Y-185615714D02*
X143975714Y-185687142D01*
X144047142Y-185758571D01*
X144118571Y-185687142D01*
X144047142Y-185615714D01*
X144047142Y-185758571D01*
X141761428Y-184258571D02*
X141761428Y-185330000D01*
X141832857Y-185544285D01*
X141975714Y-185687142D01*
X142190000Y-185758571D01*
X142332857Y-185758571D01*
X140404285Y-185758571D02*
X140404285Y-184972857D01*
X140475714Y-184830000D01*
X140618571Y-184758571D01*
X140904285Y-184758571D01*
X141047142Y-184830000D01*
X140404285Y-185687142D02*
X140547142Y-185758571D01*
X140904285Y-185758571D01*
X141047142Y-185687142D01*
X141118571Y-185544285D01*
X141118571Y-185401428D01*
X141047142Y-185258571D01*
X140904285Y-185187142D01*
X140547142Y-185187142D01*
X140404285Y-185115714D01*
X139047142Y-185687142D02*
X139190000Y-185758571D01*
X139475714Y-185758571D01*
X139618571Y-185687142D01*
X139690000Y-185615714D01*
X139761428Y-185472857D01*
X139761428Y-185044285D01*
X139690000Y-184901428D01*
X139618571Y-184830000D01*
X139475714Y-184758571D01*
X139190000Y-184758571D01*
X139047142Y-184830000D01*
X138404285Y-185758571D02*
X138404285Y-184258571D01*
X138261428Y-185187142D02*
X137832857Y-185758571D01*
X137832857Y-184758571D02*
X138404285Y-185330000D01*
X136118571Y-184758571D02*
X135047142Y-184758571D01*
X135690000Y-184115714D02*
X136118571Y-186044285D01*
X135190000Y-185401428D02*
X136261428Y-185401428D01*
X135618571Y-186044285D02*
X135190000Y-184115714D01*
X134475714Y-185758571D02*
X134190000Y-185758571D01*
X134047142Y-185687142D01*
X133975714Y-185615714D01*
X133832857Y-185401428D01*
X133761428Y-185115714D01*
X133761428Y-184544285D01*
X133832857Y-184401428D01*
X133904285Y-184330000D01*
X134047142Y-184258571D01*
X134332857Y-184258571D01*
X134475714Y-184330000D01*
X134547142Y-184401428D01*
X134618571Y-184544285D01*
X134618571Y-184901428D01*
X134547142Y-185044285D01*
X134475714Y-185115714D01*
X134332857Y-185187142D01*
X134047142Y-185187142D01*
X133904285Y-185115714D01*
X133832857Y-185044285D01*
X133761428Y-184901428D01*
X145685714Y-183335714D02*
X145757142Y-183407142D01*
X145971428Y-183478571D01*
X146114285Y-183478571D01*
X146328571Y-183407142D01*
X146471428Y-183264285D01*
X146542857Y-183121428D01*
X146614285Y-182835714D01*
X146614285Y-182621428D01*
X146542857Y-182335714D01*
X146471428Y-182192857D01*
X146328571Y-182050000D01*
X146114285Y-181978571D01*
X145971428Y-181978571D01*
X145757142Y-182050000D01*
X145685714Y-182121428D01*
X144828571Y-183478571D02*
X144971428Y-183407142D01*
X145042857Y-183335714D01*
X145114285Y-183192857D01*
X145114285Y-182764285D01*
X145042857Y-182621428D01*
X144971428Y-182550000D01*
X144828571Y-182478571D01*
X144614285Y-182478571D01*
X144471428Y-182550000D01*
X144400000Y-182621428D01*
X144328571Y-182764285D01*
X144328571Y-183192857D01*
X144400000Y-183335714D01*
X144471428Y-183407142D01*
X144614285Y-183478571D01*
X144828571Y-183478571D01*
X143685714Y-182478571D02*
X143685714Y-183478571D01*
X143685714Y-182621428D02*
X143614285Y-182550000D01*
X143471428Y-182478571D01*
X143257142Y-182478571D01*
X143114285Y-182550000D01*
X143042857Y-182692857D01*
X143042857Y-183478571D01*
X142328571Y-182478571D02*
X142328571Y-183478571D01*
X142328571Y-182621428D02*
X142257142Y-182550000D01*
X142114285Y-182478571D01*
X141900000Y-182478571D01*
X141757142Y-182550000D01*
X141685714Y-182692857D01*
X141685714Y-183478571D01*
X140400000Y-183407142D02*
X140542857Y-183478571D01*
X140828571Y-183478571D01*
X140971428Y-183407142D01*
X141042857Y-183264285D01*
X141042857Y-182692857D01*
X140971428Y-182550000D01*
X140828571Y-182478571D01*
X140542857Y-182478571D01*
X140400000Y-182550000D01*
X140328571Y-182692857D01*
X140328571Y-182835714D01*
X141042857Y-182978571D01*
X139042857Y-183407142D02*
X139185714Y-183478571D01*
X139471428Y-183478571D01*
X139614285Y-183407142D01*
X139685714Y-183335714D01*
X139757142Y-183192857D01*
X139757142Y-182764285D01*
X139685714Y-182621428D01*
X139614285Y-182550000D01*
X139471428Y-182478571D01*
X139185714Y-182478571D01*
X139042857Y-182550000D01*
X138614285Y-182478571D02*
X138042857Y-182478571D01*
X138400000Y-181978571D02*
X138400000Y-183264285D01*
X138328571Y-183407142D01*
X138185714Y-183478571D01*
X138042857Y-183478571D01*
X136542857Y-182478571D02*
X136185714Y-183478571D01*
X135828571Y-182478571D01*
X135257142Y-183478571D02*
X135257142Y-182478571D01*
X135257142Y-181978571D02*
X135328571Y-182050000D01*
X135257142Y-182121428D01*
X135185714Y-182050000D01*
X135257142Y-181978571D01*
X135257142Y-182121428D01*
X133900000Y-183478571D02*
X133900000Y-182692857D01*
X133971428Y-182550000D01*
X134114285Y-182478571D01*
X134400000Y-182478571D01*
X134542857Y-182550000D01*
X133900000Y-183407142D02*
X134042857Y-183478571D01*
X134400000Y-183478571D01*
X134542857Y-183407142D01*
X134614285Y-183264285D01*
X134614285Y-183121428D01*
X134542857Y-182978571D01*
X134400000Y-182907142D01*
X134042857Y-182907142D01*
X133900000Y-182835714D01*
X148035714Y-179950000D02*
X148178571Y-179878571D01*
X148392857Y-179878571D01*
X148607142Y-179950000D01*
X148750000Y-180092857D01*
X148821428Y-180235714D01*
X148892857Y-180521428D01*
X148892857Y-180735714D01*
X148821428Y-181021428D01*
X148750000Y-181164285D01*
X148607142Y-181307142D01*
X148392857Y-181378571D01*
X148250000Y-181378571D01*
X148035714Y-181307142D01*
X147964285Y-181235714D01*
X147964285Y-180735714D01*
X148250000Y-180735714D01*
X146464285Y-181378571D02*
X146964285Y-180664285D01*
X147321428Y-181378571D02*
X147321428Y-179878571D01*
X146750000Y-179878571D01*
X146607142Y-179950000D01*
X146535714Y-180021428D01*
X146464285Y-180164285D01*
X146464285Y-180378571D01*
X146535714Y-180521428D01*
X146607142Y-180592857D01*
X146750000Y-180664285D01*
X147321428Y-180664285D01*
X145821428Y-181378571D02*
X145821428Y-179878571D01*
X144964285Y-181378571D01*
X144964285Y-179878571D01*
X144250000Y-181378571D02*
X144250000Y-179878571D01*
X143892857Y-179878571D01*
X143678571Y-179950000D01*
X143535714Y-180092857D01*
X143464285Y-180235714D01*
X143392857Y-180521428D01*
X143392857Y-180735714D01*
X143464285Y-181021428D01*
X143535714Y-181164285D01*
X143678571Y-181307142D01*
X143892857Y-181378571D01*
X144250000Y-181378571D01*
X142821428Y-181307142D02*
X142607142Y-181378571D01*
X142250000Y-181378571D01*
X142107142Y-181307142D01*
X142035714Y-181235714D01*
X141964285Y-181092857D01*
X141964285Y-180950000D01*
X142035714Y-180807142D01*
X142107142Y-180735714D01*
X142250000Y-180664285D01*
X142535714Y-180592857D01*
X142678571Y-180521428D01*
X142750000Y-180450000D01*
X142821428Y-180307142D01*
X142821428Y-180164285D01*
X142750000Y-180021428D01*
X142678571Y-179950000D01*
X142535714Y-179878571D01*
X142178571Y-179878571D01*
X141964285Y-179950000D01*
X140178571Y-180807142D02*
X139035714Y-180807142D01*
X139607142Y-181378571D02*
X139607142Y-180235714D01*
X136750000Y-179878571D02*
X136750000Y-180950000D01*
X136821428Y-181164285D01*
X136964285Y-181307142D01*
X137178571Y-181378571D01*
X137321428Y-181378571D01*
X136035714Y-181378571D02*
X136035714Y-179878571D01*
X135535714Y-180950000D01*
X135035714Y-179878571D01*
X135035714Y-181378571D01*
X133821428Y-180592857D02*
X133607142Y-180664285D01*
X133535714Y-180735714D01*
X133464285Y-180878571D01*
X133464285Y-181092857D01*
X133535714Y-181235714D01*
X133607142Y-181307142D01*
X133750000Y-181378571D01*
X134321428Y-181378571D01*
X134321428Y-179878571D01*
X133821428Y-179878571D01*
X133678571Y-179950000D01*
X133607142Y-180021428D01*
X133535714Y-180164285D01*
X133535714Y-180307142D01*
X133607142Y-180450000D01*
X133678571Y-180521428D01*
X133821428Y-180592857D01*
X134321428Y-180592857D01*
X132107142Y-181378571D02*
X132821428Y-181378571D01*
X132821428Y-179878571D01*
X130750000Y-181378571D02*
X131250000Y-180664285D01*
X131607142Y-181378571D02*
X131607142Y-179878571D01*
X131035714Y-179878571D01*
X130892857Y-179950000D01*
X130821428Y-180021428D01*
X130750000Y-180164285D01*
X130750000Y-180378571D01*
X130821428Y-180521428D01*
X130892857Y-180592857D01*
X131035714Y-180664285D01*
X131607142Y-180664285D01*
M02*
