M48
; DRILL file {KiCad (5.1.6)-1} date 06/19/20 18:14:55
; FORMAT={-:-/ absolute / inch / decimal}
; #@! TF.CreationDate,2020-06-19T18:14:55-05:00
; #@! TF.GenerationSoftware,Kicad,Pcbnew,(5.1.6)-1
; #@! TF.FileFunction,Plated,1,2,PTH
FMAT,2
INCH
T1C0.0394
T2C0.3307
%
G90
G05
T1
X6.685Y-1.9291
X7.0846Y-3.4957
X7.0846Y-3.5957
X7.0846Y-3.6957
X7.0846Y-3.7957
X6.685Y-4.685
X6.685Y-5.3937
X6.685Y-6.7717
X6.685Y-3.3465
X6.9807Y-3.4957
X6.9807Y-3.5957
X6.9807Y-3.6957
X6.9807Y-3.7957
X6.9807Y-3.8957
X6.685Y-6.063
X6.685Y-2.6378
X6.685Y-4.0157
X7.0846Y-3.8957
X6.685Y-1.2598
T2
X6.685Y-2.3228
X6.685Y-1.6339
X6.685Y-0.9449
X6.685Y-3.0118
X6.685Y-3.7008
X6.685Y-4.3898
X6.685Y-5.7677
X6.685Y-5.0787
X6.685Y-6.4567
T0
M30
