%TF.GenerationSoftware,KiCad,Pcbnew,(5.1.6)-1*%
%TF.CreationDate,2020-06-19T18:14:50-05:00*%
%TF.ProjectId,GNDS,474e4453-2e6b-4696-9361-645f70636258,rev?*%
%TF.SameCoordinates,Original*%
%TF.FileFunction,Copper,L1,Top*%
%TF.FilePolarity,Positive*%
%FSLAX46Y46*%
G04 Gerber Fmt 4.6, Leading zero omitted, Abs format (unit mm)*
G04 Created by KiCad (PCBNEW (5.1.6)-1) date 2020-06-19 18:14:50*
%MOMM*%
%LPD*%
G01*
G04 APERTURE LIST*
%TA.AperFunction,ComponentPad*%
%ADD10R,2.000000X2.000000*%
%TD*%
%TA.AperFunction,ComponentPad*%
%ADD11R,1.700000X1.700000*%
%TD*%
%TA.AperFunction,ComponentPad*%
%ADD12O,1.700000X1.700000*%
%TD*%
%TA.AperFunction,ComponentPad*%
%ADD13C,10.000000*%
%TD*%
%TA.AperFunction,Conductor*%
%ADD14C,0.254000*%
%TD*%
G04 APERTURE END LIST*
D10*
%TO.P,LINK,1*%
%TO.N,GND*%
X169800000Y-172000000D03*
%TD*%
%TO.P,B8,1*%
%TO.N,GND*%
X169800000Y-154000000D03*
%TD*%
%TO.P,B7,1*%
%TO.N,GND*%
X169800000Y-137000000D03*
%TD*%
%TO.P,B6,1*%
%TO.N,GND*%
X169800000Y-119000000D03*
%TD*%
%TO.P,B5,1*%
%TO.N,GND*%
X169800000Y-102000000D03*
%TD*%
%TO.P,B4,1*%
%TO.N,GND*%
X169800000Y-85000000D03*
%TD*%
%TO.P,B3,1*%
%TO.N,GND*%
X169800000Y-67000000D03*
%TD*%
%TO.P,B2,1*%
%TO.N,GND*%
X169800000Y-49000000D03*
%TD*%
%TO.P,B1,1*%
%TO.N,GND*%
X169800000Y-32000000D03*
%TD*%
D11*
%TO.P,J2,1*%
%TO.N,Net-(J1-Pad1)*%
X179950000Y-98950000D03*
D12*
%TO.P,J2,2*%
%TO.N,GND*%
X179950000Y-96410000D03*
%TO.P,J2,3*%
X179950000Y-93870000D03*
%TO.P,J2,4*%
X179950000Y-91330000D03*
%TO.P,J2,5*%
%TO.N,Net-(J1-Pad5)*%
X179950000Y-88790000D03*
%TD*%
%TO.P,J1,5*%
%TO.N,Net-(J1-Pad5)*%
X177310000Y-88790000D03*
%TO.P,J1,4*%
%TO.N,GND*%
X177310000Y-91330000D03*
%TO.P,J1,3*%
X177310000Y-93870000D03*
%TO.P,J1,2*%
X177310000Y-96410000D03*
D11*
%TO.P,J1,1*%
%TO.N,Net-(J1-Pad1)*%
X177310000Y-98950000D03*
%TD*%
D13*
%TO.P,H1,1*%
%TO.N,N/C*%
X169800000Y-24000000D03*
%TD*%
%TO.P,H2,2*%
%TO.N,N/C*%
X169800000Y-41500000D03*
%TD*%
%TO.P,H3,3*%
%TO.N,N/C*%
X169800000Y-59000000D03*
%TD*%
%TO.P,H4,4*%
%TO.N,N/C*%
X169800000Y-76500000D03*
%TD*%
%TO.P,H5,5*%
%TO.N,N/C*%
X169800000Y-94000000D03*
%TD*%
%TO.P,H6,6*%
%TO.N,N/C*%
X169800000Y-111500000D03*
%TD*%
%TO.P,H7,7*%
%TO.N,N/C*%
X169800000Y-129000000D03*
%TD*%
%TO.P,H8,8*%
%TO.N,N/C*%
X169800000Y-146500000D03*
%TD*%
%TO.P,H9,9*%
%TO.N,N/C*%
X169800000Y-164000000D03*
%TD*%
D14*
%TO.N,GND*%
G36*
X168375271Y-10763962D02*
G01*
X168063962Y-11075271D01*
X167819369Y-11441331D01*
X167650890Y-11848075D01*
X167565000Y-12279872D01*
X167565000Y-12720128D01*
X167650890Y-13151925D01*
X167819369Y-13558669D01*
X168063962Y-13924729D01*
X168375271Y-14236038D01*
X168741331Y-14480631D01*
X169148075Y-14649110D01*
X169579872Y-14735000D01*
X170020128Y-14735000D01*
X170451925Y-14649110D01*
X170858669Y-14480631D01*
X171224729Y-14236038D01*
X171536038Y-13924729D01*
X171780631Y-13558669D01*
X171949110Y-13151925D01*
X172035000Y-12720128D01*
X172035000Y-12279872D01*
X171949110Y-11848075D01*
X171780631Y-11441331D01*
X171536038Y-11075271D01*
X171224729Y-10763962D01*
X171143969Y-10710000D01*
X181090000Y-10710000D01*
X181090000Y-87829893D01*
X180896632Y-87636525D01*
X180653411Y-87474010D01*
X180383158Y-87362068D01*
X180096260Y-87305000D01*
X179803740Y-87305000D01*
X179516842Y-87362068D01*
X179246589Y-87474010D01*
X179003368Y-87636525D01*
X178796525Y-87843368D01*
X178634010Y-88086589D01*
X178630000Y-88096270D01*
X178625990Y-88086589D01*
X178463475Y-87843368D01*
X178256632Y-87636525D01*
X178013411Y-87474010D01*
X177743158Y-87362068D01*
X177456260Y-87305000D01*
X177163740Y-87305000D01*
X176876842Y-87362068D01*
X176606589Y-87474010D01*
X176363368Y-87636525D01*
X176156525Y-87843368D01*
X175994010Y-88086589D01*
X175882068Y-88356842D01*
X175825000Y-88643740D01*
X175825000Y-88936260D01*
X175882068Y-89223158D01*
X175994010Y-89493411D01*
X176156525Y-89736632D01*
X176363368Y-89943475D01*
X176606589Y-90105990D01*
X176876842Y-90217932D01*
X177163740Y-90275000D01*
X177456260Y-90275000D01*
X177743158Y-90217932D01*
X178013411Y-90105990D01*
X178256632Y-89943475D01*
X178463475Y-89736632D01*
X178625990Y-89493411D01*
X178630000Y-89483730D01*
X178634010Y-89493411D01*
X178796525Y-89736632D01*
X179003368Y-89943475D01*
X179246589Y-90105990D01*
X179516842Y-90217932D01*
X179803740Y-90275000D01*
X180096260Y-90275000D01*
X180383158Y-90217932D01*
X180653411Y-90105990D01*
X180896632Y-89943475D01*
X181090000Y-89750107D01*
X181090001Y-97534990D01*
X181044180Y-97510498D01*
X180924482Y-97474188D01*
X180800000Y-97461928D01*
X179100000Y-97461928D01*
X178975518Y-97474188D01*
X178855820Y-97510498D01*
X178745506Y-97569463D01*
X178648815Y-97648815D01*
X178630000Y-97671741D01*
X178611185Y-97648815D01*
X178514494Y-97569463D01*
X178404180Y-97510498D01*
X178284482Y-97474188D01*
X178160000Y-97461928D01*
X176460000Y-97461928D01*
X176335518Y-97474188D01*
X176215820Y-97510498D01*
X176105506Y-97569463D01*
X176008815Y-97648815D01*
X175929463Y-97745506D01*
X175870498Y-97855820D01*
X175834188Y-97975518D01*
X175821928Y-98100000D01*
X175821928Y-99800000D01*
X175834188Y-99924482D01*
X175870498Y-100044180D01*
X175929463Y-100154494D01*
X176008815Y-100251185D01*
X176105506Y-100330537D01*
X176215820Y-100389502D01*
X176335518Y-100425812D01*
X176460000Y-100438072D01*
X178160000Y-100438072D01*
X178284482Y-100425812D01*
X178404180Y-100389502D01*
X178514494Y-100330537D01*
X178611185Y-100251185D01*
X178630000Y-100228259D01*
X178648815Y-100251185D01*
X178745506Y-100330537D01*
X178855820Y-100389502D01*
X178975518Y-100425812D01*
X179100000Y-100438072D01*
X180800000Y-100438072D01*
X180924482Y-100425812D01*
X181044180Y-100389502D01*
X181090001Y-100365010D01*
X181090001Y-177290000D01*
X171143969Y-177290000D01*
X171224729Y-177236038D01*
X171536038Y-176924729D01*
X171780631Y-176558669D01*
X171949110Y-176151925D01*
X172035000Y-175720128D01*
X172035000Y-175279872D01*
X171949110Y-174848075D01*
X171780631Y-174441331D01*
X171536038Y-174075271D01*
X171224729Y-173763962D01*
X170858669Y-173519369D01*
X170451925Y-173350890D01*
X170020128Y-173265000D01*
X169579872Y-173265000D01*
X169148075Y-173350890D01*
X168741331Y-173519369D01*
X168375271Y-173763962D01*
X168063962Y-174075271D01*
X167819369Y-174441331D01*
X167650890Y-174848075D01*
X167565000Y-175279872D01*
X167565000Y-175720128D01*
X167650890Y-176151925D01*
X167819369Y-176558669D01*
X168063962Y-176924729D01*
X168375271Y-177236038D01*
X168456031Y-177290000D01*
X163510000Y-177290000D01*
X163510000Y-163445001D01*
X164165000Y-163445001D01*
X164165000Y-164554999D01*
X164381550Y-165643669D01*
X164806328Y-166669173D01*
X165423010Y-167592103D01*
X166207897Y-168376990D01*
X167130827Y-168993672D01*
X168156331Y-169418450D01*
X169245001Y-169635000D01*
X170354999Y-169635000D01*
X171443669Y-169418450D01*
X172469173Y-168993672D01*
X173392103Y-168376990D01*
X174176990Y-167592103D01*
X174793672Y-166669173D01*
X175218450Y-165643669D01*
X175435000Y-164554999D01*
X175435000Y-163445001D01*
X175218450Y-162356331D01*
X174793672Y-161330827D01*
X174176990Y-160407897D01*
X173392103Y-159623010D01*
X172469173Y-159006328D01*
X171443669Y-158581550D01*
X170354999Y-158365000D01*
X169245001Y-158365000D01*
X168156331Y-158581550D01*
X167130827Y-159006328D01*
X166207897Y-159623010D01*
X165423010Y-160407897D01*
X164806328Y-161330827D01*
X164381550Y-162356331D01*
X164165000Y-163445001D01*
X163510000Y-163445001D01*
X163510000Y-145945001D01*
X164165000Y-145945001D01*
X164165000Y-147054999D01*
X164381550Y-148143669D01*
X164806328Y-149169173D01*
X165423010Y-150092103D01*
X166207897Y-150876990D01*
X167130827Y-151493672D01*
X168156331Y-151918450D01*
X169245001Y-152135000D01*
X170354999Y-152135000D01*
X171443669Y-151918450D01*
X172469173Y-151493672D01*
X173392103Y-150876990D01*
X174176990Y-150092103D01*
X174793672Y-149169173D01*
X175218450Y-148143669D01*
X175435000Y-147054999D01*
X175435000Y-145945001D01*
X175218450Y-144856331D01*
X174793672Y-143830827D01*
X174176990Y-142907897D01*
X173392103Y-142123010D01*
X172469173Y-141506328D01*
X171443669Y-141081550D01*
X170354999Y-140865000D01*
X169245001Y-140865000D01*
X168156331Y-141081550D01*
X167130827Y-141506328D01*
X166207897Y-142123010D01*
X165423010Y-142907897D01*
X164806328Y-143830827D01*
X164381550Y-144856331D01*
X164165000Y-145945001D01*
X163510000Y-145945001D01*
X163510000Y-128445001D01*
X164165000Y-128445001D01*
X164165000Y-129554999D01*
X164381550Y-130643669D01*
X164806328Y-131669173D01*
X165423010Y-132592103D01*
X166207897Y-133376990D01*
X167130827Y-133993672D01*
X168156331Y-134418450D01*
X169245001Y-134635000D01*
X170354999Y-134635000D01*
X171443669Y-134418450D01*
X172469173Y-133993672D01*
X173392103Y-133376990D01*
X174176990Y-132592103D01*
X174793672Y-131669173D01*
X175218450Y-130643669D01*
X175435000Y-129554999D01*
X175435000Y-128445001D01*
X175218450Y-127356331D01*
X174793672Y-126330827D01*
X174176990Y-125407897D01*
X173392103Y-124623010D01*
X172469173Y-124006328D01*
X171443669Y-123581550D01*
X170354999Y-123365000D01*
X169245001Y-123365000D01*
X168156331Y-123581550D01*
X167130827Y-124006328D01*
X166207897Y-124623010D01*
X165423010Y-125407897D01*
X164806328Y-126330827D01*
X164381550Y-127356331D01*
X164165000Y-128445001D01*
X163510000Y-128445001D01*
X163510000Y-110945001D01*
X164165000Y-110945001D01*
X164165000Y-112054999D01*
X164381550Y-113143669D01*
X164806328Y-114169173D01*
X165423010Y-115092103D01*
X166207897Y-115876990D01*
X167130827Y-116493672D01*
X168156331Y-116918450D01*
X169245001Y-117135000D01*
X170354999Y-117135000D01*
X171443669Y-116918450D01*
X172469173Y-116493672D01*
X173392103Y-115876990D01*
X174176990Y-115092103D01*
X174793672Y-114169173D01*
X175218450Y-113143669D01*
X175435000Y-112054999D01*
X175435000Y-110945001D01*
X175218450Y-109856331D01*
X174793672Y-108830827D01*
X174176990Y-107907897D01*
X173392103Y-107123010D01*
X172469173Y-106506328D01*
X171443669Y-106081550D01*
X170354999Y-105865000D01*
X169245001Y-105865000D01*
X168156331Y-106081550D01*
X167130827Y-106506328D01*
X166207897Y-107123010D01*
X165423010Y-107907897D01*
X164806328Y-108830827D01*
X164381550Y-109856331D01*
X164165000Y-110945001D01*
X163510000Y-110945001D01*
X163510000Y-93445001D01*
X164165000Y-93445001D01*
X164165000Y-94554999D01*
X164381550Y-95643669D01*
X164806328Y-96669173D01*
X165423010Y-97592103D01*
X166207897Y-98376990D01*
X167130827Y-98993672D01*
X168156331Y-99418450D01*
X169245001Y-99635000D01*
X170354999Y-99635000D01*
X171443669Y-99418450D01*
X172469173Y-98993672D01*
X173392103Y-98376990D01*
X174176990Y-97592103D01*
X174793672Y-96669173D01*
X175218450Y-95643669D01*
X175435000Y-94554999D01*
X175435000Y-93445001D01*
X175218450Y-92356331D01*
X174793672Y-91330827D01*
X174176990Y-90407897D01*
X173392103Y-89623010D01*
X172469173Y-89006328D01*
X171443669Y-88581550D01*
X170354999Y-88365000D01*
X169245001Y-88365000D01*
X168156331Y-88581550D01*
X167130827Y-89006328D01*
X166207897Y-89623010D01*
X165423010Y-90407897D01*
X164806328Y-91330827D01*
X164381550Y-92356331D01*
X164165000Y-93445001D01*
X163510000Y-93445001D01*
X163510000Y-75945001D01*
X164165000Y-75945001D01*
X164165000Y-77054999D01*
X164381550Y-78143669D01*
X164806328Y-79169173D01*
X165423010Y-80092103D01*
X166207897Y-80876990D01*
X167130827Y-81493672D01*
X168156331Y-81918450D01*
X169245001Y-82135000D01*
X170354999Y-82135000D01*
X171443669Y-81918450D01*
X172469173Y-81493672D01*
X173392103Y-80876990D01*
X174176990Y-80092103D01*
X174793672Y-79169173D01*
X175218450Y-78143669D01*
X175435000Y-77054999D01*
X175435000Y-75945001D01*
X175218450Y-74856331D01*
X174793672Y-73830827D01*
X174176990Y-72907897D01*
X173392103Y-72123010D01*
X172469173Y-71506328D01*
X171443669Y-71081550D01*
X170354999Y-70865000D01*
X169245001Y-70865000D01*
X168156331Y-71081550D01*
X167130827Y-71506328D01*
X166207897Y-72123010D01*
X165423010Y-72907897D01*
X164806328Y-73830827D01*
X164381550Y-74856331D01*
X164165000Y-75945001D01*
X163510000Y-75945001D01*
X163510000Y-58445001D01*
X164165000Y-58445001D01*
X164165000Y-59554999D01*
X164381550Y-60643669D01*
X164806328Y-61669173D01*
X165423010Y-62592103D01*
X166207897Y-63376990D01*
X167130827Y-63993672D01*
X168156331Y-64418450D01*
X169245001Y-64635000D01*
X170354999Y-64635000D01*
X171443669Y-64418450D01*
X172469173Y-63993672D01*
X173392103Y-63376990D01*
X174176990Y-62592103D01*
X174793672Y-61669173D01*
X175218450Y-60643669D01*
X175435000Y-59554999D01*
X175435000Y-58445001D01*
X175218450Y-57356331D01*
X174793672Y-56330827D01*
X174176990Y-55407897D01*
X173392103Y-54623010D01*
X172469173Y-54006328D01*
X171443669Y-53581550D01*
X170354999Y-53365000D01*
X169245001Y-53365000D01*
X168156331Y-53581550D01*
X167130827Y-54006328D01*
X166207897Y-54623010D01*
X165423010Y-55407897D01*
X164806328Y-56330827D01*
X164381550Y-57356331D01*
X164165000Y-58445001D01*
X163510000Y-58445001D01*
X163510000Y-40945001D01*
X164165000Y-40945001D01*
X164165000Y-42054999D01*
X164381550Y-43143669D01*
X164806328Y-44169173D01*
X165423010Y-45092103D01*
X166207897Y-45876990D01*
X167130827Y-46493672D01*
X168156331Y-46918450D01*
X169245001Y-47135000D01*
X170354999Y-47135000D01*
X171443669Y-46918450D01*
X172469173Y-46493672D01*
X173392103Y-45876990D01*
X174176990Y-45092103D01*
X174793672Y-44169173D01*
X175218450Y-43143669D01*
X175435000Y-42054999D01*
X175435000Y-40945001D01*
X175218450Y-39856331D01*
X174793672Y-38830827D01*
X174176990Y-37907897D01*
X173392103Y-37123010D01*
X172469173Y-36506328D01*
X171443669Y-36081550D01*
X170354999Y-35865000D01*
X169245001Y-35865000D01*
X168156331Y-36081550D01*
X167130827Y-36506328D01*
X166207897Y-37123010D01*
X165423010Y-37907897D01*
X164806328Y-38830827D01*
X164381550Y-39856331D01*
X164165000Y-40945001D01*
X163510000Y-40945001D01*
X163510000Y-23445001D01*
X164165000Y-23445001D01*
X164165000Y-24554999D01*
X164381550Y-25643669D01*
X164806328Y-26669173D01*
X165423010Y-27592103D01*
X166207897Y-28376990D01*
X167130827Y-28993672D01*
X168156331Y-29418450D01*
X169245001Y-29635000D01*
X170354999Y-29635000D01*
X171443669Y-29418450D01*
X172469173Y-28993672D01*
X173392103Y-28376990D01*
X174176990Y-27592103D01*
X174793672Y-26669173D01*
X175218450Y-25643669D01*
X175435000Y-24554999D01*
X175435000Y-23445001D01*
X175218450Y-22356331D01*
X174793672Y-21330827D01*
X174176990Y-20407897D01*
X173392103Y-19623010D01*
X172469173Y-19006328D01*
X171443669Y-18581550D01*
X170354999Y-18365000D01*
X169245001Y-18365000D01*
X168156331Y-18581550D01*
X167130827Y-19006328D01*
X166207897Y-19623010D01*
X165423010Y-20407897D01*
X164806328Y-21330827D01*
X164381550Y-22356331D01*
X164165000Y-23445001D01*
X163510000Y-23445001D01*
X163510000Y-10710000D01*
X168456031Y-10710000D01*
X168375271Y-10763962D01*
G37*
X168375271Y-10763962D02*
X168063962Y-11075271D01*
X167819369Y-11441331D01*
X167650890Y-11848075D01*
X167565000Y-12279872D01*
X167565000Y-12720128D01*
X167650890Y-13151925D01*
X167819369Y-13558669D01*
X168063962Y-13924729D01*
X168375271Y-14236038D01*
X168741331Y-14480631D01*
X169148075Y-14649110D01*
X169579872Y-14735000D01*
X170020128Y-14735000D01*
X170451925Y-14649110D01*
X170858669Y-14480631D01*
X171224729Y-14236038D01*
X171536038Y-13924729D01*
X171780631Y-13558669D01*
X171949110Y-13151925D01*
X172035000Y-12720128D01*
X172035000Y-12279872D01*
X171949110Y-11848075D01*
X171780631Y-11441331D01*
X171536038Y-11075271D01*
X171224729Y-10763962D01*
X171143969Y-10710000D01*
X181090000Y-10710000D01*
X181090000Y-87829893D01*
X180896632Y-87636525D01*
X180653411Y-87474010D01*
X180383158Y-87362068D01*
X180096260Y-87305000D01*
X179803740Y-87305000D01*
X179516842Y-87362068D01*
X179246589Y-87474010D01*
X179003368Y-87636525D01*
X178796525Y-87843368D01*
X178634010Y-88086589D01*
X178630000Y-88096270D01*
X178625990Y-88086589D01*
X178463475Y-87843368D01*
X178256632Y-87636525D01*
X178013411Y-87474010D01*
X177743158Y-87362068D01*
X177456260Y-87305000D01*
X177163740Y-87305000D01*
X176876842Y-87362068D01*
X176606589Y-87474010D01*
X176363368Y-87636525D01*
X176156525Y-87843368D01*
X175994010Y-88086589D01*
X175882068Y-88356842D01*
X175825000Y-88643740D01*
X175825000Y-88936260D01*
X175882068Y-89223158D01*
X175994010Y-89493411D01*
X176156525Y-89736632D01*
X176363368Y-89943475D01*
X176606589Y-90105990D01*
X176876842Y-90217932D01*
X177163740Y-90275000D01*
X177456260Y-90275000D01*
X177743158Y-90217932D01*
X178013411Y-90105990D01*
X178256632Y-89943475D01*
X178463475Y-89736632D01*
X178625990Y-89493411D01*
X178630000Y-89483730D01*
X178634010Y-89493411D01*
X178796525Y-89736632D01*
X179003368Y-89943475D01*
X179246589Y-90105990D01*
X179516842Y-90217932D01*
X179803740Y-90275000D01*
X180096260Y-90275000D01*
X180383158Y-90217932D01*
X180653411Y-90105990D01*
X180896632Y-89943475D01*
X181090000Y-89750107D01*
X181090001Y-97534990D01*
X181044180Y-97510498D01*
X180924482Y-97474188D01*
X180800000Y-97461928D01*
X179100000Y-97461928D01*
X178975518Y-97474188D01*
X178855820Y-97510498D01*
X178745506Y-97569463D01*
X178648815Y-97648815D01*
X178630000Y-97671741D01*
X178611185Y-97648815D01*
X178514494Y-97569463D01*
X178404180Y-97510498D01*
X178284482Y-97474188D01*
X178160000Y-97461928D01*
X176460000Y-97461928D01*
X176335518Y-97474188D01*
X176215820Y-97510498D01*
X176105506Y-97569463D01*
X176008815Y-97648815D01*
X175929463Y-97745506D01*
X175870498Y-97855820D01*
X175834188Y-97975518D01*
X175821928Y-98100000D01*
X175821928Y-99800000D01*
X175834188Y-99924482D01*
X175870498Y-100044180D01*
X175929463Y-100154494D01*
X176008815Y-100251185D01*
X176105506Y-100330537D01*
X176215820Y-100389502D01*
X176335518Y-100425812D01*
X176460000Y-100438072D01*
X178160000Y-100438072D01*
X178284482Y-100425812D01*
X178404180Y-100389502D01*
X178514494Y-100330537D01*
X178611185Y-100251185D01*
X178630000Y-100228259D01*
X178648815Y-100251185D01*
X178745506Y-100330537D01*
X178855820Y-100389502D01*
X178975518Y-100425812D01*
X179100000Y-100438072D01*
X180800000Y-100438072D01*
X180924482Y-100425812D01*
X181044180Y-100389502D01*
X181090001Y-100365010D01*
X181090001Y-177290000D01*
X171143969Y-177290000D01*
X171224729Y-177236038D01*
X171536038Y-176924729D01*
X171780631Y-176558669D01*
X171949110Y-176151925D01*
X172035000Y-175720128D01*
X172035000Y-175279872D01*
X171949110Y-174848075D01*
X171780631Y-174441331D01*
X171536038Y-174075271D01*
X171224729Y-173763962D01*
X170858669Y-173519369D01*
X170451925Y-173350890D01*
X170020128Y-173265000D01*
X169579872Y-173265000D01*
X169148075Y-173350890D01*
X168741331Y-173519369D01*
X168375271Y-173763962D01*
X168063962Y-174075271D01*
X167819369Y-174441331D01*
X167650890Y-174848075D01*
X167565000Y-175279872D01*
X167565000Y-175720128D01*
X167650890Y-176151925D01*
X167819369Y-176558669D01*
X168063962Y-176924729D01*
X168375271Y-177236038D01*
X168456031Y-177290000D01*
X163510000Y-177290000D01*
X163510000Y-163445001D01*
X164165000Y-163445001D01*
X164165000Y-164554999D01*
X164381550Y-165643669D01*
X164806328Y-166669173D01*
X165423010Y-167592103D01*
X166207897Y-168376990D01*
X167130827Y-168993672D01*
X168156331Y-169418450D01*
X169245001Y-169635000D01*
X170354999Y-169635000D01*
X171443669Y-169418450D01*
X172469173Y-168993672D01*
X173392103Y-168376990D01*
X174176990Y-167592103D01*
X174793672Y-166669173D01*
X175218450Y-165643669D01*
X175435000Y-164554999D01*
X175435000Y-163445001D01*
X175218450Y-162356331D01*
X174793672Y-161330827D01*
X174176990Y-160407897D01*
X173392103Y-159623010D01*
X172469173Y-159006328D01*
X171443669Y-158581550D01*
X170354999Y-158365000D01*
X169245001Y-158365000D01*
X168156331Y-158581550D01*
X167130827Y-159006328D01*
X166207897Y-159623010D01*
X165423010Y-160407897D01*
X164806328Y-161330827D01*
X164381550Y-162356331D01*
X164165000Y-163445001D01*
X163510000Y-163445001D01*
X163510000Y-145945001D01*
X164165000Y-145945001D01*
X164165000Y-147054999D01*
X164381550Y-148143669D01*
X164806328Y-149169173D01*
X165423010Y-150092103D01*
X166207897Y-150876990D01*
X167130827Y-151493672D01*
X168156331Y-151918450D01*
X169245001Y-152135000D01*
X170354999Y-152135000D01*
X171443669Y-151918450D01*
X172469173Y-151493672D01*
X173392103Y-150876990D01*
X174176990Y-150092103D01*
X174793672Y-149169173D01*
X175218450Y-148143669D01*
X175435000Y-147054999D01*
X175435000Y-145945001D01*
X175218450Y-144856331D01*
X174793672Y-143830827D01*
X174176990Y-142907897D01*
X173392103Y-142123010D01*
X172469173Y-141506328D01*
X171443669Y-141081550D01*
X170354999Y-140865000D01*
X169245001Y-140865000D01*
X168156331Y-141081550D01*
X167130827Y-141506328D01*
X166207897Y-142123010D01*
X165423010Y-142907897D01*
X164806328Y-143830827D01*
X164381550Y-144856331D01*
X164165000Y-145945001D01*
X163510000Y-145945001D01*
X163510000Y-128445001D01*
X164165000Y-128445001D01*
X164165000Y-129554999D01*
X164381550Y-130643669D01*
X164806328Y-131669173D01*
X165423010Y-132592103D01*
X166207897Y-133376990D01*
X167130827Y-133993672D01*
X168156331Y-134418450D01*
X169245001Y-134635000D01*
X170354999Y-134635000D01*
X171443669Y-134418450D01*
X172469173Y-133993672D01*
X173392103Y-133376990D01*
X174176990Y-132592103D01*
X174793672Y-131669173D01*
X175218450Y-130643669D01*
X175435000Y-129554999D01*
X175435000Y-128445001D01*
X175218450Y-127356331D01*
X174793672Y-126330827D01*
X174176990Y-125407897D01*
X173392103Y-124623010D01*
X172469173Y-124006328D01*
X171443669Y-123581550D01*
X170354999Y-123365000D01*
X169245001Y-123365000D01*
X168156331Y-123581550D01*
X167130827Y-124006328D01*
X166207897Y-124623010D01*
X165423010Y-125407897D01*
X164806328Y-126330827D01*
X164381550Y-127356331D01*
X164165000Y-128445001D01*
X163510000Y-128445001D01*
X163510000Y-110945001D01*
X164165000Y-110945001D01*
X164165000Y-112054999D01*
X164381550Y-113143669D01*
X164806328Y-114169173D01*
X165423010Y-115092103D01*
X166207897Y-115876990D01*
X167130827Y-116493672D01*
X168156331Y-116918450D01*
X169245001Y-117135000D01*
X170354999Y-117135000D01*
X171443669Y-116918450D01*
X172469173Y-116493672D01*
X173392103Y-115876990D01*
X174176990Y-115092103D01*
X174793672Y-114169173D01*
X175218450Y-113143669D01*
X175435000Y-112054999D01*
X175435000Y-110945001D01*
X175218450Y-109856331D01*
X174793672Y-108830827D01*
X174176990Y-107907897D01*
X173392103Y-107123010D01*
X172469173Y-106506328D01*
X171443669Y-106081550D01*
X170354999Y-105865000D01*
X169245001Y-105865000D01*
X168156331Y-106081550D01*
X167130827Y-106506328D01*
X166207897Y-107123010D01*
X165423010Y-107907897D01*
X164806328Y-108830827D01*
X164381550Y-109856331D01*
X164165000Y-110945001D01*
X163510000Y-110945001D01*
X163510000Y-93445001D01*
X164165000Y-93445001D01*
X164165000Y-94554999D01*
X164381550Y-95643669D01*
X164806328Y-96669173D01*
X165423010Y-97592103D01*
X166207897Y-98376990D01*
X167130827Y-98993672D01*
X168156331Y-99418450D01*
X169245001Y-99635000D01*
X170354999Y-99635000D01*
X171443669Y-99418450D01*
X172469173Y-98993672D01*
X173392103Y-98376990D01*
X174176990Y-97592103D01*
X174793672Y-96669173D01*
X175218450Y-95643669D01*
X175435000Y-94554999D01*
X175435000Y-93445001D01*
X175218450Y-92356331D01*
X174793672Y-91330827D01*
X174176990Y-90407897D01*
X173392103Y-89623010D01*
X172469173Y-89006328D01*
X171443669Y-88581550D01*
X170354999Y-88365000D01*
X169245001Y-88365000D01*
X168156331Y-88581550D01*
X167130827Y-89006328D01*
X166207897Y-89623010D01*
X165423010Y-90407897D01*
X164806328Y-91330827D01*
X164381550Y-92356331D01*
X164165000Y-93445001D01*
X163510000Y-93445001D01*
X163510000Y-75945001D01*
X164165000Y-75945001D01*
X164165000Y-77054999D01*
X164381550Y-78143669D01*
X164806328Y-79169173D01*
X165423010Y-80092103D01*
X166207897Y-80876990D01*
X167130827Y-81493672D01*
X168156331Y-81918450D01*
X169245001Y-82135000D01*
X170354999Y-82135000D01*
X171443669Y-81918450D01*
X172469173Y-81493672D01*
X173392103Y-80876990D01*
X174176990Y-80092103D01*
X174793672Y-79169173D01*
X175218450Y-78143669D01*
X175435000Y-77054999D01*
X175435000Y-75945001D01*
X175218450Y-74856331D01*
X174793672Y-73830827D01*
X174176990Y-72907897D01*
X173392103Y-72123010D01*
X172469173Y-71506328D01*
X171443669Y-71081550D01*
X170354999Y-70865000D01*
X169245001Y-70865000D01*
X168156331Y-71081550D01*
X167130827Y-71506328D01*
X166207897Y-72123010D01*
X165423010Y-72907897D01*
X164806328Y-73830827D01*
X164381550Y-74856331D01*
X164165000Y-75945001D01*
X163510000Y-75945001D01*
X163510000Y-58445001D01*
X164165000Y-58445001D01*
X164165000Y-59554999D01*
X164381550Y-60643669D01*
X164806328Y-61669173D01*
X165423010Y-62592103D01*
X166207897Y-63376990D01*
X167130827Y-63993672D01*
X168156331Y-64418450D01*
X169245001Y-64635000D01*
X170354999Y-64635000D01*
X171443669Y-64418450D01*
X172469173Y-63993672D01*
X173392103Y-63376990D01*
X174176990Y-62592103D01*
X174793672Y-61669173D01*
X175218450Y-60643669D01*
X175435000Y-59554999D01*
X175435000Y-58445001D01*
X175218450Y-57356331D01*
X174793672Y-56330827D01*
X174176990Y-55407897D01*
X173392103Y-54623010D01*
X172469173Y-54006328D01*
X171443669Y-53581550D01*
X170354999Y-53365000D01*
X169245001Y-53365000D01*
X168156331Y-53581550D01*
X167130827Y-54006328D01*
X166207897Y-54623010D01*
X165423010Y-55407897D01*
X164806328Y-56330827D01*
X164381550Y-57356331D01*
X164165000Y-58445001D01*
X163510000Y-58445001D01*
X163510000Y-40945001D01*
X164165000Y-40945001D01*
X164165000Y-42054999D01*
X164381550Y-43143669D01*
X164806328Y-44169173D01*
X165423010Y-45092103D01*
X166207897Y-45876990D01*
X167130827Y-46493672D01*
X168156331Y-46918450D01*
X169245001Y-47135000D01*
X170354999Y-47135000D01*
X171443669Y-46918450D01*
X172469173Y-46493672D01*
X173392103Y-45876990D01*
X174176990Y-45092103D01*
X174793672Y-44169173D01*
X175218450Y-43143669D01*
X175435000Y-42054999D01*
X175435000Y-40945001D01*
X175218450Y-39856331D01*
X174793672Y-38830827D01*
X174176990Y-37907897D01*
X173392103Y-37123010D01*
X172469173Y-36506328D01*
X171443669Y-36081550D01*
X170354999Y-35865000D01*
X169245001Y-35865000D01*
X168156331Y-36081550D01*
X167130827Y-36506328D01*
X166207897Y-37123010D01*
X165423010Y-37907897D01*
X164806328Y-38830827D01*
X164381550Y-39856331D01*
X164165000Y-40945001D01*
X163510000Y-40945001D01*
X163510000Y-23445001D01*
X164165000Y-23445001D01*
X164165000Y-24554999D01*
X164381550Y-25643669D01*
X164806328Y-26669173D01*
X165423010Y-27592103D01*
X166207897Y-28376990D01*
X167130827Y-28993672D01*
X168156331Y-29418450D01*
X169245001Y-29635000D01*
X170354999Y-29635000D01*
X171443669Y-29418450D01*
X172469173Y-28993672D01*
X173392103Y-28376990D01*
X174176990Y-27592103D01*
X174793672Y-26669173D01*
X175218450Y-25643669D01*
X175435000Y-24554999D01*
X175435000Y-23445001D01*
X175218450Y-22356331D01*
X174793672Y-21330827D01*
X174176990Y-20407897D01*
X173392103Y-19623010D01*
X172469173Y-19006328D01*
X171443669Y-18581550D01*
X170354999Y-18365000D01*
X169245001Y-18365000D01*
X168156331Y-18581550D01*
X167130827Y-19006328D01*
X166207897Y-19623010D01*
X165423010Y-20407897D01*
X164806328Y-21330827D01*
X164381550Y-22356331D01*
X164165000Y-23445001D01*
X163510000Y-23445001D01*
X163510000Y-10710000D01*
X168456031Y-10710000D01*
X168375271Y-10763962D01*
%TD*%
M02*
