%TF.GenerationSoftware,KiCad,Pcbnew,(5.1.6)-1*%
%TF.CreationDate,2020-06-19T18:14:50-05:00*%
%TF.ProjectId,GNDS,474e4453-2e6b-4696-9361-645f70636258,rev?*%
%TF.SameCoordinates,Original*%
%TF.FileFunction,Legend,Bot*%
%TF.FilePolarity,Positive*%
%FSLAX46Y46*%
G04 Gerber Fmt 4.6, Leading zero omitted, Abs format (unit mm)*
G04 Created by KiCad (PCBNEW (5.1.6)-1) date 2020-06-19 18:14:50*
%MOMM*%
%LPD*%
G01*
G04 APERTURE LIST*
%ADD10C,0.150000*%
%ADD11C,0.120000*%
G04 APERTURE END LIST*
D10*
X177514285Y-14900000D02*
X177800000Y-14757142D01*
X178228571Y-14757142D01*
X178657142Y-14900000D01*
X178942857Y-15185714D01*
X179085714Y-15471428D01*
X179228571Y-16042857D01*
X179228571Y-16471428D01*
X179085714Y-17042857D01*
X178942857Y-17328571D01*
X178657142Y-17614285D01*
X178228571Y-17757142D01*
X177942857Y-17757142D01*
X177514285Y-17614285D01*
X177371428Y-17471428D01*
X177371428Y-16471428D01*
X177942857Y-16471428D01*
X174371428Y-17757142D02*
X175371428Y-16328571D01*
X176085714Y-17757142D02*
X176085714Y-14757142D01*
X174942857Y-14757142D01*
X174657142Y-14900000D01*
X174514285Y-15042857D01*
X174371428Y-15328571D01*
X174371428Y-15757142D01*
X174514285Y-16042857D01*
X174657142Y-16185714D01*
X174942857Y-16328571D01*
X176085714Y-16328571D01*
X173085714Y-17757142D02*
X173085714Y-14757142D01*
X171371428Y-17757142D01*
X171371428Y-14757142D01*
X169942857Y-17757142D02*
X169942857Y-14757142D01*
X169228571Y-14757142D01*
X168800000Y-14900000D01*
X168514285Y-15185714D01*
X168371428Y-15471428D01*
X168228571Y-16042857D01*
X168228571Y-16471428D01*
X168371428Y-17042857D01*
X168514285Y-17328571D01*
X168800000Y-17614285D01*
X169228571Y-17757142D01*
X169942857Y-17757142D01*
X167085714Y-17614285D02*
X166657142Y-17757142D01*
X165942857Y-17757142D01*
X165657142Y-17614285D01*
X165514285Y-17471428D01*
X165371428Y-17185714D01*
X165371428Y-16900000D01*
X165514285Y-16614285D01*
X165657142Y-16471428D01*
X165942857Y-16328571D01*
X166514285Y-16185714D01*
X166800000Y-16042857D01*
X166942857Y-15900000D01*
X167085714Y-15614285D01*
X167085714Y-15328571D01*
X166942857Y-15042857D01*
X166800000Y-14900000D01*
X166514285Y-14757142D01*
X165800000Y-14757142D01*
X165371428Y-14900000D01*
X175952380Y-86690476D02*
X174952380Y-86690476D01*
X175428571Y-86690476D02*
X175428571Y-87261904D01*
X175952380Y-87261904D02*
X174952380Y-87261904D01*
X175904761Y-88119047D02*
X175952380Y-88023809D01*
X175952380Y-87833333D01*
X175904761Y-87738095D01*
X175809523Y-87690476D01*
X175428571Y-87690476D01*
X175333333Y-87738095D01*
X175285714Y-87833333D01*
X175285714Y-88023809D01*
X175333333Y-88119047D01*
X175428571Y-88166666D01*
X175523809Y-88166666D01*
X175619047Y-87690476D01*
X175952380Y-89023809D02*
X175428571Y-89023809D01*
X175333333Y-88976190D01*
X175285714Y-88880952D01*
X175285714Y-88690476D01*
X175333333Y-88595238D01*
X175904761Y-89023809D02*
X175952380Y-88928571D01*
X175952380Y-88690476D01*
X175904761Y-88595238D01*
X175809523Y-88547619D01*
X175714285Y-88547619D01*
X175619047Y-88595238D01*
X175571428Y-88690476D01*
X175571428Y-88928571D01*
X175523809Y-89023809D01*
X175952380Y-89928571D02*
X174952380Y-89928571D01*
X175904761Y-89928571D02*
X175952380Y-89833333D01*
X175952380Y-89642857D01*
X175904761Y-89547619D01*
X175857142Y-89500000D01*
X175761904Y-89452380D01*
X175476190Y-89452380D01*
X175380952Y-89500000D01*
X175333333Y-89547619D01*
X175285714Y-89642857D01*
X175285714Y-89833333D01*
X175333333Y-89928571D01*
X175904761Y-90785714D02*
X175952380Y-90690476D01*
X175952380Y-90500000D01*
X175904761Y-90404761D01*
X175809523Y-90357142D01*
X175428571Y-90357142D01*
X175333333Y-90404761D01*
X175285714Y-90500000D01*
X175285714Y-90690476D01*
X175333333Y-90785714D01*
X175428571Y-90833333D01*
X175523809Y-90833333D01*
X175619047Y-90357142D01*
X175952380Y-91261904D02*
X175285714Y-91261904D01*
X175476190Y-91261904D02*
X175380952Y-91309523D01*
X175333333Y-91357142D01*
X175285714Y-91452380D01*
X175285714Y-91547619D01*
X175952380Y-92785714D02*
X175904761Y-92690476D01*
X175857142Y-92642857D01*
X175761904Y-92595238D01*
X175476190Y-92595238D01*
X175380952Y-92642857D01*
X175333333Y-92690476D01*
X175285714Y-92785714D01*
X175285714Y-92928571D01*
X175333333Y-93023809D01*
X175380952Y-93071428D01*
X175476190Y-93119047D01*
X175761904Y-93119047D01*
X175857142Y-93071428D01*
X175904761Y-93023809D01*
X175952380Y-92928571D01*
X175952380Y-92785714D01*
X175285714Y-93547619D02*
X175952380Y-93547619D01*
X175380952Y-93547619D02*
X175333333Y-93595238D01*
X175285714Y-93690476D01*
X175285714Y-93833333D01*
X175333333Y-93928571D01*
X175428571Y-93976190D01*
X175952380Y-93976190D01*
X175285714Y-95071428D02*
X175285714Y-95452380D01*
X174952380Y-95214285D02*
X175809523Y-95214285D01*
X175904761Y-95261904D01*
X175952380Y-95357142D01*
X175952380Y-95452380D01*
X175952380Y-95785714D02*
X174952380Y-95785714D01*
X175952380Y-96214285D02*
X175428571Y-96214285D01*
X175333333Y-96166666D01*
X175285714Y-96071428D01*
X175285714Y-95928571D01*
X175333333Y-95833333D01*
X175380952Y-95785714D01*
X175952380Y-96690476D02*
X175285714Y-96690476D01*
X174952380Y-96690476D02*
X175000000Y-96642857D01*
X175047619Y-96690476D01*
X175000000Y-96738095D01*
X174952380Y-96690476D01*
X175047619Y-96690476D01*
X175904761Y-97119047D02*
X175952380Y-97214285D01*
X175952380Y-97404761D01*
X175904761Y-97500000D01*
X175809523Y-97547619D01*
X175761904Y-97547619D01*
X175666666Y-97500000D01*
X175619047Y-97404761D01*
X175619047Y-97261904D01*
X175571428Y-97166666D01*
X175476190Y-97119047D01*
X175428571Y-97119047D01*
X175333333Y-97166666D01*
X175285714Y-97261904D01*
X175285714Y-97404761D01*
X175333333Y-97500000D01*
X175904761Y-98690476D02*
X175952380Y-98785714D01*
X175952380Y-98976190D01*
X175904761Y-99071428D01*
X175809523Y-99119047D01*
X175761904Y-99119047D01*
X175666666Y-99071428D01*
X175619047Y-98976190D01*
X175619047Y-98833333D01*
X175571428Y-98738095D01*
X175476190Y-98690476D01*
X175428571Y-98690476D01*
X175333333Y-98738095D01*
X175285714Y-98833333D01*
X175285714Y-98976190D01*
X175333333Y-99071428D01*
X175952380Y-99547619D02*
X175285714Y-99547619D01*
X174952380Y-99547619D02*
X175000000Y-99500000D01*
X175047619Y-99547619D01*
X175000000Y-99595238D01*
X174952380Y-99547619D01*
X175047619Y-99547619D01*
X175952380Y-100452380D02*
X174952380Y-100452380D01*
X175904761Y-100452380D02*
X175952380Y-100357142D01*
X175952380Y-100166666D01*
X175904761Y-100071428D01*
X175857142Y-100023809D01*
X175761904Y-99976190D01*
X175476190Y-99976190D01*
X175380952Y-100023809D01*
X175333333Y-100071428D01*
X175285714Y-100166666D01*
X175285714Y-100357142D01*
X175333333Y-100452380D01*
X175904761Y-101309523D02*
X175952380Y-101214285D01*
X175952380Y-101023809D01*
X175904761Y-100928571D01*
X175809523Y-100880952D01*
X175428571Y-100880952D01*
X175333333Y-100928571D01*
X175285714Y-101023809D01*
X175285714Y-101214285D01*
X175333333Y-101309523D01*
X175428571Y-101357142D01*
X175523809Y-101357142D01*
X175619047Y-100880952D01*
D11*
%TO.C,J2*%
X178620000Y-87460000D02*
X181280000Y-87460000D01*
X181280000Y-97680000D02*
X181280000Y-87460000D01*
X178620000Y-97680000D02*
X181280000Y-97680000D01*
X178620000Y-98950000D02*
X178620000Y-100280000D01*
X178620000Y-100280000D02*
X179950000Y-100280000D01*
%TO.C,J1*%
X175980000Y-100280000D02*
X177310000Y-100280000D01*
X175980000Y-98950000D02*
X175980000Y-100280000D01*
X175980000Y-97680000D02*
X178640000Y-97680000D01*
X175980000Y-97680000D02*
X175980000Y-87460000D01*
X175980000Y-87460000D02*
X178640000Y-87460000D01*
%TD*%
M02*
