%TF.GenerationSoftware,KiCad,Pcbnew,(5.1.6)-1*%
%TF.CreationDate,2020-06-19T18:14:50-05:00*%
%TF.ProjectId,GNDS,474e4453-2e6b-4696-9361-645f70636258,rev?*%
%TF.SameCoordinates,Original*%
%TF.FileFunction,Soldermask,Bot*%
%TF.FilePolarity,Negative*%
%FSLAX46Y46*%
G04 Gerber Fmt 4.6, Leading zero omitted, Abs format (unit mm)*
G04 Created by KiCad (PCBNEW (5.1.6)-1) date 2020-06-19 18:14:50*
%MOMM*%
%LPD*%
G01*
G04 APERTURE LIST*
%ADD10C,0.010000*%
%ADD11C,3.300000*%
%ADD12R,2.100000X2.100000*%
%ADD13R,1.800000X1.800000*%
%ADD14O,1.800000X1.800000*%
%ADD15C,10.100000*%
G04 APERTURE END LIST*
D10*
%TO.C,G\u002A\u002A\u002A*%
G36*
X180007483Y-157146169D02*
G01*
X180005656Y-157147704D01*
X179930106Y-157180744D01*
X179820222Y-157192548D01*
X179687449Y-157184016D01*
X179543234Y-157156051D01*
X179399020Y-157109556D01*
X179370020Y-157097614D01*
X179298130Y-157063327D01*
X179262208Y-157032064D01*
X179250134Y-156990319D01*
X179249249Y-156963045D01*
X179260465Y-156895532D01*
X179287468Y-156848584D01*
X179287796Y-156848309D01*
X179339504Y-156829270D01*
X179429951Y-156829132D01*
X179467725Y-156832934D01*
X179571341Y-156849325D01*
X179687629Y-156874235D01*
X179803011Y-156903979D01*
X179903910Y-156934869D01*
X179976748Y-156963218D01*
X180002001Y-156978017D01*
X180031743Y-157029716D01*
X180033764Y-157094764D01*
X180007483Y-157146169D01*
G37*
X180007483Y-157146169D02*
X180005656Y-157147704D01*
X179930106Y-157180744D01*
X179820222Y-157192548D01*
X179687449Y-157184016D01*
X179543234Y-157156051D01*
X179399020Y-157109556D01*
X179370020Y-157097614D01*
X179298130Y-157063327D01*
X179262208Y-157032064D01*
X179250134Y-156990319D01*
X179249249Y-156963045D01*
X179260465Y-156895532D01*
X179287468Y-156848584D01*
X179287796Y-156848309D01*
X179339504Y-156829270D01*
X179429951Y-156829132D01*
X179467725Y-156832934D01*
X179571341Y-156849325D01*
X179687629Y-156874235D01*
X179803011Y-156903979D01*
X179903910Y-156934869D01*
X179976748Y-156963218D01*
X180002001Y-156978017D01*
X180031743Y-157029716D01*
X180033764Y-157094764D01*
X180007483Y-157146169D01*
G36*
X179917646Y-157683586D02*
G01*
X179864202Y-157731091D01*
X179776913Y-157757612D01*
X179662192Y-157762750D01*
X179526454Y-157746108D01*
X179376111Y-157707287D01*
X179245187Y-157658090D01*
X179166400Y-157616232D01*
X179128303Y-157568259D01*
X179124339Y-157499819D01*
X179139649Y-157427077D01*
X179173001Y-157395684D01*
X179248035Y-157382938D01*
X179359162Y-157388737D01*
X179500797Y-157412982D01*
X179594061Y-157435283D01*
X179729822Y-157472679D01*
X179823480Y-157504402D01*
X179882818Y-157534617D01*
X179915622Y-157567491D01*
X179929678Y-157607188D01*
X179930831Y-157615497D01*
X179917646Y-157683586D01*
G37*
X179917646Y-157683586D02*
X179864202Y-157731091D01*
X179776913Y-157757612D01*
X179662192Y-157762750D01*
X179526454Y-157746108D01*
X179376111Y-157707287D01*
X179245187Y-157658090D01*
X179166400Y-157616232D01*
X179128303Y-157568259D01*
X179124339Y-157499819D01*
X179139649Y-157427077D01*
X179173001Y-157395684D01*
X179248035Y-157382938D01*
X179359162Y-157388737D01*
X179500797Y-157412982D01*
X179594061Y-157435283D01*
X179729822Y-157472679D01*
X179823480Y-157504402D01*
X179882818Y-157534617D01*
X179915622Y-157567491D01*
X179929678Y-157607188D01*
X179930831Y-157615497D01*
X179917646Y-157683586D01*
G36*
X179113780Y-156757618D02*
G01*
X179085069Y-156780141D01*
X178984825Y-156860525D01*
X178886625Y-156949564D01*
X178801604Y-157036247D01*
X178740899Y-157109565D01*
X178722976Y-157138097D01*
X178694964Y-157244848D01*
X178706731Y-157371025D01*
X178756694Y-157506475D01*
X178789595Y-157565152D01*
X178837205Y-157647435D01*
X178856338Y-157693403D01*
X178847554Y-157701109D01*
X178811412Y-157668608D01*
X178772692Y-157624001D01*
X178686113Y-157487596D01*
X178644499Y-157347220D01*
X178648475Y-157209964D01*
X178698666Y-157082918D01*
X178722004Y-157048932D01*
X178788556Y-156971811D01*
X178869727Y-156892341D01*
X178954846Y-156819335D01*
X179033242Y-156761605D01*
X179094243Y-156727967D01*
X179116718Y-156722934D01*
X179135510Y-156731453D01*
X179113780Y-156757618D01*
G37*
X179113780Y-156757618D02*
X179085069Y-156780141D01*
X178984825Y-156860525D01*
X178886625Y-156949564D01*
X178801604Y-157036247D01*
X178740899Y-157109565D01*
X178722976Y-157138097D01*
X178694964Y-157244848D01*
X178706731Y-157371025D01*
X178756694Y-157506475D01*
X178789595Y-157565152D01*
X178837205Y-157647435D01*
X178856338Y-157693403D01*
X178847554Y-157701109D01*
X178811412Y-157668608D01*
X178772692Y-157624001D01*
X178686113Y-157487596D01*
X178644499Y-157347220D01*
X178648475Y-157209964D01*
X178698666Y-157082918D01*
X178722004Y-157048932D01*
X178788556Y-156971811D01*
X178869727Y-156892341D01*
X178954846Y-156819335D01*
X179033242Y-156761605D01*
X179094243Y-156727967D01*
X179116718Y-156722934D01*
X179135510Y-156731453D01*
X179113780Y-156757618D01*
G36*
X176969963Y-156128759D02*
G01*
X176960961Y-156124024D01*
X176936680Y-156100067D01*
X176935536Y-156095597D01*
X176951959Y-156093862D01*
X176960961Y-156098598D01*
X176985243Y-156122554D01*
X176986387Y-156127025D01*
X176969963Y-156128759D01*
G37*
X176969963Y-156128759D02*
X176960961Y-156124024D01*
X176936680Y-156100067D01*
X176935536Y-156095597D01*
X176951959Y-156093862D01*
X176960961Y-156098598D01*
X176985243Y-156122554D01*
X176986387Y-156127025D01*
X176969963Y-156128759D01*
G36*
X179786993Y-154852179D02*
G01*
X179754472Y-154685838D01*
X179723874Y-154556818D01*
X179691083Y-154451946D01*
X179651981Y-154358053D01*
X179602465Y-154261996D01*
X179557718Y-154179302D01*
X179535417Y-154131361D01*
X179532500Y-154108937D01*
X179545905Y-154102792D01*
X179549673Y-154102702D01*
X179577630Y-154125559D01*
X179617202Y-154188816D01*
X179664312Y-154284504D01*
X179714883Y-154404656D01*
X179744798Y-154484084D01*
X179800520Y-154685371D01*
X179823773Y-154890891D01*
X179833894Y-155107007D01*
X179786993Y-154852179D01*
G37*
X179786993Y-154852179D02*
X179754472Y-154685838D01*
X179723874Y-154556818D01*
X179691083Y-154451946D01*
X179651981Y-154358053D01*
X179602465Y-154261996D01*
X179557718Y-154179302D01*
X179535417Y-154131361D01*
X179532500Y-154108937D01*
X179545905Y-154102792D01*
X179549673Y-154102702D01*
X179577630Y-154125559D01*
X179617202Y-154188816D01*
X179664312Y-154284504D01*
X179714883Y-154404656D01*
X179744798Y-154484084D01*
X179800520Y-154685371D01*
X179823773Y-154890891D01*
X179833894Y-155107007D01*
X179786993Y-154852179D01*
G36*
X179433161Y-154010281D02*
G01*
X179387491Y-154000336D01*
X179334853Y-153980385D01*
X179294459Y-153956892D01*
X179285840Y-153947646D01*
X179289643Y-153926041D01*
X179297403Y-153924724D01*
X179343002Y-153935272D01*
X179397832Y-153959766D01*
X179440832Y-153987487D01*
X179452653Y-154003759D01*
X179433161Y-154010281D01*
G37*
X179433161Y-154010281D02*
X179387491Y-154000336D01*
X179334853Y-153980385D01*
X179294459Y-153956892D01*
X179285840Y-153947646D01*
X179289643Y-153926041D01*
X179297403Y-153924724D01*
X179343002Y-153935272D01*
X179397832Y-153959766D01*
X179440832Y-153987487D01*
X179452653Y-154003759D01*
X179433161Y-154010281D01*
G36*
X179391113Y-170323659D02*
G01*
X179353112Y-170433270D01*
X179351325Y-170438538D01*
X179322188Y-170514342D01*
X179293422Y-170553896D01*
X179253157Y-170570311D01*
X179229092Y-170573545D01*
X179153818Y-170570031D01*
X179095719Y-170552429D01*
X179042048Y-170500304D01*
X178998227Y-170416133D01*
X178972769Y-170318704D01*
X178969570Y-170274090D01*
X178969570Y-170196997D01*
X179172973Y-170196997D01*
X179172973Y-170349549D01*
X179148209Y-170358224D01*
X179147548Y-170360761D01*
X179165364Y-170382469D01*
X179172973Y-170387687D01*
X179196402Y-170385671D01*
X179198399Y-170376475D01*
X179179942Y-170350584D01*
X179172973Y-170349549D01*
X179172973Y-170196997D01*
X179200112Y-170196997D01*
X179307852Y-170196077D01*
X179375200Y-170199303D01*
X179407779Y-170215656D01*
X179411209Y-170254115D01*
X179391113Y-170323659D01*
G37*
X179391113Y-170323659D02*
X179353112Y-170433270D01*
X179351325Y-170438538D01*
X179322188Y-170514342D01*
X179293422Y-170553896D01*
X179253157Y-170570311D01*
X179229092Y-170573545D01*
X179153818Y-170570031D01*
X179095719Y-170552429D01*
X179042048Y-170500304D01*
X178998227Y-170416133D01*
X178972769Y-170318704D01*
X178969570Y-170274090D01*
X178969570Y-170196997D01*
X179172973Y-170196997D01*
X179172973Y-170349549D01*
X179148209Y-170358224D01*
X179147548Y-170360761D01*
X179165364Y-170382469D01*
X179172973Y-170387687D01*
X179196402Y-170385671D01*
X179198399Y-170376475D01*
X179179942Y-170350584D01*
X179172973Y-170349549D01*
X179172973Y-170196997D01*
X179200112Y-170196997D01*
X179307852Y-170196077D01*
X179375200Y-170199303D01*
X179407779Y-170215656D01*
X179411209Y-170254115D01*
X179391113Y-170323659D01*
G36*
X179369360Y-169881958D02*
G01*
X179341024Y-169882167D01*
X179275942Y-169872671D01*
X179186866Y-169855424D01*
X179163865Y-169850465D01*
X178969570Y-169807772D01*
X178969570Y-169708036D01*
X178983408Y-169618414D01*
X179032789Y-169545244D01*
X179039956Y-169537914D01*
X179095818Y-169497442D01*
X179168872Y-169463127D01*
X179172973Y-169461874D01*
X179172973Y-169637637D01*
X179148287Y-169656985D01*
X179147548Y-169663063D01*
X179166896Y-169687749D01*
X179172973Y-169688488D01*
X179197660Y-169669140D01*
X179198399Y-169663063D01*
X179179051Y-169638376D01*
X179172973Y-169637637D01*
X179172973Y-169461874D01*
X179242245Y-169440702D01*
X179299063Y-169435897D01*
X179317863Y-169443521D01*
X179327156Y-169473614D01*
X179338614Y-169538886D01*
X179350523Y-169624748D01*
X179361170Y-169716611D01*
X179368841Y-169799883D01*
X179371821Y-169859975D01*
X179369360Y-169881958D01*
G37*
X179369360Y-169881958D02*
X179341024Y-169882167D01*
X179275942Y-169872671D01*
X179186866Y-169855424D01*
X179163865Y-169850465D01*
X178969570Y-169807772D01*
X178969570Y-169708036D01*
X178983408Y-169618414D01*
X179032789Y-169545244D01*
X179039956Y-169537914D01*
X179095818Y-169497442D01*
X179168872Y-169463127D01*
X179172973Y-169461874D01*
X179172973Y-169637637D01*
X179148287Y-169656985D01*
X179147548Y-169663063D01*
X179166896Y-169687749D01*
X179172973Y-169688488D01*
X179197660Y-169669140D01*
X179198399Y-169663063D01*
X179179051Y-169638376D01*
X179172973Y-169637637D01*
X179172973Y-169461874D01*
X179242245Y-169440702D01*
X179299063Y-169435897D01*
X179317863Y-169443521D01*
X179327156Y-169473614D01*
X179338614Y-169538886D01*
X179350523Y-169624748D01*
X179361170Y-169716611D01*
X179368841Y-169799883D01*
X179371821Y-169859975D01*
X179369360Y-169881958D01*
G36*
X178449545Y-155443894D02*
G01*
X178394383Y-155501922D01*
X178354821Y-155541144D01*
X178341487Y-155551952D01*
X178335318Y-155545665D01*
X178352883Y-155522486D01*
X178399811Y-155475938D01*
X178441992Y-155436341D01*
X178550050Y-155335835D01*
X178449545Y-155443894D01*
G37*
X178449545Y-155443894D02*
X178394383Y-155501922D01*
X178354821Y-155541144D01*
X178341487Y-155551952D01*
X178335318Y-155545665D01*
X178352883Y-155522486D01*
X178399811Y-155475938D01*
X178441992Y-155436341D01*
X178550050Y-155335835D01*
X178449545Y-155443894D01*
G36*
X179034661Y-153909618D02*
G01*
X178994995Y-153921569D01*
X178748994Y-154005842D01*
X178528689Y-154120923D01*
X178441477Y-154178910D01*
X178341902Y-154256848D01*
X178220109Y-154363883D01*
X178086287Y-154489923D01*
X177950625Y-154624879D01*
X177823311Y-154758660D01*
X177714534Y-154881174D01*
X177645559Y-154967167D01*
X177576462Y-155058878D01*
X177531900Y-155114593D01*
X177506862Y-155139702D01*
X177496334Y-155139594D01*
X177494895Y-155129163D01*
X177507954Y-155095135D01*
X177541744Y-155034107D01*
X177576942Y-154977882D01*
X177646033Y-154886181D01*
X177745884Y-154771600D01*
X177867478Y-154642936D01*
X178001794Y-154508986D01*
X178139815Y-154378547D01*
X178272521Y-154260415D01*
X178390894Y-154163387D01*
X178471422Y-154105427D01*
X178588660Y-154036807D01*
X178715286Y-153975303D01*
X178839634Y-153925355D01*
X178950035Y-153891401D01*
X179034821Y-153877881D01*
X179063682Y-153880107D01*
X179072453Y-153891635D01*
X179034661Y-153909618D01*
G37*
X179034661Y-153909618D02*
X178994995Y-153921569D01*
X178748994Y-154005842D01*
X178528689Y-154120923D01*
X178441477Y-154178910D01*
X178341902Y-154256848D01*
X178220109Y-154363883D01*
X178086287Y-154489923D01*
X177950625Y-154624879D01*
X177823311Y-154758660D01*
X177714534Y-154881174D01*
X177645559Y-154967167D01*
X177576462Y-155058878D01*
X177531900Y-155114593D01*
X177506862Y-155139702D01*
X177496334Y-155139594D01*
X177494895Y-155129163D01*
X177507954Y-155095135D01*
X177541744Y-155034107D01*
X177576942Y-154977882D01*
X177646033Y-154886181D01*
X177745884Y-154771600D01*
X177867478Y-154642936D01*
X178001794Y-154508986D01*
X178139815Y-154378547D01*
X178272521Y-154260415D01*
X178390894Y-154163387D01*
X178471422Y-154105427D01*
X178588660Y-154036807D01*
X178715286Y-153975303D01*
X178839634Y-153925355D01*
X178950035Y-153891401D01*
X179034821Y-153877881D01*
X179063682Y-153880107D01*
X179072453Y-153891635D01*
X179034661Y-153909618D01*
G36*
X179164329Y-159593827D02*
G01*
X179135357Y-159679234D01*
X179092766Y-159788228D01*
X179039346Y-159913389D01*
X178977886Y-160047295D01*
X178957166Y-160090390D01*
X178804031Y-160375238D01*
X178635283Y-160626821D01*
X178438497Y-160862626D01*
X178323514Y-160982269D01*
X178206647Y-161096119D01*
X178111195Y-161180967D01*
X178025091Y-161246078D01*
X177936267Y-161300722D01*
X177850851Y-161345249D01*
X177703394Y-161409837D01*
X177560356Y-161457814D01*
X177469695Y-161478286D01*
X177351797Y-161489840D01*
X177231323Y-161489504D01*
X177118867Y-161478839D01*
X177025024Y-161459407D01*
X176960389Y-161432772D01*
X176935555Y-161400494D01*
X176935536Y-161399534D01*
X176953356Y-161388256D01*
X176992743Y-161404827D01*
X177063235Y-161426376D01*
X177169048Y-161437202D01*
X177295919Y-161437855D01*
X177429584Y-161428891D01*
X177555779Y-161410861D01*
X177660242Y-161384319D01*
X177676581Y-161378311D01*
X177918940Y-161257091D01*
X178152937Y-161089029D01*
X178375393Y-160877869D01*
X178583132Y-160627354D01*
X178772976Y-160341228D01*
X178941748Y-160023236D01*
X179059120Y-159749288D01*
X179098876Y-159652809D01*
X179135048Y-159576262D01*
X179162108Y-159530881D01*
X179170259Y-159523460D01*
X179176893Y-159539428D01*
X179164329Y-159593827D01*
G37*
X179164329Y-159593827D02*
X179135357Y-159679234D01*
X179092766Y-159788228D01*
X179039346Y-159913389D01*
X178977886Y-160047295D01*
X178957166Y-160090390D01*
X178804031Y-160375238D01*
X178635283Y-160626821D01*
X178438497Y-160862626D01*
X178323514Y-160982269D01*
X178206647Y-161096119D01*
X178111195Y-161180967D01*
X178025091Y-161246078D01*
X177936267Y-161300722D01*
X177850851Y-161345249D01*
X177703394Y-161409837D01*
X177560356Y-161457814D01*
X177469695Y-161478286D01*
X177351797Y-161489840D01*
X177231323Y-161489504D01*
X177118867Y-161478839D01*
X177025024Y-161459407D01*
X176960389Y-161432772D01*
X176935555Y-161400494D01*
X176935536Y-161399534D01*
X176953356Y-161388256D01*
X176992743Y-161404827D01*
X177063235Y-161426376D01*
X177169048Y-161437202D01*
X177295919Y-161437855D01*
X177429584Y-161428891D01*
X177555779Y-161410861D01*
X177660242Y-161384319D01*
X177676581Y-161378311D01*
X177918940Y-161257091D01*
X178152937Y-161089029D01*
X178375393Y-160877869D01*
X178583132Y-160627354D01*
X178772976Y-160341228D01*
X178941748Y-160023236D01*
X179059120Y-159749288D01*
X179098876Y-159652809D01*
X179135048Y-159576262D01*
X179162108Y-159530881D01*
X179170259Y-159523460D01*
X179176893Y-159539428D01*
X179164329Y-159593827D01*
G36*
X177855558Y-160344507D02*
G01*
X177812814Y-160540687D01*
X177736728Y-160730798D01*
X177628061Y-160906680D01*
X177553272Y-160995907D01*
X177431431Y-161104499D01*
X177296304Y-161188672D01*
X177157088Y-161245665D01*
X177022978Y-161272712D01*
X176903172Y-161267051D01*
X176806864Y-161225919D01*
X176801471Y-161221821D01*
X176712091Y-161180463D01*
X176631764Y-161170971D01*
X176489778Y-161146780D01*
X176362163Y-161078024D01*
X176255752Y-160970427D01*
X176177375Y-160829711D01*
X176157917Y-160773982D01*
X176133161Y-160643468D01*
X176124980Y-160485618D01*
X176133240Y-160321121D01*
X176157804Y-160170667D01*
X176161995Y-160153954D01*
X176216763Y-159989847D01*
X176292370Y-159825430D01*
X176382231Y-159671015D01*
X176479764Y-159536918D01*
X176578386Y-159433451D01*
X176657505Y-159377626D01*
X176729263Y-159354211D01*
X176819969Y-159343203D01*
X176916567Y-159343584D01*
X177006004Y-159354336D01*
X177075222Y-159374439D01*
X177111168Y-159402876D01*
X177113514Y-159413203D01*
X177091701Y-159419640D01*
X177035516Y-159411622D01*
X176982824Y-159398162D01*
X176849118Y-159376199D01*
X176730419Y-159396785D01*
X176617405Y-159462719D01*
X176543795Y-159529967D01*
X176458489Y-159635977D01*
X176371879Y-159774435D01*
X176292992Y-159928001D01*
X176230857Y-160079333D01*
X176197629Y-160194835D01*
X176176707Y-160355977D01*
X176175813Y-160526185D01*
X176193640Y-160688991D01*
X176228881Y-160827927D01*
X176252214Y-160882504D01*
X176336889Y-160999046D01*
X176448128Y-161079523D01*
X176576169Y-161117537D01*
X176614082Y-161119701D01*
X176676491Y-161116657D01*
X176698981Y-161102840D01*
X176693658Y-161075625D01*
X176627457Y-160851551D01*
X176611214Y-160618430D01*
X176644907Y-160376578D01*
X176728512Y-160126307D01*
X176771060Y-160033729D01*
X176877763Y-159850794D01*
X176996705Y-159706478D01*
X177123882Y-159602420D01*
X177255294Y-159540260D01*
X177309927Y-159532531D01*
X177309927Y-159572380D01*
X177232408Y-159592891D01*
X177124225Y-159656536D01*
X177014687Y-159760915D01*
X176909962Y-159896473D01*
X176816217Y-160053651D01*
X176739621Y-160222894D01*
X176686340Y-160394645D01*
X176673409Y-160459059D01*
X176661006Y-160590592D01*
X176662204Y-160735283D01*
X176676324Y-160866877D01*
X176685020Y-160908317D01*
X176734743Y-161025025D01*
X176808210Y-161122979D01*
X176874384Y-161184666D01*
X176931555Y-161214254D01*
X176998569Y-161221821D01*
X177134659Y-161206484D01*
X177262840Y-161165052D01*
X177343811Y-161118125D01*
X177384979Y-161084840D01*
X177387025Y-161072165D01*
X177351240Y-161069848D01*
X177349895Y-161069834D01*
X177243762Y-161045289D01*
X177157914Y-160974295D01*
X177110729Y-160898251D01*
X177069658Y-160760655D01*
X177063499Y-160602211D01*
X177088419Y-160433819D01*
X177140587Y-160266378D01*
X177216170Y-160110790D01*
X177311337Y-159977954D01*
X177422254Y-159878771D01*
X177480662Y-159845999D01*
X177545531Y-159821266D01*
X177545531Y-160547915D01*
X177520685Y-160555749D01*
X177497221Y-160593361D01*
X177484402Y-160640292D01*
X177489049Y-160672670D01*
X177511765Y-160673413D01*
X177536914Y-160648742D01*
X177567790Y-160594213D01*
X177560609Y-160559878D01*
X177545531Y-160547915D01*
X177545531Y-159821266D01*
X177557982Y-159816518D01*
X177625627Y-159799878D01*
X177641091Y-159798556D01*
X177648260Y-159797167D01*
X177648260Y-160535335D01*
X177619014Y-160556306D01*
X177587890Y-160604763D01*
X177565983Y-160659027D01*
X177564388Y-160697417D01*
X177564877Y-160698273D01*
X177588518Y-160697901D01*
X177625437Y-160664556D01*
X177626074Y-160663773D01*
X177662049Y-160605302D01*
X177671890Y-160558112D01*
X177653261Y-160535721D01*
X177648260Y-160535335D01*
X177648260Y-159797167D01*
X177688310Y-159789404D01*
X177691320Y-159759786D01*
X177665708Y-159721124D01*
X177561754Y-159626825D01*
X177440233Y-159576377D01*
X177309927Y-159572380D01*
X177309927Y-159532531D01*
X177386938Y-159521636D01*
X177514813Y-159548190D01*
X177634917Y-159621558D01*
X177677866Y-159662244D01*
X177776113Y-159801125D01*
X177837970Y-159966568D01*
X177864197Y-160150415D01*
X177855558Y-160344507D01*
G37*
X177855558Y-160344507D02*
X177812814Y-160540687D01*
X177736728Y-160730798D01*
X177628061Y-160906680D01*
X177553272Y-160995907D01*
X177431431Y-161104499D01*
X177296304Y-161188672D01*
X177157088Y-161245665D01*
X177022978Y-161272712D01*
X176903172Y-161267051D01*
X176806864Y-161225919D01*
X176801471Y-161221821D01*
X176712091Y-161180463D01*
X176631764Y-161170971D01*
X176489778Y-161146780D01*
X176362163Y-161078024D01*
X176255752Y-160970427D01*
X176177375Y-160829711D01*
X176157917Y-160773982D01*
X176133161Y-160643468D01*
X176124980Y-160485618D01*
X176133240Y-160321121D01*
X176157804Y-160170667D01*
X176161995Y-160153954D01*
X176216763Y-159989847D01*
X176292370Y-159825430D01*
X176382231Y-159671015D01*
X176479764Y-159536918D01*
X176578386Y-159433451D01*
X176657505Y-159377626D01*
X176729263Y-159354211D01*
X176819969Y-159343203D01*
X176916567Y-159343584D01*
X177006004Y-159354336D01*
X177075222Y-159374439D01*
X177111168Y-159402876D01*
X177113514Y-159413203D01*
X177091701Y-159419640D01*
X177035516Y-159411622D01*
X176982824Y-159398162D01*
X176849118Y-159376199D01*
X176730419Y-159396785D01*
X176617405Y-159462719D01*
X176543795Y-159529967D01*
X176458489Y-159635977D01*
X176371879Y-159774435D01*
X176292992Y-159928001D01*
X176230857Y-160079333D01*
X176197629Y-160194835D01*
X176176707Y-160355977D01*
X176175813Y-160526185D01*
X176193640Y-160688991D01*
X176228881Y-160827927D01*
X176252214Y-160882504D01*
X176336889Y-160999046D01*
X176448128Y-161079523D01*
X176576169Y-161117537D01*
X176614082Y-161119701D01*
X176676491Y-161116657D01*
X176698981Y-161102840D01*
X176693658Y-161075625D01*
X176627457Y-160851551D01*
X176611214Y-160618430D01*
X176644907Y-160376578D01*
X176728512Y-160126307D01*
X176771060Y-160033729D01*
X176877763Y-159850794D01*
X176996705Y-159706478D01*
X177123882Y-159602420D01*
X177255294Y-159540260D01*
X177309927Y-159532531D01*
X177309927Y-159572380D01*
X177232408Y-159592891D01*
X177124225Y-159656536D01*
X177014687Y-159760915D01*
X176909962Y-159896473D01*
X176816217Y-160053651D01*
X176739621Y-160222894D01*
X176686340Y-160394645D01*
X176673409Y-160459059D01*
X176661006Y-160590592D01*
X176662204Y-160735283D01*
X176676324Y-160866877D01*
X176685020Y-160908317D01*
X176734743Y-161025025D01*
X176808210Y-161122979D01*
X176874384Y-161184666D01*
X176931555Y-161214254D01*
X176998569Y-161221821D01*
X177134659Y-161206484D01*
X177262840Y-161165052D01*
X177343811Y-161118125D01*
X177384979Y-161084840D01*
X177387025Y-161072165D01*
X177351240Y-161069848D01*
X177349895Y-161069834D01*
X177243762Y-161045289D01*
X177157914Y-160974295D01*
X177110729Y-160898251D01*
X177069658Y-160760655D01*
X177063499Y-160602211D01*
X177088419Y-160433819D01*
X177140587Y-160266378D01*
X177216170Y-160110790D01*
X177311337Y-159977954D01*
X177422254Y-159878771D01*
X177480662Y-159845999D01*
X177545531Y-159821266D01*
X177545531Y-160547915D01*
X177520685Y-160555749D01*
X177497221Y-160593361D01*
X177484402Y-160640292D01*
X177489049Y-160672670D01*
X177511765Y-160673413D01*
X177536914Y-160648742D01*
X177567790Y-160594213D01*
X177560609Y-160559878D01*
X177545531Y-160547915D01*
X177545531Y-159821266D01*
X177557982Y-159816518D01*
X177625627Y-159799878D01*
X177641091Y-159798556D01*
X177648260Y-159797167D01*
X177648260Y-160535335D01*
X177619014Y-160556306D01*
X177587890Y-160604763D01*
X177565983Y-160659027D01*
X177564388Y-160697417D01*
X177564877Y-160698273D01*
X177588518Y-160697901D01*
X177625437Y-160664556D01*
X177626074Y-160663773D01*
X177662049Y-160605302D01*
X177671890Y-160558112D01*
X177653261Y-160535721D01*
X177648260Y-160535335D01*
X177648260Y-159797167D01*
X177688310Y-159789404D01*
X177691320Y-159759786D01*
X177665708Y-159721124D01*
X177561754Y-159626825D01*
X177440233Y-159576377D01*
X177309927Y-159572380D01*
X177309927Y-159532531D01*
X177386938Y-159521636D01*
X177514813Y-159548190D01*
X177634917Y-159621558D01*
X177677866Y-159662244D01*
X177776113Y-159801125D01*
X177837970Y-159966568D01*
X177864197Y-160150415D01*
X177855558Y-160344507D01*
G36*
X178804305Y-171789634D02*
G01*
X178724891Y-171866861D01*
X178664742Y-171931108D01*
X178630342Y-171975039D01*
X178626327Y-171990990D01*
X178638654Y-172020755D01*
X178644449Y-172088215D01*
X178643226Y-172167408D01*
X178637503Y-172256231D01*
X178628388Y-172305715D01*
X178610584Y-172327337D01*
X178578793Y-172332573D01*
X178566950Y-172332666D01*
X178527908Y-172330956D01*
X178443677Y-172326094D01*
X178319798Y-172318436D01*
X178161813Y-172308339D01*
X177975261Y-172296160D01*
X177765684Y-172282257D01*
X177538623Y-172266985D01*
X177382761Y-172256390D01*
X177146457Y-172240388D01*
X176923345Y-172225529D01*
X176719077Y-172212168D01*
X176539301Y-172200666D01*
X176389670Y-172191380D01*
X176275832Y-172184670D01*
X176203439Y-172180892D01*
X176181410Y-172180180D01*
X176125768Y-172175232D01*
X176101351Y-172163119D01*
X176101396Y-172161111D01*
X176105285Y-172127443D01*
X176110543Y-172058696D01*
X176115381Y-171980855D01*
X176124467Y-171819669D01*
X176358380Y-171835183D01*
X176444780Y-171840512D01*
X176573023Y-171847885D01*
X176734163Y-171856813D01*
X176919253Y-171866808D01*
X177119348Y-171877383D01*
X177325502Y-171888050D01*
X177361642Y-171889895D01*
X178130992Y-171929093D01*
X178320835Y-171758511D01*
X178510678Y-171587928D01*
X178176797Y-171234588D01*
X178071333Y-171120731D01*
X177982875Y-171020828D01*
X177916056Y-170940455D01*
X177875509Y-170885187D01*
X177865868Y-170860600D01*
X177865953Y-170860520D01*
X177896944Y-170832931D01*
X177951733Y-170784393D01*
X177993654Y-170747331D01*
X178098318Y-170654869D01*
X178337880Y-170902660D01*
X178453310Y-171022222D01*
X178581555Y-171155323D01*
X178705553Y-171284244D01*
X178792575Y-171374910D01*
X179007708Y-171599371D01*
X178804305Y-171789634D01*
G37*
X178804305Y-171789634D02*
X178724891Y-171866861D01*
X178664742Y-171931108D01*
X178630342Y-171975039D01*
X178626327Y-171990990D01*
X178638654Y-172020755D01*
X178644449Y-172088215D01*
X178643226Y-172167408D01*
X178637503Y-172256231D01*
X178628388Y-172305715D01*
X178610584Y-172327337D01*
X178578793Y-172332573D01*
X178566950Y-172332666D01*
X178527908Y-172330956D01*
X178443677Y-172326094D01*
X178319798Y-172318436D01*
X178161813Y-172308339D01*
X177975261Y-172296160D01*
X177765684Y-172282257D01*
X177538623Y-172266985D01*
X177382761Y-172256390D01*
X177146457Y-172240388D01*
X176923345Y-172225529D01*
X176719077Y-172212168D01*
X176539301Y-172200666D01*
X176389670Y-172191380D01*
X176275832Y-172184670D01*
X176203439Y-172180892D01*
X176181410Y-172180180D01*
X176125768Y-172175232D01*
X176101351Y-172163119D01*
X176101396Y-172161111D01*
X176105285Y-172127443D01*
X176110543Y-172058696D01*
X176115381Y-171980855D01*
X176124467Y-171819669D01*
X176358380Y-171835183D01*
X176444780Y-171840512D01*
X176573023Y-171847885D01*
X176734163Y-171856813D01*
X176919253Y-171866808D01*
X177119348Y-171877383D01*
X177325502Y-171888050D01*
X177361642Y-171889895D01*
X178130992Y-171929093D01*
X178320835Y-171758511D01*
X178510678Y-171587928D01*
X178176797Y-171234588D01*
X178071333Y-171120731D01*
X177982875Y-171020828D01*
X177916056Y-170940455D01*
X177875509Y-170885187D01*
X177865868Y-170860600D01*
X177865953Y-170860520D01*
X177896944Y-170832931D01*
X177951733Y-170784393D01*
X177993654Y-170747331D01*
X178098318Y-170654869D01*
X178337880Y-170902660D01*
X178453310Y-171022222D01*
X178581555Y-171155323D01*
X178705553Y-171284244D01*
X178792575Y-171374910D01*
X179007708Y-171599371D01*
X178804305Y-171789634D01*
G36*
X178254879Y-174204281D02*
G01*
X178096959Y-174361459D01*
X177949721Y-174506441D01*
X177817113Y-174635455D01*
X177703082Y-174744730D01*
X177611578Y-174830495D01*
X177546548Y-174888978D01*
X177511940Y-174916407D01*
X177507733Y-174917970D01*
X177485175Y-174897107D01*
X177434320Y-174842297D01*
X177359318Y-174758404D01*
X177264315Y-174650293D01*
X177153457Y-174522829D01*
X177030893Y-174380878D01*
X176900770Y-174229306D01*
X176767234Y-174072976D01*
X176634433Y-173916755D01*
X176506514Y-173765507D01*
X176387624Y-173624098D01*
X176281910Y-173497393D01*
X176193520Y-173390257D01*
X176126601Y-173307556D01*
X176085299Y-173254154D01*
X176073432Y-173235335D01*
X176089076Y-173208151D01*
X176131797Y-173148628D01*
X176196354Y-173063685D01*
X176277506Y-172960244D01*
X176352600Y-172866666D01*
X176444453Y-172754316D01*
X176525905Y-172656591D01*
X176591363Y-172580052D01*
X176635231Y-172531260D01*
X176651174Y-172516557D01*
X176679889Y-172527490D01*
X176732985Y-172561222D01*
X176796446Y-172607211D01*
X176856253Y-172654918D01*
X176898391Y-172693804D01*
X176909977Y-172711159D01*
X176894936Y-172735855D01*
X176853948Y-172792053D01*
X176793048Y-172871725D01*
X176718273Y-172966841D01*
X176708332Y-172979317D01*
X176506820Y-173231807D01*
X176714367Y-173475113D01*
X176804019Y-173580041D01*
X176915623Y-173710404D01*
X177037949Y-173853100D01*
X177159771Y-173995029D01*
X177224686Y-174070570D01*
X177527458Y-174422723D01*
X178030742Y-173919910D01*
X178178204Y-173772390D01*
X178293288Y-173656309D01*
X178379656Y-173567231D01*
X178440970Y-173500722D01*
X178480894Y-173452345D01*
X178503089Y-173417667D01*
X178511218Y-173392253D01*
X178508942Y-173371667D01*
X178500013Y-173351642D01*
X178475148Y-173306103D01*
X178430576Y-173226664D01*
X178372025Y-173123456D01*
X178305223Y-173006611D01*
X178285552Y-172972363D01*
X178221049Y-172859529D01*
X178166740Y-172763283D01*
X178127158Y-172691755D01*
X178106836Y-172653073D01*
X178105105Y-172648703D01*
X178125179Y-172631816D01*
X178175677Y-172599642D01*
X178242011Y-172560560D01*
X178309595Y-172522946D01*
X178363843Y-172495176D01*
X178389254Y-172485524D01*
X178406256Y-172506557D01*
X178444451Y-172565638D01*
X178500051Y-172656521D01*
X178569269Y-172772960D01*
X178648318Y-172908711D01*
X178691456Y-172983819D01*
X178976474Y-173482353D01*
X178254879Y-174204281D01*
G37*
X178254879Y-174204281D02*
X178096959Y-174361459D01*
X177949721Y-174506441D01*
X177817113Y-174635455D01*
X177703082Y-174744730D01*
X177611578Y-174830495D01*
X177546548Y-174888978D01*
X177511940Y-174916407D01*
X177507733Y-174917970D01*
X177485175Y-174897107D01*
X177434320Y-174842297D01*
X177359318Y-174758404D01*
X177264315Y-174650293D01*
X177153457Y-174522829D01*
X177030893Y-174380878D01*
X176900770Y-174229306D01*
X176767234Y-174072976D01*
X176634433Y-173916755D01*
X176506514Y-173765507D01*
X176387624Y-173624098D01*
X176281910Y-173497393D01*
X176193520Y-173390257D01*
X176126601Y-173307556D01*
X176085299Y-173254154D01*
X176073432Y-173235335D01*
X176089076Y-173208151D01*
X176131797Y-173148628D01*
X176196354Y-173063685D01*
X176277506Y-172960244D01*
X176352600Y-172866666D01*
X176444453Y-172754316D01*
X176525905Y-172656591D01*
X176591363Y-172580052D01*
X176635231Y-172531260D01*
X176651174Y-172516557D01*
X176679889Y-172527490D01*
X176732985Y-172561222D01*
X176796446Y-172607211D01*
X176856253Y-172654918D01*
X176898391Y-172693804D01*
X176909977Y-172711159D01*
X176894936Y-172735855D01*
X176853948Y-172792053D01*
X176793048Y-172871725D01*
X176718273Y-172966841D01*
X176708332Y-172979317D01*
X176506820Y-173231807D01*
X176714367Y-173475113D01*
X176804019Y-173580041D01*
X176915623Y-173710404D01*
X177037949Y-173853100D01*
X177159771Y-173995029D01*
X177224686Y-174070570D01*
X177527458Y-174422723D01*
X178030742Y-173919910D01*
X178178204Y-173772390D01*
X178293288Y-173656309D01*
X178379656Y-173567231D01*
X178440970Y-173500722D01*
X178480894Y-173452345D01*
X178503089Y-173417667D01*
X178511218Y-173392253D01*
X178508942Y-173371667D01*
X178500013Y-173351642D01*
X178475148Y-173306103D01*
X178430576Y-173226664D01*
X178372025Y-173123456D01*
X178305223Y-173006611D01*
X178285552Y-172972363D01*
X178221049Y-172859529D01*
X178166740Y-172763283D01*
X178127158Y-172691755D01*
X178106836Y-172653073D01*
X178105105Y-172648703D01*
X178125179Y-172631816D01*
X178175677Y-172599642D01*
X178242011Y-172560560D01*
X178309595Y-172522946D01*
X178363843Y-172495176D01*
X178389254Y-172485524D01*
X178406256Y-172506557D01*
X178444451Y-172565638D01*
X178500051Y-172656521D01*
X178569269Y-172772960D01*
X178648318Y-172908711D01*
X178691456Y-172983819D01*
X178976474Y-173482353D01*
X178254879Y-174204281D01*
G36*
X178077524Y-168279534D02*
G01*
X177919779Y-168436960D01*
X177773126Y-168582561D01*
X177641464Y-168712525D01*
X177528687Y-168823039D01*
X177438694Y-168910290D01*
X177375381Y-168970465D01*
X177342645Y-168999753D01*
X177339112Y-169002002D01*
X177319108Y-168983317D01*
X177270555Y-168930481D01*
X177197563Y-168848318D01*
X177104243Y-168741652D01*
X176994703Y-168615309D01*
X176873055Y-168474113D01*
X176743408Y-168322890D01*
X176609872Y-168166463D01*
X176476558Y-168009658D01*
X176347575Y-167857300D01*
X176227034Y-167714213D01*
X176119045Y-167585222D01*
X176027717Y-167475152D01*
X175957162Y-167388829D01*
X175911488Y-167331076D01*
X175894806Y-167306718D01*
X175894798Y-167306524D01*
X175910632Y-167280905D01*
X175953474Y-167222785D01*
X176018082Y-167138978D01*
X176099218Y-167036303D01*
X176174622Y-166942542D01*
X176266808Y-166830003D01*
X176349005Y-166731980D01*
X176415514Y-166655082D01*
X176460641Y-166605917D01*
X176477661Y-166590944D01*
X176508410Y-166601627D01*
X176562313Y-166636120D01*
X176625391Y-166683494D01*
X176683663Y-166732819D01*
X176723147Y-166773169D01*
X176732132Y-166789870D01*
X176717114Y-166816231D01*
X176676341Y-166873275D01*
X176616236Y-166952309D01*
X176551205Y-167034705D01*
X176477782Y-167127598D01*
X176416412Y-167207718D01*
X176374081Y-167265783D01*
X176358175Y-167291147D01*
X176371058Y-167317468D01*
X176413330Y-167377225D01*
X176481056Y-167465441D01*
X176570300Y-167577143D01*
X176677129Y-167707355D01*
X176797606Y-167851102D01*
X176847902Y-167910298D01*
X177349731Y-168498661D01*
X177855974Y-167992417D01*
X178362218Y-167486174D01*
X178180342Y-167169863D01*
X178092403Y-167017849D01*
X178027036Y-166904106D01*
X177982892Y-166822035D01*
X177958620Y-166765035D01*
X177952870Y-166726506D01*
X177964292Y-166699847D01*
X177991535Y-166678457D01*
X178033251Y-166655737D01*
X178070968Y-166635148D01*
X178118165Y-166606600D01*
X178155011Y-166585323D01*
X178185762Y-166575541D01*
X178214672Y-166581477D01*
X178245998Y-166607355D01*
X178283994Y-166657399D01*
X178332916Y-166735832D01*
X178397020Y-166846878D01*
X178480560Y-166994759D01*
X178541150Y-167101808D01*
X178799659Y-167557066D01*
X178077524Y-168279534D01*
G37*
X178077524Y-168279534D02*
X177919779Y-168436960D01*
X177773126Y-168582561D01*
X177641464Y-168712525D01*
X177528687Y-168823039D01*
X177438694Y-168910290D01*
X177375381Y-168970465D01*
X177342645Y-168999753D01*
X177339112Y-169002002D01*
X177319108Y-168983317D01*
X177270555Y-168930481D01*
X177197563Y-168848318D01*
X177104243Y-168741652D01*
X176994703Y-168615309D01*
X176873055Y-168474113D01*
X176743408Y-168322890D01*
X176609872Y-168166463D01*
X176476558Y-168009658D01*
X176347575Y-167857300D01*
X176227034Y-167714213D01*
X176119045Y-167585222D01*
X176027717Y-167475152D01*
X175957162Y-167388829D01*
X175911488Y-167331076D01*
X175894806Y-167306718D01*
X175894798Y-167306524D01*
X175910632Y-167280905D01*
X175953474Y-167222785D01*
X176018082Y-167138978D01*
X176099218Y-167036303D01*
X176174622Y-166942542D01*
X176266808Y-166830003D01*
X176349005Y-166731980D01*
X176415514Y-166655082D01*
X176460641Y-166605917D01*
X176477661Y-166590944D01*
X176508410Y-166601627D01*
X176562313Y-166636120D01*
X176625391Y-166683494D01*
X176683663Y-166732819D01*
X176723147Y-166773169D01*
X176732132Y-166789870D01*
X176717114Y-166816231D01*
X176676341Y-166873275D01*
X176616236Y-166952309D01*
X176551205Y-167034705D01*
X176477782Y-167127598D01*
X176416412Y-167207718D01*
X176374081Y-167265783D01*
X176358175Y-167291147D01*
X176371058Y-167317468D01*
X176413330Y-167377225D01*
X176481056Y-167465441D01*
X176570300Y-167577143D01*
X176677129Y-167707355D01*
X176797606Y-167851102D01*
X176847902Y-167910298D01*
X177349731Y-168498661D01*
X177855974Y-167992417D01*
X178362218Y-167486174D01*
X178180342Y-167169863D01*
X178092403Y-167017849D01*
X178027036Y-166904106D01*
X177982892Y-166822035D01*
X177958620Y-166765035D01*
X177952870Y-166726506D01*
X177964292Y-166699847D01*
X177991535Y-166678457D01*
X178033251Y-166655737D01*
X178070968Y-166635148D01*
X178118165Y-166606600D01*
X178155011Y-166585323D01*
X178185762Y-166575541D01*
X178214672Y-166581477D01*
X178245998Y-166607355D01*
X178283994Y-166657399D01*
X178332916Y-166735832D01*
X178397020Y-166846878D01*
X178480560Y-166994759D01*
X178541150Y-167101808D01*
X178799659Y-167557066D01*
X178077524Y-168279534D01*
G36*
X178569119Y-169534060D02*
G01*
X178470991Y-169531929D01*
X178337537Y-169527372D01*
X178184191Y-169520995D01*
X178026386Y-169513405D01*
X177977978Y-169510847D01*
X177583884Y-169489509D01*
X177183822Y-169671631D01*
X177053369Y-169731730D01*
X176940677Y-169785006D01*
X176853236Y-169827806D01*
X176798538Y-169856479D01*
X176783371Y-169866903D01*
X176807183Y-169875322D01*
X176875191Y-169893619D01*
X176981989Y-169920480D01*
X177122171Y-169954592D01*
X177290330Y-169994641D01*
X177481058Y-170039314D01*
X177688949Y-170087297D01*
X177717368Y-170093804D01*
X177927279Y-170141849D01*
X178120945Y-170186224D01*
X178292930Y-170225680D01*
X178437796Y-170258969D01*
X178550108Y-170284839D01*
X178624428Y-170302042D01*
X178655320Y-170309329D01*
X178655864Y-170309483D01*
X178652814Y-170333157D01*
X178640888Y-170393476D01*
X178622643Y-170477535D01*
X178622062Y-170480124D01*
X178598738Y-170572050D01*
X178577798Y-170622326D01*
X178554815Y-170639696D01*
X178541674Y-170638893D01*
X178509570Y-170631485D01*
X178432524Y-170613759D01*
X178315156Y-170586778D01*
X178162086Y-170551601D01*
X177977934Y-170509291D01*
X177767319Y-170460909D01*
X177534862Y-170407517D01*
X177285182Y-170350176D01*
X177113514Y-170310754D01*
X176855834Y-170251556D01*
X176612996Y-170195712D01*
X176389522Y-170144268D01*
X176189938Y-170098268D01*
X176018769Y-170058756D01*
X175880540Y-170026776D01*
X175779776Y-170003372D01*
X175721001Y-169989588D01*
X175707349Y-169986251D01*
X175723371Y-169974375D01*
X175779508Y-169944535D01*
X175869568Y-169899777D01*
X175987357Y-169843147D01*
X176126682Y-169777688D01*
X176208574Y-169739796D01*
X176386833Y-169656771D01*
X176520978Y-169591573D01*
X176613697Y-169542155D01*
X176667683Y-169506471D01*
X176685627Y-169482474D01*
X176670219Y-169468117D01*
X176624150Y-169461355D01*
X176576402Y-169460049D01*
X176490216Y-169455531D01*
X176411649Y-169445201D01*
X176411136Y-169445099D01*
X176371828Y-169435132D01*
X176350696Y-169416721D01*
X176343170Y-169377271D01*
X176344682Y-169304188D01*
X176346564Y-169267121D01*
X176355090Y-169103703D01*
X176486404Y-169103587D01*
X176553966Y-169104722D01*
X176664404Y-169107988D01*
X176810260Y-169113065D01*
X176984080Y-169119631D01*
X177178406Y-169127364D01*
X177385784Y-169135943D01*
X177598756Y-169145046D01*
X177809866Y-169154353D01*
X178011659Y-169163540D01*
X178196678Y-169172288D01*
X178357467Y-169180273D01*
X178486570Y-169187176D01*
X178576531Y-169192674D01*
X178607257Y-169195039D01*
X178766166Y-169209452D01*
X178766166Y-169535936D01*
X178569119Y-169534060D01*
G37*
X178569119Y-169534060D02*
X178470991Y-169531929D01*
X178337537Y-169527372D01*
X178184191Y-169520995D01*
X178026386Y-169513405D01*
X177977978Y-169510847D01*
X177583884Y-169489509D01*
X177183822Y-169671631D01*
X177053369Y-169731730D01*
X176940677Y-169785006D01*
X176853236Y-169827806D01*
X176798538Y-169856479D01*
X176783371Y-169866903D01*
X176807183Y-169875322D01*
X176875191Y-169893619D01*
X176981989Y-169920480D01*
X177122171Y-169954592D01*
X177290330Y-169994641D01*
X177481058Y-170039314D01*
X177688949Y-170087297D01*
X177717368Y-170093804D01*
X177927279Y-170141849D01*
X178120945Y-170186224D01*
X178292930Y-170225680D01*
X178437796Y-170258969D01*
X178550108Y-170284839D01*
X178624428Y-170302042D01*
X178655320Y-170309329D01*
X178655864Y-170309483D01*
X178652814Y-170333157D01*
X178640888Y-170393476D01*
X178622643Y-170477535D01*
X178622062Y-170480124D01*
X178598738Y-170572050D01*
X178577798Y-170622326D01*
X178554815Y-170639696D01*
X178541674Y-170638893D01*
X178509570Y-170631485D01*
X178432524Y-170613759D01*
X178315156Y-170586778D01*
X178162086Y-170551601D01*
X177977934Y-170509291D01*
X177767319Y-170460909D01*
X177534862Y-170407517D01*
X177285182Y-170350176D01*
X177113514Y-170310754D01*
X176855834Y-170251556D01*
X176612996Y-170195712D01*
X176389522Y-170144268D01*
X176189938Y-170098268D01*
X176018769Y-170058756D01*
X175880540Y-170026776D01*
X175779776Y-170003372D01*
X175721001Y-169989588D01*
X175707349Y-169986251D01*
X175723371Y-169974375D01*
X175779508Y-169944535D01*
X175869568Y-169899777D01*
X175987357Y-169843147D01*
X176126682Y-169777688D01*
X176208574Y-169739796D01*
X176386833Y-169656771D01*
X176520978Y-169591573D01*
X176613697Y-169542155D01*
X176667683Y-169506471D01*
X176685627Y-169482474D01*
X176670219Y-169468117D01*
X176624150Y-169461355D01*
X176576402Y-169460049D01*
X176490216Y-169455531D01*
X176411649Y-169445201D01*
X176411136Y-169445099D01*
X176371828Y-169435132D01*
X176350696Y-169416721D01*
X176343170Y-169377271D01*
X176344682Y-169304188D01*
X176346564Y-169267121D01*
X176355090Y-169103703D01*
X176486404Y-169103587D01*
X176553966Y-169104722D01*
X176664404Y-169107988D01*
X176810260Y-169113065D01*
X176984080Y-169119631D01*
X177178406Y-169127364D01*
X177385784Y-169135943D01*
X177598756Y-169145046D01*
X177809866Y-169154353D01*
X178011659Y-169163540D01*
X178196678Y-169172288D01*
X178357467Y-169180273D01*
X178486570Y-169187176D01*
X178576531Y-169192674D01*
X178607257Y-169195039D01*
X178766166Y-169209452D01*
X178766166Y-169535936D01*
X178569119Y-169534060D01*
G36*
X179896188Y-166353459D02*
G01*
X179819250Y-166351900D01*
X179697814Y-166346518D01*
X179534971Y-166337506D01*
X179333808Y-166325059D01*
X179097417Y-166309369D01*
X178828885Y-166290629D01*
X178531304Y-166269032D01*
X178207762Y-166244771D01*
X178124174Y-166238389D01*
X177927127Y-166223291D01*
X177927127Y-166538059D01*
X177755506Y-166530541D01*
X177583884Y-166523023D01*
X177571171Y-166358422D01*
X177558459Y-166193820D01*
X176986387Y-166139603D01*
X176687358Y-166110145D01*
X176433642Y-166082773D01*
X176226370Y-166057633D01*
X176066671Y-166034870D01*
X175955674Y-166014629D01*
X175901195Y-165999793D01*
X175845733Y-165978962D01*
X175924347Y-165831473D01*
X175965009Y-165755465D01*
X175994980Y-165699966D01*
X176007475Y-165677505D01*
X176032664Y-165678089D01*
X176092077Y-165686702D01*
X176137104Y-165694754D01*
X176200520Y-165704455D01*
X176304695Y-165717725D01*
X176439755Y-165733423D01*
X176595826Y-165750410D01*
X176763034Y-165767546D01*
X176795924Y-165770791D01*
X176962832Y-165787247D01*
X177119316Y-165802856D01*
X177255834Y-165816652D01*
X177362847Y-165827669D01*
X177430816Y-165834941D01*
X177439325Y-165835913D01*
X177549020Y-165848725D01*
X177531113Y-165457220D01*
X177513207Y-165065715D01*
X177682083Y-165057031D01*
X177767343Y-165054399D01*
X177828310Y-165055855D01*
X177851738Y-165061061D01*
X177853410Y-165089557D01*
X177857507Y-165159769D01*
X177863502Y-165262648D01*
X177870868Y-165389145D01*
X177875216Y-165463855D01*
X177883699Y-165599125D01*
X177892156Y-165715434D01*
X177899841Y-165803795D01*
X177906008Y-165855220D01*
X177908447Y-165864469D01*
X177935401Y-165868972D01*
X178005599Y-165876380D01*
X178111630Y-165886130D01*
X178246083Y-165897656D01*
X178401547Y-165910396D01*
X178570610Y-165923784D01*
X178745861Y-165937256D01*
X178919890Y-165950249D01*
X179085285Y-165962198D01*
X179234635Y-165972538D01*
X179360529Y-165980706D01*
X179455556Y-165986137D01*
X179512304Y-165988266D01*
X179525228Y-165987560D01*
X179523296Y-165961673D01*
X179513969Y-165892024D01*
X179498281Y-165785001D01*
X179477267Y-165646989D01*
X179451960Y-165484373D01*
X179423395Y-165303541D01*
X179392606Y-165110879D01*
X179360628Y-164912772D01*
X179328495Y-164715607D01*
X179297240Y-164525769D01*
X179267899Y-164349646D01*
X179241505Y-164193622D01*
X179219092Y-164064085D01*
X179201696Y-163967420D01*
X179190349Y-163910014D01*
X179186602Y-163896645D01*
X179167575Y-163909589D01*
X179129490Y-163954187D01*
X179093247Y-164003113D01*
X179044627Y-164067148D01*
X179005628Y-164109720D01*
X178989328Y-164120320D01*
X178966240Y-164105988D01*
X178907705Y-164065689D01*
X178819326Y-164003468D01*
X178706705Y-163923369D01*
X178575444Y-163829437D01*
X178431148Y-163725716D01*
X178279419Y-163616251D01*
X178125859Y-163505087D01*
X177976072Y-163396268D01*
X177835659Y-163293839D01*
X177710225Y-163201844D01*
X177605371Y-163124329D01*
X177526701Y-163065337D01*
X177506052Y-163049555D01*
X177480314Y-163060767D01*
X177419915Y-163104781D01*
X177327258Y-163179583D01*
X177204745Y-163283160D01*
X177054776Y-163413496D01*
X176879755Y-163568577D01*
X176773860Y-163663533D01*
X176614069Y-163806921D01*
X176465961Y-163938978D01*
X176333810Y-164055957D01*
X176221889Y-164154113D01*
X176134472Y-164229698D01*
X176075834Y-164278966D01*
X176050248Y-164298172D01*
X176049729Y-164298298D01*
X176023379Y-164281472D01*
X175973496Y-164237616D01*
X175918279Y-164183639D01*
X175805749Y-164068980D01*
X175868490Y-164009449D01*
X175902200Y-163978407D01*
X175968771Y-163917921D01*
X176063210Y-163832496D01*
X176180523Y-163726640D01*
X176315717Y-163604862D01*
X176463798Y-163471667D01*
X176561433Y-163383946D01*
X177191635Y-162817974D01*
X176891964Y-162597608D01*
X176785698Y-162519529D01*
X176648290Y-162418665D01*
X176489627Y-162302269D01*
X176319598Y-162177595D01*
X176148091Y-162051895D01*
X176039290Y-161972186D01*
X175893371Y-161864783D01*
X175761981Y-161767069D01*
X175650415Y-161683064D01*
X175563966Y-161616787D01*
X175507929Y-161572257D01*
X175487599Y-161553493D01*
X175487595Y-161553385D01*
X175502852Y-161527545D01*
X175540936Y-161475016D01*
X175579421Y-161425225D01*
X175633627Y-161363456D01*
X175679372Y-161323063D01*
X175700714Y-161313587D01*
X175727223Y-161328763D01*
X175790218Y-161370964D01*
X175885255Y-161437036D01*
X176007892Y-161523825D01*
X176153688Y-161628177D01*
X176318198Y-161746940D01*
X176496982Y-161876959D01*
X176587147Y-161942867D01*
X176770562Y-162076922D01*
X176941174Y-162201162D01*
X177094645Y-162312460D01*
X177226639Y-162407692D01*
X177332817Y-162483733D01*
X177408841Y-162537458D01*
X177450374Y-162565743D01*
X177456836Y-162569369D01*
X177478108Y-162552900D01*
X177533096Y-162505849D01*
X177617805Y-162431751D01*
X177728245Y-162334142D01*
X177860423Y-162216557D01*
X178010346Y-162082531D01*
X178174021Y-161935599D01*
X178260813Y-161857457D01*
X178430162Y-161705267D01*
X178588047Y-161564207D01*
X178730437Y-161437817D01*
X178853301Y-161329638D01*
X178952606Y-161243212D01*
X179024323Y-161182078D01*
X179064420Y-161149777D01*
X179071361Y-161145545D01*
X179097200Y-161163620D01*
X179144095Y-161210734D01*
X179195168Y-161268813D01*
X179298374Y-161392082D01*
X178608916Y-162012507D01*
X178447101Y-162158051D01*
X178293847Y-162295764D01*
X178154092Y-162421220D01*
X178032774Y-162529990D01*
X177934831Y-162617646D01*
X177865201Y-162679761D01*
X177830442Y-162710501D01*
X177741427Y-162788069D01*
X179179961Y-163843931D01*
X179162333Y-163708802D01*
X179149797Y-163621237D01*
X179137359Y-163547647D01*
X179131774Y-163520914D01*
X179129676Y-163492337D01*
X179147156Y-163473178D01*
X179194187Y-163458503D01*
X179280743Y-163443381D01*
X179292104Y-163441632D01*
X179378501Y-163428854D01*
X179441356Y-163420411D01*
X179467629Y-163418047D01*
X179467745Y-163418115D01*
X179474219Y-163445809D01*
X179487416Y-163518137D01*
X179506492Y-163629702D01*
X179530605Y-163775108D01*
X179558913Y-163948958D01*
X179590574Y-164145855D01*
X179624745Y-164360401D01*
X179660583Y-164587201D01*
X179697247Y-164820857D01*
X179733894Y-165055972D01*
X179769682Y-165287149D01*
X179803767Y-165508993D01*
X179835308Y-165716104D01*
X179863463Y-165903088D01*
X179887388Y-166064547D01*
X179906242Y-166195084D01*
X179919183Y-166289302D01*
X179925367Y-166341805D01*
X179925540Y-166351003D01*
X179896188Y-166353459D01*
G37*
X179896188Y-166353459D02*
X179819250Y-166351900D01*
X179697814Y-166346518D01*
X179534971Y-166337506D01*
X179333808Y-166325059D01*
X179097417Y-166309369D01*
X178828885Y-166290629D01*
X178531304Y-166269032D01*
X178207762Y-166244771D01*
X178124174Y-166238389D01*
X177927127Y-166223291D01*
X177927127Y-166538059D01*
X177755506Y-166530541D01*
X177583884Y-166523023D01*
X177571171Y-166358422D01*
X177558459Y-166193820D01*
X176986387Y-166139603D01*
X176687358Y-166110145D01*
X176433642Y-166082773D01*
X176226370Y-166057633D01*
X176066671Y-166034870D01*
X175955674Y-166014629D01*
X175901195Y-165999793D01*
X175845733Y-165978962D01*
X175924347Y-165831473D01*
X175965009Y-165755465D01*
X175994980Y-165699966D01*
X176007475Y-165677505D01*
X176032664Y-165678089D01*
X176092077Y-165686702D01*
X176137104Y-165694754D01*
X176200520Y-165704455D01*
X176304695Y-165717725D01*
X176439755Y-165733423D01*
X176595826Y-165750410D01*
X176763034Y-165767546D01*
X176795924Y-165770791D01*
X176962832Y-165787247D01*
X177119316Y-165802856D01*
X177255834Y-165816652D01*
X177362847Y-165827669D01*
X177430816Y-165834941D01*
X177439325Y-165835913D01*
X177549020Y-165848725D01*
X177531113Y-165457220D01*
X177513207Y-165065715D01*
X177682083Y-165057031D01*
X177767343Y-165054399D01*
X177828310Y-165055855D01*
X177851738Y-165061061D01*
X177853410Y-165089557D01*
X177857507Y-165159769D01*
X177863502Y-165262648D01*
X177870868Y-165389145D01*
X177875216Y-165463855D01*
X177883699Y-165599125D01*
X177892156Y-165715434D01*
X177899841Y-165803795D01*
X177906008Y-165855220D01*
X177908447Y-165864469D01*
X177935401Y-165868972D01*
X178005599Y-165876380D01*
X178111630Y-165886130D01*
X178246083Y-165897656D01*
X178401547Y-165910396D01*
X178570610Y-165923784D01*
X178745861Y-165937256D01*
X178919890Y-165950249D01*
X179085285Y-165962198D01*
X179234635Y-165972538D01*
X179360529Y-165980706D01*
X179455556Y-165986137D01*
X179512304Y-165988266D01*
X179525228Y-165987560D01*
X179523296Y-165961673D01*
X179513969Y-165892024D01*
X179498281Y-165785001D01*
X179477267Y-165646989D01*
X179451960Y-165484373D01*
X179423395Y-165303541D01*
X179392606Y-165110879D01*
X179360628Y-164912772D01*
X179328495Y-164715607D01*
X179297240Y-164525769D01*
X179267899Y-164349646D01*
X179241505Y-164193622D01*
X179219092Y-164064085D01*
X179201696Y-163967420D01*
X179190349Y-163910014D01*
X179186602Y-163896645D01*
X179167575Y-163909589D01*
X179129490Y-163954187D01*
X179093247Y-164003113D01*
X179044627Y-164067148D01*
X179005628Y-164109720D01*
X178989328Y-164120320D01*
X178966240Y-164105988D01*
X178907705Y-164065689D01*
X178819326Y-164003468D01*
X178706705Y-163923369D01*
X178575444Y-163829437D01*
X178431148Y-163725716D01*
X178279419Y-163616251D01*
X178125859Y-163505087D01*
X177976072Y-163396268D01*
X177835659Y-163293839D01*
X177710225Y-163201844D01*
X177605371Y-163124329D01*
X177526701Y-163065337D01*
X177506052Y-163049555D01*
X177480314Y-163060767D01*
X177419915Y-163104781D01*
X177327258Y-163179583D01*
X177204745Y-163283160D01*
X177054776Y-163413496D01*
X176879755Y-163568577D01*
X176773860Y-163663533D01*
X176614069Y-163806921D01*
X176465961Y-163938978D01*
X176333810Y-164055957D01*
X176221889Y-164154113D01*
X176134472Y-164229698D01*
X176075834Y-164278966D01*
X176050248Y-164298172D01*
X176049729Y-164298298D01*
X176023379Y-164281472D01*
X175973496Y-164237616D01*
X175918279Y-164183639D01*
X175805749Y-164068980D01*
X175868490Y-164009449D01*
X175902200Y-163978407D01*
X175968771Y-163917921D01*
X176063210Y-163832496D01*
X176180523Y-163726640D01*
X176315717Y-163604862D01*
X176463798Y-163471667D01*
X176561433Y-163383946D01*
X177191635Y-162817974D01*
X176891964Y-162597608D01*
X176785698Y-162519529D01*
X176648290Y-162418665D01*
X176489627Y-162302269D01*
X176319598Y-162177595D01*
X176148091Y-162051895D01*
X176039290Y-161972186D01*
X175893371Y-161864783D01*
X175761981Y-161767069D01*
X175650415Y-161683064D01*
X175563966Y-161616787D01*
X175507929Y-161572257D01*
X175487599Y-161553493D01*
X175487595Y-161553385D01*
X175502852Y-161527545D01*
X175540936Y-161475016D01*
X175579421Y-161425225D01*
X175633627Y-161363456D01*
X175679372Y-161323063D01*
X175700714Y-161313587D01*
X175727223Y-161328763D01*
X175790218Y-161370964D01*
X175885255Y-161437036D01*
X176007892Y-161523825D01*
X176153688Y-161628177D01*
X176318198Y-161746940D01*
X176496982Y-161876959D01*
X176587147Y-161942867D01*
X176770562Y-162076922D01*
X176941174Y-162201162D01*
X177094645Y-162312460D01*
X177226639Y-162407692D01*
X177332817Y-162483733D01*
X177408841Y-162537458D01*
X177450374Y-162565743D01*
X177456836Y-162569369D01*
X177478108Y-162552900D01*
X177533096Y-162505849D01*
X177617805Y-162431751D01*
X177728245Y-162334142D01*
X177860423Y-162216557D01*
X178010346Y-162082531D01*
X178174021Y-161935599D01*
X178260813Y-161857457D01*
X178430162Y-161705267D01*
X178588047Y-161564207D01*
X178730437Y-161437817D01*
X178853301Y-161329638D01*
X178952606Y-161243212D01*
X179024323Y-161182078D01*
X179064420Y-161149777D01*
X179071361Y-161145545D01*
X179097200Y-161163620D01*
X179144095Y-161210734D01*
X179195168Y-161268813D01*
X179298374Y-161392082D01*
X178608916Y-162012507D01*
X178447101Y-162158051D01*
X178293847Y-162295764D01*
X178154092Y-162421220D01*
X178032774Y-162529990D01*
X177934831Y-162617646D01*
X177865201Y-162679761D01*
X177830442Y-162710501D01*
X177741427Y-162788069D01*
X179179961Y-163843931D01*
X179162333Y-163708802D01*
X179149797Y-163621237D01*
X179137359Y-163547647D01*
X179131774Y-163520914D01*
X179129676Y-163492337D01*
X179147156Y-163473178D01*
X179194187Y-163458503D01*
X179280743Y-163443381D01*
X179292104Y-163441632D01*
X179378501Y-163428854D01*
X179441356Y-163420411D01*
X179467629Y-163418047D01*
X179467745Y-163418115D01*
X179474219Y-163445809D01*
X179487416Y-163518137D01*
X179506492Y-163629702D01*
X179530605Y-163775108D01*
X179558913Y-163948958D01*
X179590574Y-164145855D01*
X179624745Y-164360401D01*
X179660583Y-164587201D01*
X179697247Y-164820857D01*
X179733894Y-165055972D01*
X179769682Y-165287149D01*
X179803767Y-165508993D01*
X179835308Y-165716104D01*
X179863463Y-165903088D01*
X179887388Y-166064547D01*
X179906242Y-166195084D01*
X179919183Y-166289302D01*
X179925367Y-166341805D01*
X179925540Y-166351003D01*
X179896188Y-166353459D01*
G36*
X181248015Y-157516293D02*
G01*
X181167737Y-157763693D01*
X181048560Y-157983664D01*
X180888295Y-158178785D01*
X180684749Y-158351637D01*
X180435732Y-158504799D01*
X180387371Y-158529742D01*
X180190658Y-158628660D01*
X180203681Y-158825591D01*
X180210911Y-158928808D01*
X180221025Y-159065125D01*
X180232695Y-159216965D01*
X180244591Y-159366752D01*
X180244835Y-159369759D01*
X180254053Y-159503088D01*
X180259450Y-159623183D01*
X180260705Y-159718399D01*
X180257497Y-159777094D01*
X180256221Y-159783711D01*
X180212948Y-159860195D01*
X180134525Y-159913976D01*
X180032636Y-159942163D01*
X179918963Y-159941864D01*
X179805189Y-159910188D01*
X179784630Y-159900437D01*
X179663402Y-159811260D01*
X179567811Y-159685336D01*
X179499866Y-159530947D01*
X179461578Y-159356375D01*
X179454955Y-159169902D01*
X179482008Y-158979811D01*
X179526631Y-158837247D01*
X179555544Y-158762211D01*
X179574848Y-158708462D01*
X179579780Y-158691050D01*
X179557286Y-158683132D01*
X179501521Y-158678267D01*
X179484435Y-158677813D01*
X179410398Y-158670443D01*
X179310037Y-158652610D01*
X179211111Y-158629672D01*
X179123534Y-158607755D01*
X179057850Y-158593297D01*
X179026897Y-158589094D01*
X179026141Y-158589398D01*
X179035215Y-158611128D01*
X179066809Y-158654654D01*
X179067722Y-158655783D01*
X179106291Y-158695047D01*
X179136760Y-158696078D01*
X179157346Y-158681697D01*
X179190363Y-158664183D01*
X179198399Y-158674724D01*
X179175836Y-158715399D01*
X179119149Y-158752140D01*
X179044837Y-158776227D01*
X178997365Y-158780981D01*
X178883901Y-158760731D01*
X178763114Y-158706299D01*
X178653758Y-158627159D01*
X178614684Y-158587624D01*
X178545322Y-158495553D01*
X178483150Y-158390002D01*
X178436032Y-158286632D01*
X178411831Y-158201110D01*
X178410210Y-158180305D01*
X178400501Y-158137404D01*
X178374897Y-158061368D01*
X178338686Y-157965290D01*
X178297155Y-157862265D01*
X178255591Y-157765386D01*
X178219282Y-157687748D01*
X178193515Y-157642443D01*
X178192495Y-157641133D01*
X178165551Y-157640651D01*
X178126297Y-157666860D01*
X178092014Y-157705096D01*
X178079680Y-157736851D01*
X178064258Y-157801716D01*
X178023060Y-157892034D01*
X177963688Y-157994898D01*
X177893744Y-158097396D01*
X177820829Y-158186620D01*
X177804963Y-158203371D01*
X177653184Y-158330933D01*
X177494347Y-158413162D01*
X177333058Y-158448805D01*
X177173919Y-158436607D01*
X177073957Y-158402494D01*
X176999472Y-158356735D01*
X176921747Y-158290354D01*
X176852166Y-158215584D01*
X176802117Y-158144654D01*
X176782983Y-158089918D01*
X176787417Y-158051591D01*
X176803302Y-158053094D01*
X176834515Y-158096925D01*
X176859060Y-158138989D01*
X176948812Y-158252362D01*
X177068242Y-158338820D01*
X177201895Y-158388055D01*
X177241204Y-158393908D01*
X177359045Y-158390995D01*
X177481172Y-158364883D01*
X177589341Y-158321104D01*
X177665223Y-158265285D01*
X177699178Y-158215266D01*
X177742095Y-158135072D01*
X177789029Y-158036311D01*
X177835034Y-157930593D01*
X177875164Y-157829528D01*
X177904474Y-157744725D01*
X177918018Y-157687795D01*
X177917346Y-157673444D01*
X177883768Y-157646807D01*
X177826738Y-157636836D01*
X177754686Y-157626968D01*
X177667835Y-157602318D01*
X177641606Y-157592373D01*
X177520478Y-157560690D01*
X177363276Y-157548035D01*
X177342343Y-157547878D01*
X177246546Y-157549609D01*
X177175002Y-157558386D01*
X177109679Y-157579529D01*
X177032545Y-157618361D01*
X176957593Y-157661418D01*
X176763534Y-157774989D01*
X176750146Y-157904706D01*
X176735861Y-157986188D01*
X176708630Y-158097290D01*
X176673116Y-158219924D01*
X176652554Y-158283339D01*
X176604789Y-158413644D01*
X176562090Y-158500411D01*
X176518928Y-158549837D01*
X176469775Y-158568121D01*
X176409100Y-158561458D01*
X176405266Y-158560477D01*
X176352539Y-158563138D01*
X176277424Y-158585351D01*
X176235532Y-158603392D01*
X176103351Y-158644798D01*
X175965123Y-158641444D01*
X175814087Y-158592814D01*
X175761177Y-158567207D01*
X175690388Y-158532118D01*
X175640734Y-158510596D01*
X175625245Y-158507011D01*
X175628072Y-158533109D01*
X175641480Y-158595428D01*
X175662674Y-158681126D01*
X175665509Y-158691992D01*
X175700241Y-158847482D01*
X175711038Y-158961217D01*
X175697433Y-159036550D01*
X175658964Y-159076835D01*
X175610962Y-159086086D01*
X175556531Y-159063353D01*
X175495433Y-159001957D01*
X175435068Y-158912101D01*
X175382841Y-158803986D01*
X175360314Y-158740594D01*
X175332980Y-158622052D01*
X175315250Y-158483711D01*
X175307742Y-158341383D01*
X175311075Y-158210877D01*
X175325868Y-158108002D01*
X175334445Y-158079910D01*
X175357793Y-158029390D01*
X175370502Y-158027567D01*
X175372372Y-158073371D01*
X175363204Y-158165731D01*
X175357831Y-158205479D01*
X175348626Y-158352263D01*
X175358643Y-158506799D01*
X175385123Y-158658435D01*
X175425308Y-158796518D01*
X175476438Y-158910392D01*
X175535755Y-158989406D01*
X175566681Y-159012013D01*
X175614794Y-159031439D01*
X175624965Y-159018918D01*
X175597437Y-158976087D01*
X175554159Y-158927136D01*
X175476031Y-158810898D01*
X175424633Y-158655488D01*
X175399734Y-158459581D01*
X175401104Y-158221854D01*
X175410222Y-158100959D01*
X175420885Y-158017805D01*
X175437672Y-157977826D01*
X175467948Y-157973365D01*
X175503569Y-157989297D01*
X175503569Y-158254243D01*
X175482869Y-158284049D01*
X175481528Y-158319330D01*
X175477446Y-158362373D01*
X175462459Y-158374174D01*
X175437226Y-158389333D01*
X175452729Y-158434837D01*
X175488132Y-158485159D01*
X175520056Y-158530691D01*
X175519061Y-158549454D01*
X175500845Y-158552152D01*
X175465144Y-158563541D01*
X175473860Y-158598092D01*
X175524324Y-158653759D01*
X175577086Y-158693341D01*
X175603997Y-158693388D01*
X175600097Y-158656318D01*
X175584839Y-158624249D01*
X175562367Y-158560760D01*
X175559635Y-158516335D01*
X175562035Y-158449768D01*
X175553823Y-158374877D01*
X175538355Y-158307356D01*
X175518988Y-158262898D01*
X175503569Y-158254243D01*
X175503569Y-157989297D01*
X175513383Y-157993687D01*
X175553070Y-158004606D01*
X175560221Y-157985897D01*
X175532413Y-157948909D01*
X175524425Y-157941942D01*
X175492180Y-157899939D01*
X175486287Y-157877696D01*
X175499315Y-157846067D01*
X175535309Y-157779743D01*
X175589636Y-157686735D01*
X175657661Y-157575056D01*
X175705645Y-157498433D01*
X175778889Y-157381314D01*
X175840556Y-157280083D01*
X175886305Y-157202078D01*
X175911799Y-157154639D01*
X175915405Y-157143624D01*
X175887136Y-157142319D01*
X175823388Y-157147152D01*
X175753253Y-157155186D01*
X175636896Y-157166854D01*
X175507551Y-157174977D01*
X175440636Y-157177033D01*
X175326615Y-157170045D01*
X175245611Y-157139762D01*
X175181982Y-157077667D01*
X175141264Y-157013991D01*
X175121452Y-156986320D01*
X175097631Y-156984600D01*
X175055138Y-157011186D01*
X175026849Y-157032383D01*
X174929943Y-157090999D01*
X174811579Y-157141169D01*
X174689076Y-157177410D01*
X174579751Y-157194244D01*
X174522593Y-157191953D01*
X174407653Y-157152755D01*
X174331311Y-157085399D01*
X174296971Y-156996220D01*
X174308037Y-156891554D01*
X174331347Y-156835992D01*
X174372902Y-156766808D01*
X174413823Y-156712262D01*
X174468825Y-156661029D01*
X174539573Y-156607774D01*
X174612135Y-156561462D01*
X174672581Y-156531055D01*
X174705266Y-156524744D01*
X174710197Y-156541724D01*
X174676712Y-156566807D01*
X174600208Y-156618533D01*
X174515251Y-156691823D01*
X174437963Y-156771258D01*
X174384468Y-156841423D01*
X174378635Y-156851831D01*
X174345169Y-156953685D01*
X174355127Y-157037155D01*
X174403408Y-157099068D01*
X174484911Y-157136253D01*
X174594537Y-157145534D01*
X174727187Y-157123740D01*
X174786165Y-157105394D01*
X174872829Y-157070972D01*
X174943452Y-157035888D01*
X174976855Y-157012723D01*
X174990272Y-156993606D01*
X174968300Y-156996124D01*
X174906085Y-157020935D01*
X174901502Y-157022915D01*
X174789083Y-157061953D01*
X174672325Y-157086691D01*
X174566632Y-157095132D01*
X174487407Y-157085279D01*
X174471486Y-157078664D01*
X174431774Y-157031193D01*
X174418276Y-156955671D01*
X174431134Y-156867706D01*
X174468843Y-156785370D01*
X174515573Y-156733802D01*
X174590652Y-156670657D01*
X174641131Y-156635256D01*
X174641131Y-156797797D01*
X174623241Y-156817902D01*
X174628411Y-156869707D01*
X174655024Y-156940452D01*
X174660613Y-156951613D01*
X174697923Y-157004427D01*
X174733224Y-157027628D01*
X174755648Y-157019611D01*
X174754326Y-156978770D01*
X174749593Y-156964757D01*
X174714584Y-156887932D01*
X174676885Y-156827865D01*
X174645672Y-156798685D01*
X174641131Y-156797797D01*
X174641131Y-156635256D01*
X174678123Y-156609312D01*
X174681165Y-156607392D01*
X174719007Y-156582284D01*
X174719007Y-156721521D01*
X174699482Y-156737484D01*
X174712631Y-156786999D01*
X174750121Y-156857637D01*
X174791849Y-156915773D01*
X174833643Y-156955398D01*
X174865129Y-156968753D01*
X174876076Y-156951834D01*
X174862743Y-156916063D01*
X174829886Y-156859485D01*
X174788217Y-156797809D01*
X174748448Y-156746743D01*
X174721292Y-156721993D01*
X174719007Y-156721521D01*
X174719007Y-156582284D01*
X174786411Y-156537561D01*
X174897156Y-156458397D01*
X174976435Y-156397347D01*
X175051716Y-156341963D01*
X175118239Y-156302991D01*
X175159336Y-156289289D01*
X175182796Y-156286450D01*
X175191793Y-156280337D01*
X175191793Y-156317294D01*
X175165543Y-156323159D01*
X175113442Y-156354765D01*
X175047067Y-156403424D01*
X174977993Y-156460450D01*
X174917797Y-156517159D01*
X174900475Y-156535885D01*
X174845939Y-156623196D01*
X174824600Y-156714694D01*
X174838312Y-156795661D01*
X174863131Y-156832071D01*
X174912264Y-156865264D01*
X174982890Y-156896837D01*
X174993279Y-156900419D01*
X175064431Y-156915328D01*
X175106551Y-156897778D01*
X175126457Y-156841423D01*
X175130876Y-156772372D01*
X175136516Y-156701151D01*
X175149948Y-156602484D01*
X175166842Y-156505405D01*
X175182596Y-156416695D01*
X175191644Y-156349738D01*
X175192207Y-156317957D01*
X175191793Y-156317294D01*
X175191793Y-156280337D01*
X175203028Y-156272702D01*
X175224404Y-156240201D01*
X175251293Y-156181100D01*
X175288066Y-156087554D01*
X175322207Y-155996897D01*
X175352491Y-155926435D01*
X175372352Y-155904345D01*
X175379463Y-155916447D01*
X175397422Y-155948454D01*
X175441060Y-155949269D01*
X175456789Y-155945546D01*
X175501409Y-155939991D01*
X175573157Y-155935276D01*
X175573157Y-156722294D01*
X175524456Y-156729467D01*
X175496264Y-156746454D01*
X175501652Y-156764063D01*
X175509165Y-156767285D01*
X175550553Y-156762887D01*
X175575533Y-156751801D01*
X175575533Y-156829999D01*
X175530093Y-156851884D01*
X175518068Y-156858085D01*
X175463785Y-156892504D01*
X175436277Y-156922382D01*
X175435436Y-156926472D01*
X175452702Y-156938911D01*
X175482021Y-156927207D01*
X175537949Y-156886092D01*
X175564654Y-156858820D01*
X175584640Y-156832273D01*
X175575533Y-156829999D01*
X175575533Y-156751801D01*
X175580674Y-156749519D01*
X175610589Y-156729050D01*
X175593212Y-156722842D01*
X175573157Y-156722294D01*
X175573157Y-155935276D01*
X175588487Y-155934268D01*
X175709636Y-155928738D01*
X175856468Y-155923758D01*
X176020593Y-155919688D01*
X176092522Y-155918339D01*
X176099066Y-155918229D01*
X176099066Y-158036961D01*
X176019554Y-158103866D01*
X175946261Y-158152606D01*
X175871083Y-158168679D01*
X175775750Y-158154877D01*
X175743109Y-158146082D01*
X175660543Y-158132513D01*
X175618093Y-158147174D01*
X175617234Y-158185242D01*
X175659438Y-158241892D01*
X175702258Y-158279796D01*
X175771535Y-158352286D01*
X175804858Y-158438467D01*
X175807526Y-158453403D01*
X175833788Y-158532500D01*
X175886433Y-158579892D01*
X175972377Y-158599222D01*
X176078616Y-158596140D01*
X176206050Y-158559764D01*
X176314264Y-158478040D01*
X176392756Y-158365991D01*
X176412120Y-158321036D01*
X176412156Y-158283993D01*
X176386998Y-158246069D01*
X176330779Y-158198468D01*
X176237633Y-158132395D01*
X176236353Y-158131513D01*
X176099066Y-158036961D01*
X176099066Y-155918229D01*
X176660619Y-155908710D01*
X176713700Y-155838389D01*
X176792034Y-155745171D01*
X176880024Y-155656968D01*
X176966611Y-155583460D01*
X177040736Y-155534327D01*
X177077465Y-155519954D01*
X177162839Y-155512599D01*
X177171832Y-155514546D01*
X177171832Y-155559198D01*
X177073224Y-155574425D01*
X176973655Y-155634725D01*
X176899371Y-155705025D01*
X176836265Y-155776037D01*
X176804815Y-155823536D01*
X176799301Y-155858488D01*
X176807606Y-155880982D01*
X176840408Y-155929242D01*
X176873171Y-155938189D01*
X176915664Y-155906309D01*
X176957312Y-155857793D01*
X177013905Y-155778598D01*
X177034478Y-155721549D01*
X177021636Y-155675712D01*
X177005456Y-155655626D01*
X176988869Y-155634240D01*
X177010238Y-155641120D01*
X177024525Y-155648353D01*
X177073257Y-155683554D01*
X177133202Y-155739473D01*
X177151652Y-155759126D01*
X177185287Y-155798948D01*
X177188398Y-155809038D01*
X177173854Y-155798347D01*
X177142819Y-155775618D01*
X177116602Y-155773504D01*
X177083522Y-155797481D01*
X177031902Y-155853026D01*
X177014008Y-155873309D01*
X176960680Y-155940721D01*
X176927168Y-155996581D01*
X176920590Y-156025672D01*
X176922330Y-156050974D01*
X176901155Y-156045047D01*
X176867367Y-156015166D01*
X176831268Y-155968606D01*
X176824695Y-155957961D01*
X176784474Y-155900708D01*
X176751020Y-155888680D01*
X176713932Y-155922413D01*
X176685435Y-155965115D01*
X176650626Y-156049533D01*
X176651181Y-156142547D01*
X176687680Y-156256124D01*
X176700997Y-156285934D01*
X176743457Y-156343925D01*
X176743457Y-156455432D01*
X176703131Y-156456766D01*
X176702969Y-156456864D01*
X176691370Y-156490042D01*
X176687661Y-156563684D01*
X176691303Y-156668107D01*
X176701755Y-156793628D01*
X176718479Y-156930562D01*
X176735382Y-157038216D01*
X176756950Y-157142161D01*
X176786352Y-157257171D01*
X176819929Y-157371694D01*
X176854021Y-157474176D01*
X176884968Y-157553062D01*
X176909111Y-157596800D01*
X176913615Y-157600864D01*
X176928869Y-157596295D01*
X176923596Y-157548862D01*
X176919606Y-157531959D01*
X176900561Y-157379092D01*
X176926390Y-157243728D01*
X176984488Y-157136047D01*
X177021119Y-157082212D01*
X177043425Y-157037953D01*
X177053896Y-156989218D01*
X177055023Y-156921953D01*
X177049295Y-156822105D01*
X177046702Y-156784961D01*
X177029903Y-156545973D01*
X176950937Y-156528983D01*
X176867442Y-156503869D01*
X176801306Y-156475878D01*
X176743457Y-156455432D01*
X176743457Y-156343925D01*
X176772492Y-156383581D01*
X176878050Y-156444354D01*
X177015480Y-156467039D01*
X177027684Y-156467172D01*
X177197569Y-156446777D01*
X177356295Y-156389308D01*
X177492107Y-156300714D01*
X177593249Y-156186941D01*
X177598666Y-156178286D01*
X177638918Y-156093437D01*
X177645938Y-156015701D01*
X177617272Y-155934535D01*
X177550468Y-155839395D01*
X177508446Y-155790486D01*
X177384788Y-155666575D01*
X177274135Y-155589697D01*
X177171832Y-155559198D01*
X177171832Y-155514546D01*
X177243114Y-155529983D01*
X177330244Y-155576887D01*
X177436181Y-155658091D01*
X177448238Y-155668256D01*
X177609310Y-155804885D01*
X177617386Y-155727811D01*
X177633679Y-155668971D01*
X177660819Y-155637169D01*
X177687749Y-155609304D01*
X177728512Y-155546991D01*
X177775674Y-155461975D01*
X177791243Y-155431203D01*
X177843131Y-155334341D01*
X177879064Y-155282003D01*
X177896283Y-155273677D01*
X177892027Y-155308851D01*
X177863537Y-155387011D01*
X177840150Y-155440287D01*
X177805853Y-155516635D01*
X177782119Y-155572209D01*
X177774575Y-155593162D01*
X177797332Y-155598897D01*
X177798440Y-155598963D01*
X177798440Y-155767044D01*
X177726025Y-155775327D01*
X177684004Y-155803908D01*
X177677867Y-155838620D01*
X177694501Y-155871371D01*
X177739797Y-155899510D01*
X177752798Y-155904015D01*
X177752798Y-156093851D01*
X177713640Y-156104072D01*
X177678706Y-156139488D01*
X177634735Y-156205795D01*
X177537529Y-156326792D01*
X177413463Y-156418697D01*
X177261397Y-156486560D01*
X177191850Y-156514699D01*
X177147482Y-156539255D01*
X177138939Y-156549352D01*
X177153232Y-156576018D01*
X177192275Y-156634996D01*
X177250320Y-156717908D01*
X177321615Y-156816379D01*
X177331213Y-156829420D01*
X177408588Y-156934489D01*
X177478617Y-157029819D01*
X177533778Y-157105154D01*
X177566549Y-157150242D01*
X177567276Y-157151254D01*
X177604394Y-157191069D01*
X177649467Y-157201905D01*
X177705433Y-157194616D01*
X177788219Y-157166889D01*
X177860532Y-157123741D01*
X177863950Y-157120838D01*
X177928101Y-157064764D01*
X177751148Y-156760266D01*
X177673957Y-156623982D01*
X177621820Y-156524264D01*
X177595167Y-156462409D01*
X177594431Y-156439715D01*
X177620044Y-156457479D01*
X177668473Y-156512153D01*
X177732462Y-156572980D01*
X177786626Y-156592155D01*
X177824820Y-156568763D01*
X177836844Y-156537187D01*
X177848981Y-156483705D01*
X177868688Y-156399424D01*
X177890725Y-156306667D01*
X177909951Y-156219640D01*
X177921370Y-156154261D01*
X177922669Y-156123922D01*
X177922363Y-156123497D01*
X177893238Y-156114039D01*
X177832824Y-156102615D01*
X177811758Y-156099468D01*
X177752798Y-156093851D01*
X177752798Y-155904015D01*
X177823384Y-155928474D01*
X177850851Y-155936330D01*
X177944646Y-155960301D01*
X178025917Y-155977285D01*
X178072982Y-155983291D01*
X178121357Y-156001319D01*
X178127818Y-156010829D01*
X178127818Y-157158620D01*
X178098562Y-157177438D01*
X178068740Y-157226601D01*
X178002738Y-157302014D01*
X177895595Y-157360026D01*
X177755269Y-157396486D01*
X177738530Y-157398950D01*
X177656669Y-157418916D01*
X177624306Y-157449381D01*
X177641607Y-157490006D01*
X177678530Y-157520980D01*
X177748627Y-157547803D01*
X177846997Y-157559268D01*
X177953408Y-157555287D01*
X178047629Y-157535775D01*
X178079141Y-157522701D01*
X178140931Y-157476741D01*
X178171089Y-157412817D01*
X178173618Y-157319401D01*
X178167390Y-157268500D01*
X178149999Y-157188651D01*
X178127818Y-157158620D01*
X178127818Y-156010829D01*
X178160892Y-156059517D01*
X178168911Y-156077674D01*
X178201617Y-156136090D01*
X178227208Y-156147437D01*
X178241169Y-156115433D01*
X178238985Y-156043793D01*
X178235810Y-156022605D01*
X178217911Y-155955338D01*
X178182726Y-155908719D01*
X178115785Y-155864431D01*
X178106984Y-155859534D01*
X177998026Y-155809591D01*
X177892142Y-155778613D01*
X177798440Y-155767044D01*
X177798440Y-155598963D01*
X177854945Y-155602349D01*
X177889806Y-155602802D01*
X177983289Y-155611063D01*
X178071822Y-155631574D01*
X178089930Y-155638273D01*
X178174823Y-155673744D01*
X178155507Y-155588100D01*
X178125496Y-155510755D01*
X178077019Y-155432590D01*
X178068753Y-155422310D01*
X178028515Y-155366303D01*
X178015742Y-155331326D01*
X178030674Y-155324808D01*
X178066353Y-155348038D01*
X178108378Y-155366993D01*
X178141243Y-155350208D01*
X178166563Y-155335370D01*
X178166586Y-155360786D01*
X178163485Y-155373357D01*
X178171660Y-155438842D01*
X178210358Y-155486491D01*
X178210358Y-155581836D01*
X178206851Y-155600348D01*
X178229966Y-155649381D01*
X178234407Y-155657716D01*
X178276141Y-155701071D01*
X178345365Y-155743906D01*
X178423554Y-155777648D01*
X178492177Y-155793724D01*
X178522219Y-155790898D01*
X178556428Y-155755394D01*
X178562763Y-155727209D01*
X178548232Y-155690592D01*
X178497460Y-155679128D01*
X178491863Y-155679079D01*
X178423894Y-155667405D01*
X178342533Y-155638366D01*
X178321221Y-155628228D01*
X178246483Y-155591808D01*
X178210358Y-155581836D01*
X178210358Y-155486491D01*
X178226758Y-155506685D01*
X178325265Y-155572754D01*
X178339278Y-155580083D01*
X178466178Y-155622748D01*
X178579455Y-155618051D01*
X178673539Y-155568839D01*
X178742857Y-155477958D01*
X178780890Y-155354417D01*
X178776261Y-155231190D01*
X178725695Y-155114645D01*
X178634081Y-155009852D01*
X178506308Y-154921877D01*
X178347264Y-154855791D01*
X178283083Y-154838283D01*
X178187374Y-154838158D01*
X178106291Y-154881756D01*
X178045337Y-154962776D01*
X178010016Y-155074914D01*
X178003404Y-155158541D01*
X177997429Y-155216829D01*
X177981597Y-155235639D01*
X177977978Y-155234134D01*
X177956128Y-155193525D01*
X177955472Y-155122797D01*
X177972641Y-155036357D01*
X178004268Y-154948612D01*
X178046984Y-154873968D01*
X178067903Y-154849505D01*
X178149354Y-154801552D01*
X178252910Y-154789750D01*
X178369428Y-154810132D01*
X178489767Y-154858731D01*
X178604783Y-154931581D01*
X178705333Y-155024717D01*
X178782275Y-155134171D01*
X178797895Y-155166187D01*
X178829484Y-155296323D01*
X178814009Y-155425954D01*
X178754054Y-155543571D01*
X178700191Y-155601510D01*
X178635369Y-155675639D01*
X178613614Y-155741381D01*
X178592230Y-155795042D01*
X178533892Y-155824823D01*
X178447323Y-155829195D01*
X178341245Y-155806628D01*
X178308316Y-155794919D01*
X178291830Y-155794541D01*
X178281492Y-155813933D01*
X178276478Y-155860833D01*
X178275965Y-155942981D01*
X178279129Y-156068115D01*
X178279157Y-156069008D01*
X178281831Y-156207106D01*
X178278972Y-156305379D01*
X178269651Y-156374643D01*
X178252939Y-156425714D01*
X178247568Y-156436769D01*
X178219637Y-156528302D01*
X178208209Y-156658204D01*
X178208050Y-156688477D01*
X178209293Y-156861361D01*
X178270705Y-156701773D01*
X178320377Y-156589673D01*
X178382657Y-156471493D01*
X178423713Y-156404191D01*
X178506436Y-156295892D01*
X178611576Y-156181621D01*
X178726017Y-156073844D01*
X178836643Y-155985032D01*
X178919340Y-155933016D01*
X178986977Y-155891487D01*
X179035661Y-155849122D01*
X179043709Y-155838166D01*
X179064273Y-155815107D01*
X179070498Y-155824826D01*
X179090870Y-155835661D01*
X179119660Y-155831303D01*
X179119660Y-155879483D01*
X178949269Y-155974377D01*
X178749878Y-156113165D01*
X178573091Y-156291340D01*
X178425236Y-156500116D01*
X178312640Y-156730705D01*
X178246524Y-156950350D01*
X178228203Y-157088026D01*
X178222787Y-157253597D01*
X178229799Y-157425899D01*
X178248760Y-157583767D01*
X178262295Y-157649549D01*
X178302763Y-157763521D01*
X178369277Y-157896770D01*
X178452218Y-158032333D01*
X178453935Y-158034646D01*
X178453935Y-158174846D01*
X178455059Y-158210405D01*
X178483181Y-158287889D01*
X178526908Y-158380703D01*
X178595784Y-158485869D01*
X178687501Y-158582883D01*
X178790011Y-158662215D01*
X178891271Y-158714336D01*
X178968557Y-158730130D01*
X179006864Y-158725947D01*
X179016541Y-158706762D01*
X178997481Y-158662616D01*
X178967297Y-158612038D01*
X178897968Y-158525743D01*
X178819419Y-158483283D01*
X178757029Y-158475876D01*
X178713165Y-158464660D01*
X178667027Y-158425569D01*
X178609554Y-158350436D01*
X178596449Y-158331180D01*
X178526240Y-158234087D01*
X178478199Y-158182358D01*
X178453935Y-158174846D01*
X178453935Y-158034646D01*
X178541963Y-158153245D01*
X178559728Y-158174001D01*
X178650229Y-158255295D01*
X178650229Y-158356155D01*
X178639039Y-158358750D01*
X178654790Y-158383867D01*
X178678993Y-158410496D01*
X178718980Y-158440546D01*
X178750461Y-158450051D01*
X178758809Y-158436132D01*
X178753538Y-158425161D01*
X178726361Y-158398774D01*
X178685488Y-158372039D01*
X178650229Y-158356155D01*
X178650229Y-158255295D01*
X178695426Y-158295895D01*
X178848821Y-158371216D01*
X179024365Y-158401808D01*
X179109410Y-158401590D01*
X179347424Y-158393147D01*
X179540593Y-158393570D01*
X179694184Y-158403086D01*
X179813464Y-158421920D01*
X179857718Y-158433608D01*
X179955128Y-158461722D01*
X180016780Y-158471436D01*
X180055141Y-158460477D01*
X180082676Y-158426577D01*
X180101612Y-158389190D01*
X180149223Y-158321436D01*
X180204087Y-158287109D01*
X180246877Y-158259319D01*
X180303305Y-158201823D01*
X180362009Y-158129196D01*
X180411631Y-158056016D01*
X180440809Y-157996857D01*
X180444244Y-157978956D01*
X180423097Y-157952680D01*
X180370181Y-157919809D01*
X180347553Y-157909067D01*
X180222766Y-157837975D01*
X180114678Y-157746168D01*
X180028285Y-157641835D01*
X179968582Y-157533165D01*
X179940563Y-157428345D01*
X179949224Y-157335564D01*
X179971484Y-157292562D01*
X180000469Y-157262895D01*
X180038373Y-157256146D01*
X180103900Y-157269492D01*
X180111324Y-157271457D01*
X180215416Y-157299241D01*
X180215416Y-157224826D01*
X180230092Y-157130248D01*
X180271261Y-157070530D01*
X180327546Y-157052052D01*
X180374857Y-157038620D01*
X180399246Y-156989807D01*
X180401884Y-156977820D01*
X180432681Y-156908555D01*
X180484781Y-156883329D01*
X180552300Y-156903207D01*
X180602420Y-156941523D01*
X180679546Y-157013914D01*
X180666871Y-156848648D01*
X180652049Y-156728215D01*
X180627775Y-156598435D01*
X180610412Y-156527962D01*
X180566628Y-156372542D01*
X180295677Y-156359533D01*
X180125812Y-156346637D01*
X179997374Y-156324535D01*
X179901319Y-156290214D01*
X179828602Y-156240667D01*
X179781427Y-156188406D01*
X179704748Y-156090160D01*
X179642286Y-156024403D01*
X179579210Y-155981890D01*
X179500686Y-155953373D01*
X179391882Y-155929606D01*
X179355352Y-155922797D01*
X179119660Y-155879483D01*
X179119660Y-155831303D01*
X179140480Y-155828151D01*
X179203691Y-155807864D01*
X179264865Y-155780368D01*
X179308363Y-155751232D01*
X179319173Y-155736275D01*
X179308138Y-155712786D01*
X179264832Y-155704286D01*
X179205261Y-155709793D01*
X179145433Y-155728329D01*
X179111412Y-155748999D01*
X179058559Y-155793493D01*
X179109410Y-155733535D01*
X179149028Y-155696502D01*
X179195795Y-155682724D01*
X179270158Y-155686572D01*
X179277097Y-155687376D01*
X179349924Y-155691749D01*
X179407542Y-155679873D01*
X179471117Y-155645261D01*
X179516618Y-155613950D01*
X179583992Y-155569728D01*
X179634067Y-155543674D01*
X179653261Y-155540681D01*
X179653269Y-155552746D01*
X179633189Y-155576326D01*
X179587150Y-155616789D01*
X179509283Y-155679502D01*
X179454167Y-155722765D01*
X179434470Y-155743922D01*
X179454075Y-155752833D01*
X179495492Y-155754546D01*
X179577511Y-155746764D01*
X179643301Y-155729946D01*
X179689905Y-155702964D01*
X179703956Y-155658920D01*
X179702163Y-155622468D01*
X179676899Y-155547012D01*
X179616409Y-155500805D01*
X179517241Y-155482125D01*
X179425387Y-155484309D01*
X179249611Y-155522599D01*
X179093096Y-155605546D01*
X178962647Y-155728505D01*
X178879329Y-155857057D01*
X178846867Y-155908793D01*
X178827592Y-155917860D01*
X178824042Y-155891310D01*
X178838755Y-155836196D01*
X178856633Y-155793971D01*
X178923051Y-155695585D01*
X179021936Y-155598047D01*
X179136681Y-155515525D01*
X179242476Y-155464872D01*
X179380455Y-155432727D01*
X179514559Y-155427862D01*
X179627809Y-155450393D01*
X179654238Y-155462022D01*
X179716413Y-155505949D01*
X179748195Y-155565589D01*
X179757715Y-155656964D01*
X179757758Y-155666060D01*
X179760420Y-155715448D01*
X179776853Y-155742721D01*
X179819726Y-155757588D01*
X179891241Y-155768368D01*
X179987457Y-155786713D01*
X180103433Y-155816534D01*
X180197479Y-155845877D01*
X180437584Y-155951760D01*
X180654530Y-156092473D01*
X180798082Y-156220698D01*
X180798082Y-157993566D01*
X180741273Y-157999718D01*
X180713168Y-158011861D01*
X180710585Y-158031067D01*
X180740440Y-158038892D01*
X180776626Y-158034845D01*
X180776626Y-158094494D01*
X180730202Y-158106105D01*
X180671946Y-158133722D01*
X180621123Y-158166519D01*
X180597000Y-158193674D01*
X180596797Y-158195526D01*
X180617504Y-158205090D01*
X180670670Y-158193222D01*
X180671597Y-158192900D01*
X180728486Y-158166341D01*
X180772405Y-158134809D01*
X180793254Y-158107767D01*
X180780935Y-158094678D01*
X180776626Y-158094494D01*
X180776626Y-158034845D01*
X180785298Y-158033874D01*
X180818471Y-158020701D01*
X180844952Y-158001600D01*
X180827862Y-157994551D01*
X180798082Y-157993566D01*
X180798082Y-156220698D01*
X180844805Y-156262433D01*
X181004899Y-156456059D01*
X181131302Y-156667768D01*
X181220504Y-156891980D01*
X181268993Y-157123112D01*
X181273261Y-157355583D01*
X181248015Y-157516293D01*
G37*
X181248015Y-157516293D02*
X181167737Y-157763693D01*
X181048560Y-157983664D01*
X180888295Y-158178785D01*
X180684749Y-158351637D01*
X180435732Y-158504799D01*
X180387371Y-158529742D01*
X180190658Y-158628660D01*
X180203681Y-158825591D01*
X180210911Y-158928808D01*
X180221025Y-159065125D01*
X180232695Y-159216965D01*
X180244591Y-159366752D01*
X180244835Y-159369759D01*
X180254053Y-159503088D01*
X180259450Y-159623183D01*
X180260705Y-159718399D01*
X180257497Y-159777094D01*
X180256221Y-159783711D01*
X180212948Y-159860195D01*
X180134525Y-159913976D01*
X180032636Y-159942163D01*
X179918963Y-159941864D01*
X179805189Y-159910188D01*
X179784630Y-159900437D01*
X179663402Y-159811260D01*
X179567811Y-159685336D01*
X179499866Y-159530947D01*
X179461578Y-159356375D01*
X179454955Y-159169902D01*
X179482008Y-158979811D01*
X179526631Y-158837247D01*
X179555544Y-158762211D01*
X179574848Y-158708462D01*
X179579780Y-158691050D01*
X179557286Y-158683132D01*
X179501521Y-158678267D01*
X179484435Y-158677813D01*
X179410398Y-158670443D01*
X179310037Y-158652610D01*
X179211111Y-158629672D01*
X179123534Y-158607755D01*
X179057850Y-158593297D01*
X179026897Y-158589094D01*
X179026141Y-158589398D01*
X179035215Y-158611128D01*
X179066809Y-158654654D01*
X179067722Y-158655783D01*
X179106291Y-158695047D01*
X179136760Y-158696078D01*
X179157346Y-158681697D01*
X179190363Y-158664183D01*
X179198399Y-158674724D01*
X179175836Y-158715399D01*
X179119149Y-158752140D01*
X179044837Y-158776227D01*
X178997365Y-158780981D01*
X178883901Y-158760731D01*
X178763114Y-158706299D01*
X178653758Y-158627159D01*
X178614684Y-158587624D01*
X178545322Y-158495553D01*
X178483150Y-158390002D01*
X178436032Y-158286632D01*
X178411831Y-158201110D01*
X178410210Y-158180305D01*
X178400501Y-158137404D01*
X178374897Y-158061368D01*
X178338686Y-157965290D01*
X178297155Y-157862265D01*
X178255591Y-157765386D01*
X178219282Y-157687748D01*
X178193515Y-157642443D01*
X178192495Y-157641133D01*
X178165551Y-157640651D01*
X178126297Y-157666860D01*
X178092014Y-157705096D01*
X178079680Y-157736851D01*
X178064258Y-157801716D01*
X178023060Y-157892034D01*
X177963688Y-157994898D01*
X177893744Y-158097396D01*
X177820829Y-158186620D01*
X177804963Y-158203371D01*
X177653184Y-158330933D01*
X177494347Y-158413162D01*
X177333058Y-158448805D01*
X177173919Y-158436607D01*
X177073957Y-158402494D01*
X176999472Y-158356735D01*
X176921747Y-158290354D01*
X176852166Y-158215584D01*
X176802117Y-158144654D01*
X176782983Y-158089918D01*
X176787417Y-158051591D01*
X176803302Y-158053094D01*
X176834515Y-158096925D01*
X176859060Y-158138989D01*
X176948812Y-158252362D01*
X177068242Y-158338820D01*
X177201895Y-158388055D01*
X177241204Y-158393908D01*
X177359045Y-158390995D01*
X177481172Y-158364883D01*
X177589341Y-158321104D01*
X177665223Y-158265285D01*
X177699178Y-158215266D01*
X177742095Y-158135072D01*
X177789029Y-158036311D01*
X177835034Y-157930593D01*
X177875164Y-157829528D01*
X177904474Y-157744725D01*
X177918018Y-157687795D01*
X177917346Y-157673444D01*
X177883768Y-157646807D01*
X177826738Y-157636836D01*
X177754686Y-157626968D01*
X177667835Y-157602318D01*
X177641606Y-157592373D01*
X177520478Y-157560690D01*
X177363276Y-157548035D01*
X177342343Y-157547878D01*
X177246546Y-157549609D01*
X177175002Y-157558386D01*
X177109679Y-157579529D01*
X177032545Y-157618361D01*
X176957593Y-157661418D01*
X176763534Y-157774989D01*
X176750146Y-157904706D01*
X176735861Y-157986188D01*
X176708630Y-158097290D01*
X176673116Y-158219924D01*
X176652554Y-158283339D01*
X176604789Y-158413644D01*
X176562090Y-158500411D01*
X176518928Y-158549837D01*
X176469775Y-158568121D01*
X176409100Y-158561458D01*
X176405266Y-158560477D01*
X176352539Y-158563138D01*
X176277424Y-158585351D01*
X176235532Y-158603392D01*
X176103351Y-158644798D01*
X175965123Y-158641444D01*
X175814087Y-158592814D01*
X175761177Y-158567207D01*
X175690388Y-158532118D01*
X175640734Y-158510596D01*
X175625245Y-158507011D01*
X175628072Y-158533109D01*
X175641480Y-158595428D01*
X175662674Y-158681126D01*
X175665509Y-158691992D01*
X175700241Y-158847482D01*
X175711038Y-158961217D01*
X175697433Y-159036550D01*
X175658964Y-159076835D01*
X175610962Y-159086086D01*
X175556531Y-159063353D01*
X175495433Y-159001957D01*
X175435068Y-158912101D01*
X175382841Y-158803986D01*
X175360314Y-158740594D01*
X175332980Y-158622052D01*
X175315250Y-158483711D01*
X175307742Y-158341383D01*
X175311075Y-158210877D01*
X175325868Y-158108002D01*
X175334445Y-158079910D01*
X175357793Y-158029390D01*
X175370502Y-158027567D01*
X175372372Y-158073371D01*
X175363204Y-158165731D01*
X175357831Y-158205479D01*
X175348626Y-158352263D01*
X175358643Y-158506799D01*
X175385123Y-158658435D01*
X175425308Y-158796518D01*
X175476438Y-158910392D01*
X175535755Y-158989406D01*
X175566681Y-159012013D01*
X175614794Y-159031439D01*
X175624965Y-159018918D01*
X175597437Y-158976087D01*
X175554159Y-158927136D01*
X175476031Y-158810898D01*
X175424633Y-158655488D01*
X175399734Y-158459581D01*
X175401104Y-158221854D01*
X175410222Y-158100959D01*
X175420885Y-158017805D01*
X175437672Y-157977826D01*
X175467948Y-157973365D01*
X175503569Y-157989297D01*
X175503569Y-158254243D01*
X175482869Y-158284049D01*
X175481528Y-158319330D01*
X175477446Y-158362373D01*
X175462459Y-158374174D01*
X175437226Y-158389333D01*
X175452729Y-158434837D01*
X175488132Y-158485159D01*
X175520056Y-158530691D01*
X175519061Y-158549454D01*
X175500845Y-158552152D01*
X175465144Y-158563541D01*
X175473860Y-158598092D01*
X175524324Y-158653759D01*
X175577086Y-158693341D01*
X175603997Y-158693388D01*
X175600097Y-158656318D01*
X175584839Y-158624249D01*
X175562367Y-158560760D01*
X175559635Y-158516335D01*
X175562035Y-158449768D01*
X175553823Y-158374877D01*
X175538355Y-158307356D01*
X175518988Y-158262898D01*
X175503569Y-158254243D01*
X175503569Y-157989297D01*
X175513383Y-157993687D01*
X175553070Y-158004606D01*
X175560221Y-157985897D01*
X175532413Y-157948909D01*
X175524425Y-157941942D01*
X175492180Y-157899939D01*
X175486287Y-157877696D01*
X175499315Y-157846067D01*
X175535309Y-157779743D01*
X175589636Y-157686735D01*
X175657661Y-157575056D01*
X175705645Y-157498433D01*
X175778889Y-157381314D01*
X175840556Y-157280083D01*
X175886305Y-157202078D01*
X175911799Y-157154639D01*
X175915405Y-157143624D01*
X175887136Y-157142319D01*
X175823388Y-157147152D01*
X175753253Y-157155186D01*
X175636896Y-157166854D01*
X175507551Y-157174977D01*
X175440636Y-157177033D01*
X175326615Y-157170045D01*
X175245611Y-157139762D01*
X175181982Y-157077667D01*
X175141264Y-157013991D01*
X175121452Y-156986320D01*
X175097631Y-156984600D01*
X175055138Y-157011186D01*
X175026849Y-157032383D01*
X174929943Y-157090999D01*
X174811579Y-157141169D01*
X174689076Y-157177410D01*
X174579751Y-157194244D01*
X174522593Y-157191953D01*
X174407653Y-157152755D01*
X174331311Y-157085399D01*
X174296971Y-156996220D01*
X174308037Y-156891554D01*
X174331347Y-156835992D01*
X174372902Y-156766808D01*
X174413823Y-156712262D01*
X174468825Y-156661029D01*
X174539573Y-156607774D01*
X174612135Y-156561462D01*
X174672581Y-156531055D01*
X174705266Y-156524744D01*
X174710197Y-156541724D01*
X174676712Y-156566807D01*
X174600208Y-156618533D01*
X174515251Y-156691823D01*
X174437963Y-156771258D01*
X174384468Y-156841423D01*
X174378635Y-156851831D01*
X174345169Y-156953685D01*
X174355127Y-157037155D01*
X174403408Y-157099068D01*
X174484911Y-157136253D01*
X174594537Y-157145534D01*
X174727187Y-157123740D01*
X174786165Y-157105394D01*
X174872829Y-157070972D01*
X174943452Y-157035888D01*
X174976855Y-157012723D01*
X174990272Y-156993606D01*
X174968300Y-156996124D01*
X174906085Y-157020935D01*
X174901502Y-157022915D01*
X174789083Y-157061953D01*
X174672325Y-157086691D01*
X174566632Y-157095132D01*
X174487407Y-157085279D01*
X174471486Y-157078664D01*
X174431774Y-157031193D01*
X174418276Y-156955671D01*
X174431134Y-156867706D01*
X174468843Y-156785370D01*
X174515573Y-156733802D01*
X174590652Y-156670657D01*
X174641131Y-156635256D01*
X174641131Y-156797797D01*
X174623241Y-156817902D01*
X174628411Y-156869707D01*
X174655024Y-156940452D01*
X174660613Y-156951613D01*
X174697923Y-157004427D01*
X174733224Y-157027628D01*
X174755648Y-157019611D01*
X174754326Y-156978770D01*
X174749593Y-156964757D01*
X174714584Y-156887932D01*
X174676885Y-156827865D01*
X174645672Y-156798685D01*
X174641131Y-156797797D01*
X174641131Y-156635256D01*
X174678123Y-156609312D01*
X174681165Y-156607392D01*
X174719007Y-156582284D01*
X174719007Y-156721521D01*
X174699482Y-156737484D01*
X174712631Y-156786999D01*
X174750121Y-156857637D01*
X174791849Y-156915773D01*
X174833643Y-156955398D01*
X174865129Y-156968753D01*
X174876076Y-156951834D01*
X174862743Y-156916063D01*
X174829886Y-156859485D01*
X174788217Y-156797809D01*
X174748448Y-156746743D01*
X174721292Y-156721993D01*
X174719007Y-156721521D01*
X174719007Y-156582284D01*
X174786411Y-156537561D01*
X174897156Y-156458397D01*
X174976435Y-156397347D01*
X175051716Y-156341963D01*
X175118239Y-156302991D01*
X175159336Y-156289289D01*
X175182796Y-156286450D01*
X175191793Y-156280337D01*
X175191793Y-156317294D01*
X175165543Y-156323159D01*
X175113442Y-156354765D01*
X175047067Y-156403424D01*
X174977993Y-156460450D01*
X174917797Y-156517159D01*
X174900475Y-156535885D01*
X174845939Y-156623196D01*
X174824600Y-156714694D01*
X174838312Y-156795661D01*
X174863131Y-156832071D01*
X174912264Y-156865264D01*
X174982890Y-156896837D01*
X174993279Y-156900419D01*
X175064431Y-156915328D01*
X175106551Y-156897778D01*
X175126457Y-156841423D01*
X175130876Y-156772372D01*
X175136516Y-156701151D01*
X175149948Y-156602484D01*
X175166842Y-156505405D01*
X175182596Y-156416695D01*
X175191644Y-156349738D01*
X175192207Y-156317957D01*
X175191793Y-156317294D01*
X175191793Y-156280337D01*
X175203028Y-156272702D01*
X175224404Y-156240201D01*
X175251293Y-156181100D01*
X175288066Y-156087554D01*
X175322207Y-155996897D01*
X175352491Y-155926435D01*
X175372352Y-155904345D01*
X175379463Y-155916447D01*
X175397422Y-155948454D01*
X175441060Y-155949269D01*
X175456789Y-155945546D01*
X175501409Y-155939991D01*
X175573157Y-155935276D01*
X175573157Y-156722294D01*
X175524456Y-156729467D01*
X175496264Y-156746454D01*
X175501652Y-156764063D01*
X175509165Y-156767285D01*
X175550553Y-156762887D01*
X175575533Y-156751801D01*
X175575533Y-156829999D01*
X175530093Y-156851884D01*
X175518068Y-156858085D01*
X175463785Y-156892504D01*
X175436277Y-156922382D01*
X175435436Y-156926472D01*
X175452702Y-156938911D01*
X175482021Y-156927207D01*
X175537949Y-156886092D01*
X175564654Y-156858820D01*
X175584640Y-156832273D01*
X175575533Y-156829999D01*
X175575533Y-156751801D01*
X175580674Y-156749519D01*
X175610589Y-156729050D01*
X175593212Y-156722842D01*
X175573157Y-156722294D01*
X175573157Y-155935276D01*
X175588487Y-155934268D01*
X175709636Y-155928738D01*
X175856468Y-155923758D01*
X176020593Y-155919688D01*
X176092522Y-155918339D01*
X176099066Y-155918229D01*
X176099066Y-158036961D01*
X176019554Y-158103866D01*
X175946261Y-158152606D01*
X175871083Y-158168679D01*
X175775750Y-158154877D01*
X175743109Y-158146082D01*
X175660543Y-158132513D01*
X175618093Y-158147174D01*
X175617234Y-158185242D01*
X175659438Y-158241892D01*
X175702258Y-158279796D01*
X175771535Y-158352286D01*
X175804858Y-158438467D01*
X175807526Y-158453403D01*
X175833788Y-158532500D01*
X175886433Y-158579892D01*
X175972377Y-158599222D01*
X176078616Y-158596140D01*
X176206050Y-158559764D01*
X176314264Y-158478040D01*
X176392756Y-158365991D01*
X176412120Y-158321036D01*
X176412156Y-158283993D01*
X176386998Y-158246069D01*
X176330779Y-158198468D01*
X176237633Y-158132395D01*
X176236353Y-158131513D01*
X176099066Y-158036961D01*
X176099066Y-155918229D01*
X176660619Y-155908710D01*
X176713700Y-155838389D01*
X176792034Y-155745171D01*
X176880024Y-155656968D01*
X176966611Y-155583460D01*
X177040736Y-155534327D01*
X177077465Y-155519954D01*
X177162839Y-155512599D01*
X177171832Y-155514546D01*
X177171832Y-155559198D01*
X177073224Y-155574425D01*
X176973655Y-155634725D01*
X176899371Y-155705025D01*
X176836265Y-155776037D01*
X176804815Y-155823536D01*
X176799301Y-155858488D01*
X176807606Y-155880982D01*
X176840408Y-155929242D01*
X176873171Y-155938189D01*
X176915664Y-155906309D01*
X176957312Y-155857793D01*
X177013905Y-155778598D01*
X177034478Y-155721549D01*
X177021636Y-155675712D01*
X177005456Y-155655626D01*
X176988869Y-155634240D01*
X177010238Y-155641120D01*
X177024525Y-155648353D01*
X177073257Y-155683554D01*
X177133202Y-155739473D01*
X177151652Y-155759126D01*
X177185287Y-155798948D01*
X177188398Y-155809038D01*
X177173854Y-155798347D01*
X177142819Y-155775618D01*
X177116602Y-155773504D01*
X177083522Y-155797481D01*
X177031902Y-155853026D01*
X177014008Y-155873309D01*
X176960680Y-155940721D01*
X176927168Y-155996581D01*
X176920590Y-156025672D01*
X176922330Y-156050974D01*
X176901155Y-156045047D01*
X176867367Y-156015166D01*
X176831268Y-155968606D01*
X176824695Y-155957961D01*
X176784474Y-155900708D01*
X176751020Y-155888680D01*
X176713932Y-155922413D01*
X176685435Y-155965115D01*
X176650626Y-156049533D01*
X176651181Y-156142547D01*
X176687680Y-156256124D01*
X176700997Y-156285934D01*
X176743457Y-156343925D01*
X176743457Y-156455432D01*
X176703131Y-156456766D01*
X176702969Y-156456864D01*
X176691370Y-156490042D01*
X176687661Y-156563684D01*
X176691303Y-156668107D01*
X176701755Y-156793628D01*
X176718479Y-156930562D01*
X176735382Y-157038216D01*
X176756950Y-157142161D01*
X176786352Y-157257171D01*
X176819929Y-157371694D01*
X176854021Y-157474176D01*
X176884968Y-157553062D01*
X176909111Y-157596800D01*
X176913615Y-157600864D01*
X176928869Y-157596295D01*
X176923596Y-157548862D01*
X176919606Y-157531959D01*
X176900561Y-157379092D01*
X176926390Y-157243728D01*
X176984488Y-157136047D01*
X177021119Y-157082212D01*
X177043425Y-157037953D01*
X177053896Y-156989218D01*
X177055023Y-156921953D01*
X177049295Y-156822105D01*
X177046702Y-156784961D01*
X177029903Y-156545973D01*
X176950937Y-156528983D01*
X176867442Y-156503869D01*
X176801306Y-156475878D01*
X176743457Y-156455432D01*
X176743457Y-156343925D01*
X176772492Y-156383581D01*
X176878050Y-156444354D01*
X177015480Y-156467039D01*
X177027684Y-156467172D01*
X177197569Y-156446777D01*
X177356295Y-156389308D01*
X177492107Y-156300714D01*
X177593249Y-156186941D01*
X177598666Y-156178286D01*
X177638918Y-156093437D01*
X177645938Y-156015701D01*
X177617272Y-155934535D01*
X177550468Y-155839395D01*
X177508446Y-155790486D01*
X177384788Y-155666575D01*
X177274135Y-155589697D01*
X177171832Y-155559198D01*
X177171832Y-155514546D01*
X177243114Y-155529983D01*
X177330244Y-155576887D01*
X177436181Y-155658091D01*
X177448238Y-155668256D01*
X177609310Y-155804885D01*
X177617386Y-155727811D01*
X177633679Y-155668971D01*
X177660819Y-155637169D01*
X177687749Y-155609304D01*
X177728512Y-155546991D01*
X177775674Y-155461975D01*
X177791243Y-155431203D01*
X177843131Y-155334341D01*
X177879064Y-155282003D01*
X177896283Y-155273677D01*
X177892027Y-155308851D01*
X177863537Y-155387011D01*
X177840150Y-155440287D01*
X177805853Y-155516635D01*
X177782119Y-155572209D01*
X177774575Y-155593162D01*
X177797332Y-155598897D01*
X177798440Y-155598963D01*
X177798440Y-155767044D01*
X177726025Y-155775327D01*
X177684004Y-155803908D01*
X177677867Y-155838620D01*
X177694501Y-155871371D01*
X177739797Y-155899510D01*
X177752798Y-155904015D01*
X177752798Y-156093851D01*
X177713640Y-156104072D01*
X177678706Y-156139488D01*
X177634735Y-156205795D01*
X177537529Y-156326792D01*
X177413463Y-156418697D01*
X177261397Y-156486560D01*
X177191850Y-156514699D01*
X177147482Y-156539255D01*
X177138939Y-156549352D01*
X177153232Y-156576018D01*
X177192275Y-156634996D01*
X177250320Y-156717908D01*
X177321615Y-156816379D01*
X177331213Y-156829420D01*
X177408588Y-156934489D01*
X177478617Y-157029819D01*
X177533778Y-157105154D01*
X177566549Y-157150242D01*
X177567276Y-157151254D01*
X177604394Y-157191069D01*
X177649467Y-157201905D01*
X177705433Y-157194616D01*
X177788219Y-157166889D01*
X177860532Y-157123741D01*
X177863950Y-157120838D01*
X177928101Y-157064764D01*
X177751148Y-156760266D01*
X177673957Y-156623982D01*
X177621820Y-156524264D01*
X177595167Y-156462409D01*
X177594431Y-156439715D01*
X177620044Y-156457479D01*
X177668473Y-156512153D01*
X177732462Y-156572980D01*
X177786626Y-156592155D01*
X177824820Y-156568763D01*
X177836844Y-156537187D01*
X177848981Y-156483705D01*
X177868688Y-156399424D01*
X177890725Y-156306667D01*
X177909951Y-156219640D01*
X177921370Y-156154261D01*
X177922669Y-156123922D01*
X177922363Y-156123497D01*
X177893238Y-156114039D01*
X177832824Y-156102615D01*
X177811758Y-156099468D01*
X177752798Y-156093851D01*
X177752798Y-155904015D01*
X177823384Y-155928474D01*
X177850851Y-155936330D01*
X177944646Y-155960301D01*
X178025917Y-155977285D01*
X178072982Y-155983291D01*
X178121357Y-156001319D01*
X178127818Y-156010829D01*
X178127818Y-157158620D01*
X178098562Y-157177438D01*
X178068740Y-157226601D01*
X178002738Y-157302014D01*
X177895595Y-157360026D01*
X177755269Y-157396486D01*
X177738530Y-157398950D01*
X177656669Y-157418916D01*
X177624306Y-157449381D01*
X177641607Y-157490006D01*
X177678530Y-157520980D01*
X177748627Y-157547803D01*
X177846997Y-157559268D01*
X177953408Y-157555287D01*
X178047629Y-157535775D01*
X178079141Y-157522701D01*
X178140931Y-157476741D01*
X178171089Y-157412817D01*
X178173618Y-157319401D01*
X178167390Y-157268500D01*
X178149999Y-157188651D01*
X178127818Y-157158620D01*
X178127818Y-156010829D01*
X178160892Y-156059517D01*
X178168911Y-156077674D01*
X178201617Y-156136090D01*
X178227208Y-156147437D01*
X178241169Y-156115433D01*
X178238985Y-156043793D01*
X178235810Y-156022605D01*
X178217911Y-155955338D01*
X178182726Y-155908719D01*
X178115785Y-155864431D01*
X178106984Y-155859534D01*
X177998026Y-155809591D01*
X177892142Y-155778613D01*
X177798440Y-155767044D01*
X177798440Y-155598963D01*
X177854945Y-155602349D01*
X177889806Y-155602802D01*
X177983289Y-155611063D01*
X178071822Y-155631574D01*
X178089930Y-155638273D01*
X178174823Y-155673744D01*
X178155507Y-155588100D01*
X178125496Y-155510755D01*
X178077019Y-155432590D01*
X178068753Y-155422310D01*
X178028515Y-155366303D01*
X178015742Y-155331326D01*
X178030674Y-155324808D01*
X178066353Y-155348038D01*
X178108378Y-155366993D01*
X178141243Y-155350208D01*
X178166563Y-155335370D01*
X178166586Y-155360786D01*
X178163485Y-155373357D01*
X178171660Y-155438842D01*
X178210358Y-155486491D01*
X178210358Y-155581836D01*
X178206851Y-155600348D01*
X178229966Y-155649381D01*
X178234407Y-155657716D01*
X178276141Y-155701071D01*
X178345365Y-155743906D01*
X178423554Y-155777648D01*
X178492177Y-155793724D01*
X178522219Y-155790898D01*
X178556428Y-155755394D01*
X178562763Y-155727209D01*
X178548232Y-155690592D01*
X178497460Y-155679128D01*
X178491863Y-155679079D01*
X178423894Y-155667405D01*
X178342533Y-155638366D01*
X178321221Y-155628228D01*
X178246483Y-155591808D01*
X178210358Y-155581836D01*
X178210358Y-155486491D01*
X178226758Y-155506685D01*
X178325265Y-155572754D01*
X178339278Y-155580083D01*
X178466178Y-155622748D01*
X178579455Y-155618051D01*
X178673539Y-155568839D01*
X178742857Y-155477958D01*
X178780890Y-155354417D01*
X178776261Y-155231190D01*
X178725695Y-155114645D01*
X178634081Y-155009852D01*
X178506308Y-154921877D01*
X178347264Y-154855791D01*
X178283083Y-154838283D01*
X178187374Y-154838158D01*
X178106291Y-154881756D01*
X178045337Y-154962776D01*
X178010016Y-155074914D01*
X178003404Y-155158541D01*
X177997429Y-155216829D01*
X177981597Y-155235639D01*
X177977978Y-155234134D01*
X177956128Y-155193525D01*
X177955472Y-155122797D01*
X177972641Y-155036357D01*
X178004268Y-154948612D01*
X178046984Y-154873968D01*
X178067903Y-154849505D01*
X178149354Y-154801552D01*
X178252910Y-154789750D01*
X178369428Y-154810132D01*
X178489767Y-154858731D01*
X178604783Y-154931581D01*
X178705333Y-155024717D01*
X178782275Y-155134171D01*
X178797895Y-155166187D01*
X178829484Y-155296323D01*
X178814009Y-155425954D01*
X178754054Y-155543571D01*
X178700191Y-155601510D01*
X178635369Y-155675639D01*
X178613614Y-155741381D01*
X178592230Y-155795042D01*
X178533892Y-155824823D01*
X178447323Y-155829195D01*
X178341245Y-155806628D01*
X178308316Y-155794919D01*
X178291830Y-155794541D01*
X178281492Y-155813933D01*
X178276478Y-155860833D01*
X178275965Y-155942981D01*
X178279129Y-156068115D01*
X178279157Y-156069008D01*
X178281831Y-156207106D01*
X178278972Y-156305379D01*
X178269651Y-156374643D01*
X178252939Y-156425714D01*
X178247568Y-156436769D01*
X178219637Y-156528302D01*
X178208209Y-156658204D01*
X178208050Y-156688477D01*
X178209293Y-156861361D01*
X178270705Y-156701773D01*
X178320377Y-156589673D01*
X178382657Y-156471493D01*
X178423713Y-156404191D01*
X178506436Y-156295892D01*
X178611576Y-156181621D01*
X178726017Y-156073844D01*
X178836643Y-155985032D01*
X178919340Y-155933016D01*
X178986977Y-155891487D01*
X179035661Y-155849122D01*
X179043709Y-155838166D01*
X179064273Y-155815107D01*
X179070498Y-155824826D01*
X179090870Y-155835661D01*
X179119660Y-155831303D01*
X179119660Y-155879483D01*
X178949269Y-155974377D01*
X178749878Y-156113165D01*
X178573091Y-156291340D01*
X178425236Y-156500116D01*
X178312640Y-156730705D01*
X178246524Y-156950350D01*
X178228203Y-157088026D01*
X178222787Y-157253597D01*
X178229799Y-157425899D01*
X178248760Y-157583767D01*
X178262295Y-157649549D01*
X178302763Y-157763521D01*
X178369277Y-157896770D01*
X178452218Y-158032333D01*
X178453935Y-158034646D01*
X178453935Y-158174846D01*
X178455059Y-158210405D01*
X178483181Y-158287889D01*
X178526908Y-158380703D01*
X178595784Y-158485869D01*
X178687501Y-158582883D01*
X178790011Y-158662215D01*
X178891271Y-158714336D01*
X178968557Y-158730130D01*
X179006864Y-158725947D01*
X179016541Y-158706762D01*
X178997481Y-158662616D01*
X178967297Y-158612038D01*
X178897968Y-158525743D01*
X178819419Y-158483283D01*
X178757029Y-158475876D01*
X178713165Y-158464660D01*
X178667027Y-158425569D01*
X178609554Y-158350436D01*
X178596449Y-158331180D01*
X178526240Y-158234087D01*
X178478199Y-158182358D01*
X178453935Y-158174846D01*
X178453935Y-158034646D01*
X178541963Y-158153245D01*
X178559728Y-158174001D01*
X178650229Y-158255295D01*
X178650229Y-158356155D01*
X178639039Y-158358750D01*
X178654790Y-158383867D01*
X178678993Y-158410496D01*
X178718980Y-158440546D01*
X178750461Y-158450051D01*
X178758809Y-158436132D01*
X178753538Y-158425161D01*
X178726361Y-158398774D01*
X178685488Y-158372039D01*
X178650229Y-158356155D01*
X178650229Y-158255295D01*
X178695426Y-158295895D01*
X178848821Y-158371216D01*
X179024365Y-158401808D01*
X179109410Y-158401590D01*
X179347424Y-158393147D01*
X179540593Y-158393570D01*
X179694184Y-158403086D01*
X179813464Y-158421920D01*
X179857718Y-158433608D01*
X179955128Y-158461722D01*
X180016780Y-158471436D01*
X180055141Y-158460477D01*
X180082676Y-158426577D01*
X180101612Y-158389190D01*
X180149223Y-158321436D01*
X180204087Y-158287109D01*
X180246877Y-158259319D01*
X180303305Y-158201823D01*
X180362009Y-158129196D01*
X180411631Y-158056016D01*
X180440809Y-157996857D01*
X180444244Y-157978956D01*
X180423097Y-157952680D01*
X180370181Y-157919809D01*
X180347553Y-157909067D01*
X180222766Y-157837975D01*
X180114678Y-157746168D01*
X180028285Y-157641835D01*
X179968582Y-157533165D01*
X179940563Y-157428345D01*
X179949224Y-157335564D01*
X179971484Y-157292562D01*
X180000469Y-157262895D01*
X180038373Y-157256146D01*
X180103900Y-157269492D01*
X180111324Y-157271457D01*
X180215416Y-157299241D01*
X180215416Y-157224826D01*
X180230092Y-157130248D01*
X180271261Y-157070530D01*
X180327546Y-157052052D01*
X180374857Y-157038620D01*
X180399246Y-156989807D01*
X180401884Y-156977820D01*
X180432681Y-156908555D01*
X180484781Y-156883329D01*
X180552300Y-156903207D01*
X180602420Y-156941523D01*
X180679546Y-157013914D01*
X180666871Y-156848648D01*
X180652049Y-156728215D01*
X180627775Y-156598435D01*
X180610412Y-156527962D01*
X180566628Y-156372542D01*
X180295677Y-156359533D01*
X180125812Y-156346637D01*
X179997374Y-156324535D01*
X179901319Y-156290214D01*
X179828602Y-156240667D01*
X179781427Y-156188406D01*
X179704748Y-156090160D01*
X179642286Y-156024403D01*
X179579210Y-155981890D01*
X179500686Y-155953373D01*
X179391882Y-155929606D01*
X179355352Y-155922797D01*
X179119660Y-155879483D01*
X179119660Y-155831303D01*
X179140480Y-155828151D01*
X179203691Y-155807864D01*
X179264865Y-155780368D01*
X179308363Y-155751232D01*
X179319173Y-155736275D01*
X179308138Y-155712786D01*
X179264832Y-155704286D01*
X179205261Y-155709793D01*
X179145433Y-155728329D01*
X179111412Y-155748999D01*
X179058559Y-155793493D01*
X179109410Y-155733535D01*
X179149028Y-155696502D01*
X179195795Y-155682724D01*
X179270158Y-155686572D01*
X179277097Y-155687376D01*
X179349924Y-155691749D01*
X179407542Y-155679873D01*
X179471117Y-155645261D01*
X179516618Y-155613950D01*
X179583992Y-155569728D01*
X179634067Y-155543674D01*
X179653261Y-155540681D01*
X179653269Y-155552746D01*
X179633189Y-155576326D01*
X179587150Y-155616789D01*
X179509283Y-155679502D01*
X179454167Y-155722765D01*
X179434470Y-155743922D01*
X179454075Y-155752833D01*
X179495492Y-155754546D01*
X179577511Y-155746764D01*
X179643301Y-155729946D01*
X179689905Y-155702964D01*
X179703956Y-155658920D01*
X179702163Y-155622468D01*
X179676899Y-155547012D01*
X179616409Y-155500805D01*
X179517241Y-155482125D01*
X179425387Y-155484309D01*
X179249611Y-155522599D01*
X179093096Y-155605546D01*
X178962647Y-155728505D01*
X178879329Y-155857057D01*
X178846867Y-155908793D01*
X178827592Y-155917860D01*
X178824042Y-155891310D01*
X178838755Y-155836196D01*
X178856633Y-155793971D01*
X178923051Y-155695585D01*
X179021936Y-155598047D01*
X179136681Y-155515525D01*
X179242476Y-155464872D01*
X179380455Y-155432727D01*
X179514559Y-155427862D01*
X179627809Y-155450393D01*
X179654238Y-155462022D01*
X179716413Y-155505949D01*
X179748195Y-155565589D01*
X179757715Y-155656964D01*
X179757758Y-155666060D01*
X179760420Y-155715448D01*
X179776853Y-155742721D01*
X179819726Y-155757588D01*
X179891241Y-155768368D01*
X179987457Y-155786713D01*
X180103433Y-155816534D01*
X180197479Y-155845877D01*
X180437584Y-155951760D01*
X180654530Y-156092473D01*
X180798082Y-156220698D01*
X180798082Y-157993566D01*
X180741273Y-157999718D01*
X180713168Y-158011861D01*
X180710585Y-158031067D01*
X180740440Y-158038892D01*
X180776626Y-158034845D01*
X180776626Y-158094494D01*
X180730202Y-158106105D01*
X180671946Y-158133722D01*
X180621123Y-158166519D01*
X180597000Y-158193674D01*
X180596797Y-158195526D01*
X180617504Y-158205090D01*
X180670670Y-158193222D01*
X180671597Y-158192900D01*
X180728486Y-158166341D01*
X180772405Y-158134809D01*
X180793254Y-158107767D01*
X180780935Y-158094678D01*
X180776626Y-158094494D01*
X180776626Y-158034845D01*
X180785298Y-158033874D01*
X180818471Y-158020701D01*
X180844952Y-158001600D01*
X180827862Y-157994551D01*
X180798082Y-157993566D01*
X180798082Y-156220698D01*
X180844805Y-156262433D01*
X181004899Y-156456059D01*
X181131302Y-156667768D01*
X181220504Y-156891980D01*
X181268993Y-157123112D01*
X181273261Y-157355583D01*
X181248015Y-157516293D01*
%TD*%
D11*
%TO.C,REF\u002A\u002A*%
X169800000Y-175500000D03*
%TD*%
%TO.C,REF\u002A\u002A*%
X169800000Y-12500000D03*
%TD*%
D12*
%TO.C,LINK*%
X169800000Y-172000000D03*
%TD*%
%TO.C,B8*%
X169800000Y-154000000D03*
%TD*%
%TO.C,B7*%
X169800000Y-137000000D03*
%TD*%
%TO.C,B6*%
X169800000Y-119000000D03*
%TD*%
%TO.C,B5*%
X169800000Y-102000000D03*
%TD*%
%TO.C,B4*%
X169800000Y-85000000D03*
%TD*%
%TO.C,B3*%
X169800000Y-67000000D03*
%TD*%
%TO.C,B2*%
X169800000Y-49000000D03*
%TD*%
%TO.C,B1*%
X169800000Y-32000000D03*
%TD*%
D13*
%TO.C,J2*%
X179950000Y-98950000D03*
D14*
X179950000Y-96410000D03*
X179950000Y-93870000D03*
X179950000Y-91330000D03*
X179950000Y-88790000D03*
%TD*%
%TO.C,J1*%
X177310000Y-88790000D03*
X177310000Y-91330000D03*
X177310000Y-93870000D03*
X177310000Y-96410000D03*
D13*
X177310000Y-98950000D03*
%TD*%
D15*
%TO.C,H1*%
X169800000Y-24000000D03*
%TD*%
%TO.C,H2*%
X169800000Y-41500000D03*
%TD*%
%TO.C,H3*%
X169800000Y-59000000D03*
%TD*%
%TO.C,H4*%
X169800000Y-76500000D03*
%TD*%
%TO.C,H5*%
X169800000Y-94000000D03*
%TD*%
%TO.C,H6*%
X169800000Y-111500000D03*
%TD*%
%TO.C,H7*%
X169800000Y-129000000D03*
%TD*%
%TO.C,H8*%
X169800000Y-146500000D03*
%TD*%
%TO.C,H9*%
X169800000Y-164000000D03*
%TD*%
M02*
